<svg xmlns="http://www.w3.org/2000/svg" xmlns:xlink="http://www.w3.org/1999/xlink" viewBox="0 0 3840 7200"><defs><style>.cls-1{isolation:isolate;}.cls-2{fill:#fcf1e8;}.cls-3{fill:#fffbf0;}.cls-101,.cls-3,.cls-45{stroke:#382e2a;}.cls-10,.cls-101,.cls-11,.cls-112,.cls-12,.cls-132,.cls-14,.cls-146,.cls-15,.cls-154,.cls-155,.cls-3,.cls-4,.cls-45,.cls-6,.cls-7,.cls-78,.cls-8{stroke-miterlimit:10;}.cls-4{fill:#f9d4a8;}.cls-10,.cls-11,.cls-4,.cls-6,.cls-7,.cls-8{stroke:#381915;}.cls-10,.cls-11,.cls-12,.cls-14,.cls-15,.cls-4,.cls-6,.cls-7,.cls-8{stroke-width:0.5px;}.cls-5{fill:#f9e7d2;}.cls-6{fill:#f15243;}.cls-7{fill:#f69340;}.cls-8{fill:#fdef54;}.cls-9{mix-blend-mode:screen;fill:url(#linear-gradient);}.cls-10{fill:#60d198;}.cls-11{fill:#277568;}.cls-12{fill:#9af0f7;}.cls-12,.cls-14{stroke:#1c1a1a;}.cls-13{fill:#cad3e5;}.cls-13,.cls-18,.cls-20,.cls-24,.cls-27,.cls-30,.cls-33,.cls-36,.cls-39,.cls-89{mix-blend-mode:soft-light;}.cls-14{fill:#2562a0;}.cls-15{fill:#8d62e0;stroke:#141111;}.cls-16{fill:url(#linear-gradient-2);}.cls-17,.cls-19,.cls-23,.cls-26,.cls-29,.cls-32,.cls-35,.cls-38{mix-blend-mode:darken;}.cls-17{fill:url(#linear-gradient-3);}.cls-18{fill:url(#linear-gradient-4);}.cls-19{fill:url(#linear-gradient-5);}.cls-20{fill:url(#linear-gradient-6);}.cls-21{fill:#fff;}.cls-22{fill:url(#linear-gradient-7);}.cls-23{fill:url(#linear-gradient-8);}.cls-24{fill:url(#linear-gradient-9);}.cls-25{fill:url(#linear-gradient-10);}.cls-26{fill:url(#linear-gradient-11);}.cls-27{fill:url(#linear-gradient-12);}.cls-28{fill:url(#linear-gradient-13);}.cls-29{fill:url(#linear-gradient-14);}.cls-30{fill:url(#linear-gradient-15);}.cls-31{fill:url(#linear-gradient-16);}.cls-32{fill:url(#linear-gradient-17);}.cls-33{fill:url(#linear-gradient-18);}.cls-34{fill:url(#linear-gradient-19);}.cls-35{fill:url(#linear-gradient-20);}.cls-36{fill:url(#linear-gradient-21);}.cls-37{fill:url(#linear-gradient-22);}.cls-38{fill:url(#linear-gradient-23);}.cls-39{fill:url(#linear-gradient-24);}.cls-40{fill:url(#linear-gradient-25);}.cls-102,.cls-41,.cls-42,.cls-43,.cls-44,.cls-46,.cls-47,.cls-48,.cls-49,.cls-61,.cls-83,.cls-84,.cls-86,.cls-88{mix-blend-mode:multiply;}.cls-41{fill:url(#linear-gradient-26);}.cls-42{fill:url(#linear-gradient-27);}.cls-43{fill:url(#linear-gradient-28);}.cls-44{fill:#d6d8d7;}.cls-45{fill:#fed55e;}.cls-102,.cls-46,.cls-47,.cls-48,.cls-49,.cls-61,.cls-83,.cls-84,.cls-86,.cls-88{opacity:0.52;}.cls-46{fill:url(#linear-gradient-29);}.cls-47{fill:url(#linear-gradient-30);}.cls-48{fill:url(#linear-gradient-31);}.cls-49{fill:url(#linear-gradient-32);}.cls-50{fill:#4f8986;}.cls-51{fill:#a2d2c1;}.cls-52{fill:#2b5f71;}.cls-53{fill:#3a656f;}.cls-54,.cls-57{fill:#fffdfd;}.cls-55{fill:#050a12;}.cls-56{fill:#4a9095;}.cls-57{mix-blend-mode:color-burn;}.cls-58{fill:#3f767e;}.cls-59{fill:#add3c4;}.cls-60{fill:url(#linear-gradient-33);}.cls-61{fill:url(#linear-gradient-34);}.cls-62{fill:#253264;}.cls-63{fill:#dceae5;}.cls-64{fill:#fcfcff;}.cls-65{fill:url(#linear-gradient-35);}.cls-66{fill:url(#linear-gradient-36);}.cls-67{fill:url(#linear-gradient-37);}.cls-68{fill:url(#linear-gradient-38);}.cls-69{fill:url(#linear-gradient-39);}.cls-70{fill:#394260;}.cls-71{fill:#bab9c4;}.cls-72{fill:#616b94;}.cls-73{fill:#737d9f;}.cls-74{fill:#eaeaef;}.cls-75{fill:url(#linear-gradient-40);}.cls-76{fill:#525d87;}.cls-77{fill:#444b6a;}.cls-78{fill:#f7efdb;}.cls-132,.cls-78{stroke:#191817;stroke-width:0.1px;}.cls-79{fill:url(#linear-gradient-41);}.cls-80{fill:#38405d;}.cls-81{fill:#939fb4;}.cls-153,.cls-82{fill:#f4cece;}.cls-111,.cls-136,.cls-145,.cls-82,.cls-98{mix-blend-mode:overlay;}.cls-83{fill:url(#linear-gradient-42);}.cls-84{fill:url(#linear-gradient-43);}.cls-85{fill:url(#linear-gradient-44);}.cls-86{fill:url(#linear-gradient-45);}.cls-87{fill:url(#linear-gradient-46);}.cls-88{fill:url(#linear-gradient-47);}.cls-89{fill:url(#linear-gradient-48);}.cls-90{fill:#eaf1ec;}.cls-91{fill:url(#linear-gradient-49);}.cls-92{fill:url(#linear-gradient-50);}.cls-93{fill:url(#linear-gradient-51);}.cls-94{fill:url(#linear-gradient-52);}.cls-95{fill:url(#linear-gradient-53);}.cls-96{fill:#56567c;}.cls-97{fill:url(#linear-gradient-54);}.cls-98{fill:#e5b767;}.cls-99{fill:#db9939;}.cls-100{fill:#e4b368;}.cls-101,.cls-112,.cls-146,.cls-154,.cls-155{fill:none;}.cls-102{fill:url(#linear-gradient-55);}.cls-103{fill:url(#linear-gradient-56);}.cls-104{fill:url(#linear-gradient-57);}.cls-105{fill:url(#linear-gradient-58);}.cls-106{fill:url(#linear-gradient-59);}.cls-107{fill:url(#linear-gradient-60);}.cls-108{fill:url(#linear-gradient-61);}.cls-109{fill:url(#linear-gradient-62);}.cls-110{fill:url(#linear-gradient-63);}.cls-111{fill:#c6c6c6;}.cls-112{stroke:#171918;}.cls-113{fill:#60686a;}.cls-114{fill:#d3e0e6;}.cls-115{fill:#868f96;}.cls-116{fill:#d7e0e5;}.cls-117{fill:#192c32;}.cls-118{fill:#adb8ae;}.cls-119{fill:#dadbdd;}.cls-120{fill:url(#linear-gradient-64);}.cls-121{fill:url(#linear-gradient-65);}.cls-122{fill:url(#linear-gradient-66);}.cls-123{fill:url(#linear-gradient-67);}.cls-124{fill:url(#linear-gradient-68);}.cls-125{fill:#8a8c92;}.cls-126{fill:#405a62;}.cls-127{fill:#4f676d;}.cls-128{fill:#b9babd;}.cls-129{fill:url(#linear-gradient-69);}.cls-130{fill:#344d55;}.cls-131{fill:#243338;}.cls-132{fill:#fbeedf;}.cls-133{fill:url(#linear-gradient-70);}.cls-134{fill:#1a272b;}.cls-135{fill:#6a8182;}.cls-136{fill:#7db2b2;}.cls-137{fill:#698c86;}.cls-138{fill:#35586d;}.cls-139{fill:url(#linear-gradient-71);}.cls-140{fill:url(#linear-gradient-72);}.cls-141{fill:url(#linear-gradient-73);}.cls-142{fill:url(#linear-gradient-74);}.cls-143{fill:url(#linear-gradient-75);}.cls-144{fill:url(#linear-gradient-76);}.cls-145{fill:#eabfac;}.cls-146{stroke:#23201f;}.cls-147{fill:#d1937a;}.cls-148{fill:#ecded3;}.cls-149{fill:#d8af60;}.cls-150{fill:#a1bbb2;}.cls-151{fill:#bcced2;}.cls-152{fill:#e1c1aa;}.cls-154,.cls-155{stroke:#f4cece;}.cls-154{stroke-width:4px;}.cls-155{stroke-width:3px;}</style><linearGradient id="linear-gradient" x1="797.97" y1="3029.75" x2="990.73" y2="3029.75" gradientUnits="userSpaceOnUse"><stop offset="0" stop-color="#f45244"/><stop offset="0.27" stop-color="#f45446"/><stop offset="0.36" stop-color="#f45b4c"/><stop offset="0.43" stop-color="#f46657"/><stop offset="0.49" stop-color="#f47767"/><stop offset="0.53" stop-color="#f48c7a"/><stop offset="0.57" stop-color="#f47767"/><stop offset="0.62" stop-color="#f46657"/><stop offset="0.68" stop-color="#f45b4c"/><stop offset="0.76" stop-color="#f45446"/><stop offset="1" stop-color="#f45244"/></linearGradient><linearGradient id="linear-gradient-2" x1="178.27" y1="3043.29" x2="440.1" y2="3043.29" gradientUnits="userSpaceOnUse"><stop offset="0" stop-color="#eb4f42"/><stop offset="0.19" stop-color="#ee6354"/><stop offset="0.61" stop-color="#f48c7a"/><stop offset="0.63" stop-color="#f48876"/><stop offset="0.87" stop-color="#f06151"/><stop offset="1" stop-color="#ef5243"/></linearGradient><linearGradient id="linear-gradient-3" x1="154.08" y1="3100.03" x2="443.74" y2="3100.03" gradientUnits="userSpaceOnUse"><stop offset="0" stop-color="#f45444"/><stop offset="0.04" stop-color="#e94e40"/><stop offset="0.12" stop-color="#d34239"/><stop offset="0.22" stop-color="#c23834"/><stop offset="0.34" stop-color="#b73230"/><stop offset="0.51" stop-color="#b02e2e"/><stop offset="0.99" stop-color="#ae2d2d"/></linearGradient><linearGradient id="linear-gradient-4" x1="165.37" y1="3119.64" x2="225.2" y2="3119.64" gradientUnits="userSpaceOnUse"><stop offset="0" stop-color="#ee5142" stop-opacity="0"/><stop offset="0.02" stop-color="#eb5b4f" stop-opacity="0.08"/><stop offset="0.07" stop-color="#e4746e" stop-opacity="0.27"/><stop offset="0.14" stop-color="#de8b8b" stop-opacity="0.45"/><stop offset="0.2" stop-color="#d99ea3" stop-opacity="0.6"/><stop offset="0.27" stop-color="#d4afb8" stop-opacity="0.72"/><stop offset="0.35" stop-color="#d0bcc8" stop-opacity="0.82"/><stop offset="0.44" stop-color="#cdc6d5" stop-opacity="0.9"/><stop offset="0.54" stop-color="#cbcede" stop-opacity="0.96"/><stop offset="0.68" stop-color="#cad2e4" stop-opacity="0.99"/><stop offset="1" stop-color="#cad3e5"/></linearGradient><linearGradient id="linear-gradient-5" x1="451.6" y1="3100.03" x2="741.26" y2="3100.03" gradientUnits="userSpaceOnUse"><stop offset="0" stop-color="#eb7640" stop-opacity="0"/><stop offset="0.05" stop-color="#ea7440" stop-opacity="0.12"/><stop offset="0.14" stop-color="#e9713f" stop-opacity="0.32"/><stop offset="0.23" stop-color="#e86e3e" stop-opacity="0.5"/><stop offset="0.33" stop-color="#e86b3d" stop-opacity="0.66"/><stop offset="0.44" stop-color="#e7693d" stop-opacity="0.78"/><stop offset="0.55" stop-color="#e7683c" stop-opacity="0.88"/><stop offset="0.67" stop-color="#e6673c" stop-opacity="0.95"/><stop offset="0.81" stop-color="#e6663c" stop-opacity="0.99"/><stop offset="1" stop-color="#e6663c"/></linearGradient><linearGradient id="linear-gradient-6" x1="461.54" y1="3119.27" x2="521.37" y2="3119.27" xlink:href="#linear-gradient-4"/><linearGradient id="linear-gradient-7" x1="473.79" y1="3042.57" x2="735.62" y2="3042.57" gradientUnits="userSpaceOnUse"><stop offset="0" stop-color="#f69340"/><stop offset="0.18" stop-color="#f8a94e"/><stop offset="0.35" stop-color="#f9b757"/><stop offset="0.5" stop-color="#f9bc5a"/><stop offset="0.78" stop-color="#f7a249"/><stop offset="1" stop-color="#f69340"/></linearGradient><linearGradient id="linear-gradient-8" x1="750.03" y1="3100.31" x2="1039.69" y2="3100.31" gradientUnits="userSpaceOnUse"><stop offset="0" stop-color="#fdef54"/><stop offset="0.02" stop-color="#fced55"/><stop offset="0.21" stop-color="#f1d762"/><stop offset="0.42" stop-color="#e9c76c"/><stop offset="0.66" stop-color="#e4be71"/><stop offset="0.99" stop-color="#e3bb73"/></linearGradient><linearGradient id="linear-gradient-9" x1="771.13" y1="3118.46" x2="830.96" y2="3118.46" xlink:href="#linear-gradient-4"/><linearGradient id="linear-gradient-10" x1="772.21" y1="3042.84" x2="1034.04" y2="3042.84" gradientUnits="userSpaceOnUse"><stop offset="0" stop-color="#fff" stop-opacity="0"/><stop offset="0.03" stop-color="#fffff9" stop-opacity="0.08"/><stop offset="0.1" stop-color="#fefde8" stop-opacity="0.32"/><stop offset="0.18" stop-color="#fdfcd9" stop-opacity="0.53"/><stop offset="0.25" stop-color="#fdfbcd" stop-opacity="0.7"/><stop offset="0.32" stop-color="#fdfac3" stop-opacity="0.83"/><stop offset="0.39" stop-color="#fcf9bc" stop-opacity="0.92"/><stop offset="0.45" stop-color="#fcf9b8" stop-opacity="0.98"/><stop offset="0.5" stop-color="#fcf9b7"/><stop offset="0.58" stop-color="#fdfac4" stop-opacity="0.81"/><stop offset="0.73" stop-color="#fefcdd" stop-opacity="0.47"/><stop offset="0.86" stop-color="#fefeef" stop-opacity="0.22"/><stop offset="0.95" stop-color="#fffffb" stop-opacity="0.06"/><stop offset="1" stop-color="#fff" stop-opacity="0"/></linearGradient><linearGradient id="linear-gradient-11" x1="1049.1" y1="3100.4" x2="1338.76" y2="3100.4" gradientUnits="userSpaceOnUse"><stop offset="0" stop-color="#208166" stop-opacity="0"/><stop offset="0.05" stop-color="#208166" stop-opacity="0.12"/><stop offset="0.17" stop-color="#208166" stop-opacity="0.39"/><stop offset="0.3" stop-color="#208165" stop-opacity="0.61"/><stop offset="0.44" stop-color="#208165" stop-opacity="0.78"/><stop offset="0.59" stop-color="#208165" stop-opacity="0.91"/><stop offset="0.76" stop-color="#208165" stop-opacity="0.98"/><stop offset="1" stop-color="#208165"/></linearGradient><linearGradient id="linear-gradient-12" x1="1068.52" y1="3121.27" x2="1128.35" y2="3121.27" xlink:href="#linear-gradient-4"/><linearGradient id="linear-gradient-13" x1="1071.28" y1="3042.93" x2="1333.11" y2="3042.93" gradientUnits="userSpaceOnUse"><stop offset="0" stop-color="#60d198"/><stop offset="0.17" stop-color="#74dd95"/><stop offset="0.35" stop-color="#82e694"/><stop offset="0.5" stop-color="#87e993"/><stop offset="0.78" stop-color="#6fda96"/><stop offset="1" stop-color="#60d198"/></linearGradient><linearGradient id="linear-gradient-14" x1="1348.03" y1="3100.38" x2="1637.69" y2="3100.38" gradientUnits="userSpaceOnUse"><stop offset="0" stop-color="#185434" stop-opacity="0"/><stop offset="0.02" stop-color="#185434" stop-opacity="0.03"/><stop offset="0.17" stop-color="#185332" stop-opacity="0.38"/><stop offset="0.33" stop-color="#175231" stop-opacity="0.66"/><stop offset="0.51" stop-color="#175130" stop-opacity="0.85"/><stop offset="0.72" stop-color="#17512f" stop-opacity="0.96"/><stop offset="1" stop-color="#17512f"/></linearGradient><linearGradient id="linear-gradient-15" x1="1369.13" y1="3118.53" x2="1428.96" y2="3118.53" gradientUnits="userSpaceOnUse"><stop offset="0" stop-color="#247060" stop-opacity="0"/><stop offset="0.2" stop-color="#518b84" stop-opacity="0.27"/><stop offset="0.4" stop-color="#7ca4a6" stop-opacity="0.53"/><stop offset="0.6" stop-color="#9eb8c1" stop-opacity="0.73"/><stop offset="0.77" stop-color="#b6c7d5" stop-opacity="0.88"/><stop offset="0.91" stop-color="#c5d0e1" stop-opacity="0.97"/><stop offset="1" stop-color="#cad3e5"/></linearGradient><linearGradient id="linear-gradient-16" x1="1370.21" y1="3042.91" x2="1632.05" y2="3042.91" gradientUnits="userSpaceOnUse"><stop offset="0" stop-color="#185536" stop-opacity="0"/><stop offset="0.04" stop-color="#1f6240" stop-opacity="0.12"/><stop offset="0.13" stop-color="#2f7f55" stop-opacity="0.39"/><stop offset="0.21" stop-color="#3c9766" stop-opacity="0.61"/><stop offset="0.29" stop-color="#47a973" stop-opacity="0.78"/><stop offset="0.37" stop-color="#4eb67d" stop-opacity="0.9"/><stop offset="0.44" stop-color="#52be83" stop-opacity="0.97"/><stop offset="0.5" stop-color="#54c185"/><stop offset="0.67" stop-color="#3c9767" stop-opacity="0.61"/><stop offset="0.83" stop-color="#28734d" stop-opacity="0.28"/><stop offset="0.94" stop-color="#1c5d3d" stop-opacity="0.08"/><stop offset="1" stop-color="#175537" stop-opacity="0"/></linearGradient><linearGradient id="linear-gradient-17" x1="1647.57" y1="3100.22" x2="1937.23" y2="3100.22" gradientUnits="userSpaceOnUse"><stop offset="0.01" stop-color="#71cce9" stop-opacity="0"/><stop offset="0.03" stop-color="#6fc9e9" stop-opacity="0.05"/><stop offset="0.09" stop-color="#68bee9" stop-opacity="0.24"/><stop offset="0.15" stop-color="#61b4e8" stop-opacity="0.43"/><stop offset="0.22" stop-color="#5babe8" stop-opacity="0.58"/><stop offset="0.3" stop-color="#56a3e8" stop-opacity="0.71"/><stop offset="0.38" stop-color="#529de7" stop-opacity="0.82"/><stop offset="0.48" stop-color="#4f99e7" stop-opacity="0.9"/><stop offset="0.59" stop-color="#4d95e7" stop-opacity="0.96"/><stop offset="0.72" stop-color="#4b94e7" stop-opacity="0.99"/><stop offset="1" stop-color="#4b93e7"/></linearGradient><linearGradient id="linear-gradient-18" x1="1668.68" y1="3118.37" x2="1728.5" y2="3118.37" xlink:href="#linear-gradient-4"/><linearGradient id="linear-gradient-19" x1="1669.76" y1="3042.75" x2="1931.59" y2="3042.75" gradientUnits="userSpaceOnUse"><stop offset="0" stop-color="#7dd6ed" stop-opacity="0"/><stop offset="0.07" stop-color="#7ed7ed" stop-opacity="0.02"/><stop offset="0.15" stop-color="#81d8ed" stop-opacity="0.06"/><stop offset="0.22" stop-color="#86dbec" stop-opacity="0.14"/><stop offset="0.29" stop-color="#8de0ec" stop-opacity="0.25"/><stop offset="0.36" stop-color="#97e5eb" stop-opacity="0.39"/><stop offset="0.43" stop-color="#a2ecea" stop-opacity="0.56"/><stop offset="0.5" stop-color="#aff4e8" stop-opacity="0.76"/><stop offset="0.57" stop-color="#bffde7" stop-opacity="0.99"/><stop offset="0.57" stop-color="#bffde7"/><stop offset="0.59" stop-color="#bbfbe8" stop-opacity="0.91"/><stop offset="0.64" stop-color="#b2f8eb" stop-opacity="0.7"/><stop offset="0.68" stop-color="#abf4ee" stop-opacity="0.51"/><stop offset="0.73" stop-color="#a4f1f0" stop-opacity="0.36"/><stop offset="0.78" stop-color="#9feff2" stop-opacity="0.23"/><stop offset="0.83" stop-color="#9aedf3" stop-opacity="0.13"/><stop offset="0.88" stop-color="#97ecf4" stop-opacity="0.06"/><stop offset="0.94" stop-color="#96ebf5" stop-opacity="0.01"/><stop offset="1" stop-color="#95ebf5" stop-opacity="0"/></linearGradient><linearGradient id="linear-gradient-20" x1="1947.76" y1="3100.04" x2="2237.42" y2="3100.04" gradientUnits="userSpaceOnUse"><stop offset="0" stop-color="#10295a" stop-opacity="0"/><stop offset="0.06" stop-color="#10295a" stop-opacity="0.15"/><stop offset="0.21" stop-color="#10295b" stop-opacity="0.46"/><stop offset="0.36" stop-color="#102a5b" stop-opacity="0.7"/><stop offset="0.53" stop-color="#102a5c" stop-opacity="0.87"/><stop offset="0.73" stop-color="#102a5c" stop-opacity="0.97"/><stop offset="1" stop-color="#102a5c"/></linearGradient><linearGradient id="linear-gradient-21" x1="1970.5" y1="3120.37" x2="2030.33" y2="3120.37" gradientUnits="userSpaceOnUse"><stop offset="0" stop-color="#2562a0" stop-opacity="0"/><stop offset="0.02" stop-color="#326ba5" stop-opacity="0.08"/><stop offset="0.07" stop-color="#5281b3" stop-opacity="0.27"/><stop offset="0.14" stop-color="#6e94bf" stop-opacity="0.45"/><stop offset="0.2" stop-color="#87a5c9" stop-opacity="0.6"/><stop offset="0.27" stop-color="#9cb4d2" stop-opacity="0.72"/><stop offset="0.35" stop-color="#adbfd9" stop-opacity="0.82"/><stop offset="0.44" stop-color="#bac8de" stop-opacity="0.9"/><stop offset="0.54" stop-color="#c3cee2" stop-opacity="0.96"/><stop offset="0.68" stop-color="#c8d2e4" stop-opacity="0.99"/><stop offset="1" stop-color="#cad3e5"/></linearGradient><linearGradient id="linear-gradient-22" x1="1969.94" y1="3042.57" x2="2231.78" y2="3042.57" gradientUnits="userSpaceOnUse"><stop offset="0" stop-color="#26629f" stop-opacity="0"/><stop offset="0.06" stop-color="#2a68a8" stop-opacity="0.18"/><stop offset="0.14" stop-color="#306fb4" stop-opacity="0.43"/><stop offset="0.22" stop-color="#3576be" stop-opacity="0.64"/><stop offset="0.3" stop-color="#387bc6" stop-opacity="0.79"/><stop offset="0.37" stop-color="#3b7ecb" stop-opacity="0.91"/><stop offset="0.44" stop-color="#3c80cf" stop-opacity="0.98"/><stop offset="0.5" stop-color="#3d81d0"/><stop offset="0.51" stop-color="#3d80cf" stop-opacity="0.99"/><stop offset="0.69" stop-color="#2e69ae" stop-opacity="0.57"/><stop offset="0.84" stop-color="#245896" stop-opacity="0.26"/><stop offset="0.94" stop-color="#1d4d87" stop-opacity="0.07"/><stop offset="1" stop-color="#1b4981" stop-opacity="0"/></linearGradient><linearGradient id="linear-gradient-23" x1="2246.51" y1="3100.49" x2="2536.17" y2="3100.49" gradientUnits="userSpaceOnUse"><stop offset="0" stop-color="#694db4" stop-opacity="0"/><stop offset="0.09" stop-color="#6349ac" stop-opacity="0.22"/><stop offset="0.21" stop-color="#5c45a4" stop-opacity="0.46"/><stop offset="0.33" stop-color="#56419e" stop-opacity="0.66"/><stop offset="0.47" stop-color="#523e98" stop-opacity="0.81"/><stop offset="0.61" stop-color="#4e3d95" stop-opacity="0.92"/><stop offset="0.77" stop-color="#4d3b93" stop-opacity="0.98"/><stop offset="1" stop-color="#4c3b92"/></linearGradient><linearGradient id="linear-gradient-24" x1="2267.62" y1="3118.64" x2="2327.44" y2="3118.64" gradientUnits="userSpaceOnUse"><stop offset="0" stop-color="#8d62e0" stop-opacity="0"/><stop offset="0.02" stop-color="#926be0" stop-opacity="0.08"/><stop offset="0.07" stop-color="#9e81e1" stop-opacity="0.27"/><stop offset="0.14" stop-color="#a894e2" stop-opacity="0.45"/><stop offset="0.2" stop-color="#b1a5e3" stop-opacity="0.6"/><stop offset="0.27" stop-color="#b9b4e4" stop-opacity="0.72"/><stop offset="0.35" stop-color="#bfbfe4" stop-opacity="0.82"/><stop offset="0.44" stop-color="#c4c8e5" stop-opacity="0.9"/><stop offset="0.54" stop-color="#c7cee5" stop-opacity="0.96"/><stop offset="0.68" stop-color="#c9d2e5" stop-opacity="0.99"/><stop offset="1" stop-color="#cad3e5"/></linearGradient><linearGradient id="linear-gradient-25" x1="2268.7" y1="3043.02" x2="2530.53" y2="3043.02" gradientUnits="userSpaceOnUse"><stop offset="0" stop-color="#6d4fb9" stop-opacity="0"/><stop offset="0.08" stop-color="#7b5ec4" stop-opacity="0.26"/><stop offset="0.16" stop-color="#886bce" stop-opacity="0.48"/><stop offset="0.24" stop-color="#9275d6" stop-opacity="0.67"/><stop offset="0.31" stop-color="#9b7ddd" stop-opacity="0.81"/><stop offset="0.38" stop-color="#a083e1" stop-opacity="0.92"/><stop offset="0.45" stop-color="#a487e4" stop-opacity="0.98"/><stop offset="0.5" stop-color="#a588e5"/><stop offset="0.54" stop-color="#a284e4" stop-opacity="0.9"/><stop offset="0.71" stop-color="#9875e0" stop-opacity="0.52"/><stop offset="0.85" stop-color="#906add" stop-opacity="0.24"/><stop offset="0.95" stop-color="#8c63db" stop-opacity="0.07"/><stop offset="1" stop-color="#8a60da" stop-opacity="0"/></linearGradient><linearGradient id="linear-gradient-26" x1="97.9" y1="3147.73" x2="97.9" y2="3265.62" gradientUnits="userSpaceOnUse"><stop offset="0" stop-color="#f9d4a8" stop-opacity="0"/><stop offset="0.13" stop-color="#f9d4a8" stop-opacity="0.03"/><stop offset="0.31" stop-color="#f9d4a8" stop-opacity="0.11"/><stop offset="0.54" stop-color="#f9d4a8" stop-opacity="0.24"/><stop offset="0.79" stop-color="#f9d4a8" stop-opacity="0.42"/><stop offset="1" stop-color="#f9d4a8" stop-opacity="0.6"/></linearGradient><linearGradient id="linear-gradient-27" x1="2593.26" y1="3145.92" x2="2593.26" y2="3263.8" xlink:href="#linear-gradient-26"/><linearGradient id="linear-gradient-28" x1="1345.21" y1="3168.08" x2="1345.21" y2="3184.06" gradientUnits="userSpaceOnUse"><stop offset="0" stop-color="#f9d4a8" stop-opacity="0"/><stop offset="0.2" stop-color="#f9d4a8" stop-opacity="0.03"/><stop offset="0.5" stop-color="#f9d4a8" stop-opacity="0.11"/><stop offset="0.86" stop-color="#f9d4a8" stop-opacity="0.24"/><stop offset="1" stop-color="#f9d4a8" stop-opacity="0.3"/></linearGradient><linearGradient id="linear-gradient-29" x1="1781.43" y1="737" x2="1781.43" y2="688.15" gradientUnits="userSpaceOnUse"><stop offset="0" stop-color="#fed55e" stop-opacity="0"/><stop offset="0.01" stop-color="#fed55e" stop-opacity="0.03"/><stop offset="0.05" stop-color="#fed55e" stop-opacity="0.21"/><stop offset="0.09" stop-color="#fed55e" stop-opacity="0.38"/><stop offset="0.14" stop-color="#fed55e" stop-opacity="0.53"/><stop offset="0.19" stop-color="#fed55e" stop-opacity="0.66"/><stop offset="0.25" stop-color="#fed55e" stop-opacity="0.77"/><stop offset="0.32" stop-color="#fed55e" stop-opacity="0.85"/><stop offset="0.4" stop-color="#fed55e" stop-opacity="0.92"/><stop offset="0.49" stop-color="#fed55e" stop-opacity="0.97"/><stop offset="0.63" stop-color="#fed55e" stop-opacity="0.99"/><stop offset="1" stop-color="#fed55e"/></linearGradient><linearGradient id="linear-gradient-30" x1="2077.43" y1="1417" x2="2077.43" y2="1368.15" xlink:href="#linear-gradient-29"/><linearGradient id="linear-gradient-31" x1="938.43" y1="1417" x2="938.43" y2="1368.15" xlink:href="#linear-gradient-29"/><linearGradient id="linear-gradient-32" x1="2478.43" y1="1316" x2="2478.43" y2="1267.15" xlink:href="#linear-gradient-29"/><linearGradient id="linear-gradient-33" x1="1440.41" y1="628.74" x2="1893.41" y2="628.74" gradientTransform="matrix(4.18, 0, 0, -1.42, -6018.98, 1516.46)" gradientUnits="userSpaceOnUse"><stop offset="0" stop-color="#fed55e"/><stop offset="0.09" stop-color="#fde173"/><stop offset="0.2" stop-color="#fdea83"/><stop offset="0.32" stop-color="#fcef8d"/><stop offset="0.48" stop-color="#fcf190"/><stop offset="0.66" stop-color="#fcef8d"/><stop offset="0.79" stop-color="#fcea84"/><stop offset="0.9" stop-color="#fde275"/><stop offset="0.99" stop-color="#fed660"/><stop offset="1" stop-color="#fed55e"/></linearGradient><linearGradient id="linear-gradient-34" x1="950.5" y1="687" x2="950.5" y2="675" xlink:href="#linear-gradient-29"/><linearGradient id="linear-gradient-35" x1="2769.33" y1="736.42" x2="2769.33" y2="403.19" gradientTransform="translate(-333.65 107.66) rotate(-6.15)" gradientUnits="userSpaceOnUse"><stop offset="0" stop-color="#525b7c"/><stop offset="0.06" stop-color="#67708c"/><stop offset="0.14" stop-color="#7d869c"/><stop offset="0.24" stop-color="#8e97a9"/><stop offset="0.36" stop-color="#99a2b2"/><stop offset="0.53" stop-color="#a0a9b7"/><stop offset="1" stop-color="#a2abb8"/></linearGradient><linearGradient id="linear-gradient-36" x1="2759.25" y1="735.39" x2="2759.25" y2="419.75" gradientTransform="translate(-333.65 107.66) rotate(-6.15)" gradientUnits="userSpaceOnUse"><stop offset="0" stop-color="#374166"/><stop offset="0.18" stop-color="#3a4468" stop-opacity="0.95"/><stop offset="0.39" stop-color="#444e70" stop-opacity="0.81"/><stop offset="0.61" stop-color="#535d7b" stop-opacity="0.58"/><stop offset="0.84" stop-color="#69728c" stop-opacity="0.26"/><stop offset="1" stop-color="#7b8499" stop-opacity="0"/></linearGradient><linearGradient id="linear-gradient-37" x1="2597.31" y1="409.19" x2="2843.12" y2="409.19" gradientTransform="matrix(0.98, -0.11, 0.11, 0.99, -320.25, 107.29)" gradientUnits="userSpaceOnUse"><stop offset="0" stop-color="#525b7c"/><stop offset="0.03" stop-color="#5a6382"/><stop offset="0.15" stop-color="#747d96"/><stop offset="0.28" stop-color="#8992a5"/><stop offset="0.43" stop-color="#97a0b0"/><stop offset="0.61" stop-color="#9fa8b6"/><stop offset="0.91" stop-color="#a2abb8"/><stop offset="1" stop-color="#858ea5"/></linearGradient><linearGradient id="linear-gradient-38" x1="2546.73" y1="707.83" x2="2546.73" y2="383.58" gradientTransform="translate(-333.65 107.66) rotate(-6.15)" gradientUnits="userSpaceOnUse"><stop offset="0" stop-color="#667391"/><stop offset="1" stop-color="#4a5173"/></linearGradient><linearGradient id="linear-gradient-39" x1="1867.48" y1="7330.98" x2="2113.42" y2="7330.98" gradientTransform="matrix(1, 0.09, 0.08, -1.12, -229.44, 8559.75)" gradientUnits="userSpaceOnUse"><stop offset="0" stop-color="#525b7c"/><stop offset="0.05" stop-color="#5b6482"/><stop offset="0.21" stop-color="#6e7790"/><stop offset="0.39" stop-color="#7c859a"/><stop offset="0.61" stop-color="#848ea0"/><stop offset="1" stop-color="#8690a2"/></linearGradient><linearGradient id="linear-gradient-40" x1="2736.68" y1="566.19" x2="2779.06" y2="566.19" gradientTransform="translate(-333.65 107.66) rotate(-6.15)" gradientUnits="userSpaceOnUse"><stop offset="0" stop-color="#525b7c"/><stop offset="0.83" stop-color="#a2abb8"/><stop offset="1" stop-color="#858ea5"/></linearGradient><linearGradient id="linear-gradient-41" x1="2792.08" y1="745.89" x2="2792.08" y2="392.03" gradientTransform="translate(-333.65 107.66) rotate(-6.15)" gradientUnits="userSpaceOnUse"><stop offset="0" stop-color="#666e89"/><stop offset="0.21" stop-color="#636b85"/><stop offset="0.41" stop-color="#5a627a"/><stop offset="0.6" stop-color="#4a5367"/><stop offset="0.79" stop-color="#353d4c"/><stop offset="0.98" stop-color="#19222a"/><stop offset="1" stop-color="#151e25"/></linearGradient><linearGradient id="linear-gradient-42" x1="2974.43" y1="672" x2="2974.43" y2="623.15" xlink:href="#linear-gradient-29"/><linearGradient id="linear-gradient-43" x1="2210.43" y1="669" x2="2210.43" y2="620.15" xlink:href="#linear-gradient-29"/><linearGradient id="linear-gradient-44" x1="2019.92" y1="221" x2="2359.09" y2="221" xlink:href="#linear-gradient-33"/><linearGradient id="linear-gradient-45" x1="3133.79" y1="1264.62" x2="3133.79" y2="1252.62" xlink:href="#linear-gradient-29"/><linearGradient id="linear-gradient-46" x1="1647.86" y1="149" x2="1952.12" y2="149" xlink:href="#linear-gradient-33"/><linearGradient id="linear-gradient-47" x1="1506.79" y1="1366.62" x2="1506.79" y2="1354.62" xlink:href="#linear-gradient-29"/><linearGradient id="linear-gradient-48" x1="3567.85" y1="734.25" x2="3627.5" y2="734.25" gradientUnits="userSpaceOnUse"><stop offset="0" stop-color="#add3c4" stop-opacity="0"/><stop offset="1" stop-color="#add3c4"/></linearGradient><linearGradient id="linear-gradient-49" x1="1008.41" y1="647.5" x2="1008.41" y2="164.24" gradientTransform="translate(-324.98 39.07) rotate(-4.51)" gradientUnits="userSpaceOnUse"><stop offset="0" stop-color="#525b7c"/><stop offset="0.04" stop-color="#5b6483"/><stop offset="0.17" stop-color="#757e96"/><stop offset="0.31" stop-color="#8992a5"/><stop offset="0.47" stop-color="#97a0b0"/><stop offset="0.66" stop-color="#a0a9b6"/><stop offset="1" stop-color="#a2abb8"/></linearGradient><linearGradient id="linear-gradient-50" x1="998.19" y1="645.98" x2="998.19" y2="188.45" gradientTransform="translate(-324.98 39.07) rotate(-4.51)" xlink:href="#linear-gradient-36"/><linearGradient id="linear-gradient-51" x1="641.56" y1="169.56" x2="1048.82" y2="169.56" gradientTransform="matrix(0.98, -0.08, 0.08, 1, -311.58, 39.09)" gradientUnits="userSpaceOnUse"><stop offset="0" stop-color="#525b7c"/><stop offset="0.05" stop-color="#5a6382"/><stop offset="0.27" stop-color="#7a839a"/><stop offset="0.48" stop-color="#9099aa"/><stop offset="0.68" stop-color="#9da6b5"/><stop offset="0.86" stop-color="#a2abb8"/><stop offset="0.91" stop-color="#9fa8b6"/><stop offset="0.96" stop-color="#959eaf"/><stop offset="1" stop-color="#858ea5"/></linearGradient><linearGradient id="linear-gradient-52" x1="643.07" y1="612.25" x2="643.07" y2="137.25" gradientTransform="translate(-324.98 39.07) rotate(-4.51)" xlink:href="#linear-gradient-38"/><linearGradient id="linear-gradient-53" x1="-11.12" y1="7098.56" x2="394.83" y2="7098.56" gradientTransform="matrix(1, 0.12, 0.11, -1.12, -463.48, 8490.67)" gradientUnits="userSpaceOnUse"><stop offset="0" stop-color="#525b7c"/><stop offset="0.21" stop-color="#69728c"/><stop offset="0.44" stop-color="#798399"/><stop offset="0.69" stop-color="#838da0"/><stop offset="1" stop-color="#8690a2"/></linearGradient><linearGradient id="linear-gradient-54" x1="974.63" y1="401.07" x2="1007.68" y2="401.07" gradientTransform="translate(-324.98 39.07) rotate(-4.51)" xlink:href="#linear-gradient-40"/><linearGradient id="linear-gradient-55" x1="2587.5" y1="621" x2="2587.5" y2="609" xlink:href="#linear-gradient-29"/><linearGradient id="linear-gradient-56" x1="1948.29" y1="675.03" x2="2166.84" y2="675.03" xlink:href="#linear-gradient-33"/><linearGradient id="linear-gradient-57" x1="424.1" y1="1841.27" x2="424.1" y2="1429.62" gradientTransform="matrix(-0.99, -0.1, -0.1, 0.99, 929.74, 51.26)" gradientUnits="userSpaceOnUse"><stop offset="0" stop-color="#525b7c"/><stop offset="0.01" stop-color="#555e7e"/><stop offset="0.16" stop-color="#717a93"/><stop offset="0.32" stop-color="#8790a4"/><stop offset="0.5" stop-color="#969faf"/><stop offset="0.7" stop-color="#9fa8b6"/><stop offset="1" stop-color="#a2abb8"/></linearGradient><linearGradient id="linear-gradient-58" x1="408.57" y1="1840.05" x2="408.57" y2="1449.57" gradientTransform="matrix(-0.99, -0.1, -0.1, 0.99, 929.74, 51.26)" xlink:href="#linear-gradient-36"/><linearGradient id="linear-gradient-59" x1="85.34" y1="1429.17" x2="469.8" y2="1429.17" gradientTransform="matrix(-0.98, -0.1, -0.1, 0.99, 916.34, 50.95)" gradientUnits="userSpaceOnUse"><stop offset="0" stop-color="#525b7c"/><stop offset="0.05" stop-color="#67708c"/><stop offset="0.12" stop-color="#7d869c"/><stop offset="0.2" stop-color="#8e97a9"/><stop offset="0.3" stop-color="#99a2b2"/><stop offset="0.44" stop-color="#a0a9b7"/><stop offset="0.83" stop-color="#a2abb8"/><stop offset="1" stop-color="#858ea5"/></linearGradient><linearGradient id="linear-gradient-60" x1="76.59" y1="1799.19" x2="76.59" y2="1398.74" gradientTransform="matrix(-0.99, -0.1, -0.1, 0.99, 929.74, 51.26)" xlink:href="#linear-gradient-38"/><linearGradient id="linear-gradient-61" x1="-366.79" y1="5953.58" x2="17.67" y2="5953.58" gradientTransform="matrix(-1, 0.09, -0.08, -1.12, 855.14, 8503.67)" gradientUnits="userSpaceOnUse"><stop offset="0" stop-color="#525b7c"/><stop offset="0.06" stop-color="#5d6784"/><stop offset="0.2" stop-color="#707992"/><stop offset="0.36" stop-color="#7c869b"/><stop offset="0.57" stop-color="#848ea0"/><stop offset="1" stop-color="#8690a2"/></linearGradient><linearGradient id="linear-gradient-62" x1="377" y1="1630.41" x2="435.98" y2="1630.41" gradientTransform="matrix(-0.99, -0.1, -0.1, 0.99, 929.74, 51.26)" xlink:href="#linear-gradient-40"/><linearGradient id="linear-gradient-63" x1="460.27" y1="1853.24" x2="460.27" y2="1416.09" gradientTransform="matrix(-0.99, -0.1, -0.1, 0.99, 929.74, 51.26)" xlink:href="#linear-gradient-41"/><linearGradient id="linear-gradient-64" x1="3843.75" y1="2727.65" x2="3843.75" y2="2276.48" gradientTransform="translate(-386.11 154.91) rotate(-6.41)" gradientUnits="userSpaceOnUse"><stop offset="0" stop-color="#31454a"/><stop offset="0.12" stop-color="#47595d"/><stop offset="0.28" stop-color="#5c6d6f"/><stop offset="0.46" stop-color="#6b7b7c"/><stop offset="0.68" stop-color="#738384"/><stop offset="1" stop-color="#768686"/></linearGradient><linearGradient id="linear-gradient-65" x1="3830.91" y1="2726.25" x2="3830.91" y2="2299.03" gradientTransform="translate(-386.11 154.91) rotate(-6.41)" gradientUnits="userSpaceOnUse"><stop offset="0" stop-color="#1c2f34"/><stop offset="0.26" stop-color="#213439" stop-opacity="0.91"/><stop offset="0.57" stop-color="#304347" stop-opacity="0.63"/><stop offset="0.89" stop-color="#495b5e" stop-opacity="0.18"/><stop offset="1" stop-color="#536567" stop-opacity="0"/></linearGradient><linearGradient id="linear-gradient-66" x1="3639.52" y1="2286.31" x2="3951.11" y2="2286.31" gradientTransform="matrix(0.98, -0.11, 0.11, 0.99, -372.71, 154.49)" gradientUnits="userSpaceOnUse"><stop offset="0" stop-color="#31454a"/><stop offset="0.1" stop-color="#485b5e"/><stop offset="0.22" stop-color="#5d6e70"/><stop offset="0.35" stop-color="#6b7c7c"/><stop offset="0.51" stop-color="#738484"/><stop offset="0.78" stop-color="#768686"/><stop offset="1" stop-color="#5d7073"/></linearGradient><linearGradient id="linear-gradient-67" x1="3561.42" y1="2690.72" x2="3561.42" y2="2251.68" gradientTransform="translate(-386.11 154.91) rotate(-6.41)" gradientUnits="userSpaceOnUse"><stop offset="0" stop-color="#435c5f"/><stop offset="1" stop-color="#2a3a41"/></linearGradient><linearGradient id="linear-gradient-68" x1="3196.3" y1="5779.59" x2="3508.11" y2="5779.59" gradientTransform="matrix(1.01, 0.09, 0.08, -1.12, -243.36, 8606.44)" gradientUnits="userSpaceOnUse"><stop offset="0" stop-color="#31454a"/><stop offset="0.03" stop-color="#384b50"/><stop offset="0.14" stop-color="#495b5e"/><stop offset="0.28" stop-color="#546769"/><stop offset="0.47" stop-color="#5b6d6e"/><stop offset="1" stop-color="#5d6f70"/></linearGradient><linearGradient id="linear-gradient-69" x1="3801.32" y1="2497.32" x2="3856.96" y2="2497.32" gradientTransform="translate(-386.11 154.91) rotate(-6.41)" gradientUnits="userSpaceOnUse"><stop offset="0" stop-color="#31454a"/><stop offset="0.83" stop-color="#768686"/><stop offset="1" stop-color="#5d7073"/></linearGradient><linearGradient id="linear-gradient-70" x1="3872.44" y1="2740.4" x2="3872.44" y2="2261.3" gradientTransform="translate(-386.11 154.91) rotate(-6.41)" gradientUnits="userSpaceOnUse"><stop offset="0" stop-color="#415357"/><stop offset="0.28" stop-color="#3e4f53"/><stop offset="0.55" stop-color="#344449"/><stop offset="0.81" stop-color="#253137"/><stop offset="1" stop-color="#151e25"/></linearGradient><linearGradient id="linear-gradient-71" x1="1315.23" y1="1910.53" x2="1315.23" y2="1630.08" gradientTransform="translate(-321.95 39.26) rotate(-4.62)" gradientUnits="userSpaceOnUse"><stop offset="0" stop-color="#525b7c"/><stop offset="1" stop-color="#a2abb8"/></linearGradient><linearGradient id="linear-gradient-72" x1="1310.09" y1="1909.74" x2="1310.09" y2="1643.22" gradientTransform="translate(-321.95 39.26) rotate(-4.62)" xlink:href="#linear-gradient-36"/><linearGradient id="linear-gradient-73" x1="971.05" y1="1627.36" x2="1354.89" y2="1627.36" gradientTransform="matrix(0.98, -0.08, 0.08, 1, -308.54, 39.25)" xlink:href="#linear-gradient-40"/><linearGradient id="linear-gradient-74" x1="971.99" y1="1877.75" x2="971.99" y2="1602.27" gradientTransform="translate(-321.95 39.26) rotate(-4.62)" xlink:href="#linear-gradient-38"/><linearGradient id="linear-gradient-75" x1="542.1" y1="6042.67" x2="924.92" y2="6042.67" gradientTransform="matrix(1, 0.12, 0.11, -1.12, -443.53, 8491.15)" gradientUnits="userSpaceOnUse"><stop offset="0" stop-color="#525b7c"/><stop offset="0.04" stop-color="#586180"/><stop offset="0.21" stop-color="#6c768f"/><stop offset="0.41" stop-color="#7b859a"/><stop offset="0.64" stop-color="#838da0"/><stop offset="1" stop-color="#8690a2"/></linearGradient><linearGradient id="linear-gradient-76" x1="1289.73" y1="1766.5" x2="1309.2" y2="1766.5" gradientTransform="translate(-321.95 39.26) rotate(-4.62)" xlink:href="#linear-gradient-40"/></defs><g class="cls-1"><g id="Layer_3" data-name="Layer 3"><rect class="cls-2" x="-1.01" width="3841.25" height="2504"/></g><g id="Layer_1" data-name="Layer 1"><rect class="cls-3" x="0.49" y="3269.5" width="3379.16" height="70"/><rect class="cls-4" x="52.28" y="3129.53" width="2575.68" height="54.44" rx="0.65"/><rect class="cls-5" x="57.18" y="3129.98" width="2575.68" height="8.42" rx="0.65"/><rect class="cls-6" x="154.17" y="3027.72" width="291.29" height="101.72" rx="7.05"/><rect class="cls-4" x="52.28" y="3044.5" width="91.77" height="224.51" rx="3.73"/><rect class="cls-4" x="2547.23" y="3044.5" width="91.77" height="224.51" rx="3.73"/><path class="cls-4" d="M276.26,3019.5h47.12a.88.88,0,0,1,.88.88v7.35a0,0,0,0,1,0,0H275.38a0,0,0,0,1,0,0v-7.35A.88.88,0,0,1,276.26,3019.5Z"/><rect class="cls-7" x="452.15" y="3027.72" width="291.29" height="101.72" rx="7.05"/><path class="cls-4" d="M574.24,3019.5h47.12a.88.88,0,0,1,.88.88v7.35a0,0,0,0,1,0,0H573.36a0,0,0,0,1,0,0v-7.35A.88.88,0,0,1,574.24,3019.5Z"/><rect class="cls-8" x="750.66" y="3027.72" width="291.29" height="101.72" rx="7.05"/><path class="cls-4" d="M872.75,3019.5h47.12a.88.88,0,0,1,.88.88v7.35a0,0,0,0,1,0,0H871.88a0,0,0,0,1,0,0v-7.35A.88.88,0,0,1,872.75,3019.5Z"/><path class="cls-9" d="M798.11,3028.92c29.89.39,60.13.29,91.83.36,37.44.08,68.8,1.49,100.79-.93-.55.84-2.82,1.09-3.38,1.93-34.49.94-63,.63-99.8.83-31.68.17-59.47-.27-89.58-.67"/><rect class="cls-10" x="1050.01" y="3027.72" width="291.29" height="101.72" rx="7.05"/><path class="cls-4" d="M1172.09,3019.5h47.12a.88.88,0,0,1,.88.88v7.35a0,0,0,0,1,0,0h-48.87a0,0,0,0,1,0,0v-7.35A.88.88,0,0,1,1172.09,3019.5Z"/><rect class="cls-11" x="1348.72" y="3027.72" width="291.29" height="101.72" rx="7.05"/><path class="cls-4" d="M1470.8,3019.5h47.12a.88.88,0,0,1,.88.88v7.35a0,0,0,0,1,0,0h-48.87a0,0,0,0,1,0,0v-7.35A.88.88,0,0,1,1470.8,3019.5Z"/><rect class="cls-12" x="1648.38" y="3027.72" width="291.29" height="101.72" rx="7.05"/><path class="cls-4" d="M1770.46,3019.5h47.12a.88.88,0,0,1,.88.88v7.35a0,0,0,0,1,0,0h-48.87a0,0,0,0,1,0,0v-7.35A.88.88,0,0,1,1770.46,3019.5Z"/><path class="cls-13" d="M1695.82,3028.92c29.89.39,60.13.29,91.83.36,37.44.08,68.8,1.49,100.79-.93-.55.84-2.82,1.09-3.38,1.93-34.49.94-63,.63-99.8.83-31.68.17-59.47-.27-89.58-.67"/><rect class="cls-14" x="1948.63" y="3027.72" width="291.29" height="101.72" rx="7.05"/><path class="cls-4" d="M2070.71,3019.5h47.12a.88.88,0,0,1,.88.88v7.35a0,0,0,0,1,0,0h-48.87a0,0,0,0,1,0,0v-7.35A.88.88,0,0,1,2070.71,3019.5Z"/><rect class="cls-15" x="2247.46" y="3027.72" width="291.29" height="101.72" rx="7.05"/><path class="cls-4" d="M2369.55,3019.5h47.12a.88.88,0,0,1,.88.88v7.35a0,0,0,0,1,0,0h-48.87a0,0,0,0,1,0,0v-7.35A.88.88,0,0,1,2369.55,3019.5Z"/><path class="cls-16" d="M178.27,3034.05l244.67-3.11a39.92,39.92,0,0,1,10.9,11.58,60.92,60.92,0,0,1,6.26,13.12c-2.08-1.56-18.25-14.39-18.25-14.39L205,3040S192.24,3042.62,178.27,3034.05Z"/><path class="cls-17" d="M154.11,3070.36a178.55,178.55,0,0,0,47.59,35c25.74,13,48.74,15.36,94.73,20.16,18.76,2,46.47,1.25,101.9-.18,7.24-.18,21.56-.71,36.51-8.9a69,69,0,0,0,8.9-5.81A33.16,33.16,0,0,1,429.4,3126a30.78,30.78,0,0,1-8.58,3c-20.57.1-37.32.23-48.83.29-24.88.14-50.72.27-54.49.22-16-.23-18-.41-31.46-.4-17.9,0-17.43.44-39.56.62-32.4.27-32.94-.65-44-.09a155.31,155.31,0,0,1-15.71-.18c-7-.42-9.38-1-10.26-1.27-1.07-.29-8.48-2.38-13.81-7.72-6.92-6.93-7.52-17.07-8.45-37.06C154,3077.93,154.06,3073.44,154.11,3070.36Z"/><path class="cls-18" d="M165.37,3115.15a24.14,24.14,0,0,1,5.71-2.83l41.22,11.17s11.87,2.71,12.9,3.47c-11.41-.27-31.06-.85-42.48-1.11Z"/><path class="cls-19" d="M451.64,3070.36a178.55,178.55,0,0,0,47.59,35c25.74,13,48.73,15.36,94.72,20.16,18.76,2,46.48,1.25,101.9-.18,7.24-.18,21.56-.71,36.51-8.9a68.34,68.34,0,0,0,8.9-5.81A33.18,33.18,0,0,1,726.93,3126a31,31,0,0,1-8.58,3c-20.57.1-37.33.23-48.83.29-24.89.14-50.72.27-54.5.22-16-.23-18-.41-31.45-.4-17.91,0-17.44.44-39.57.62-32.4.27-32.93-.65-43.95-.09a155.49,155.49,0,0,1-15.72-.18c-7-.42-9.38-1-10.26-1.27-1.06-.29-8.47-2.38-13.8-7.72-6.93-6.93-7.53-17.07-8.45-37.06C451.57,3077.93,451.58,3073.44,451.64,3070.36Z"/><path class="cls-20" d="M461.54,3114.79a24.15,24.15,0,0,1,5.71-2.84l41.22,11.18s11.86,2.7,12.9,3.47c-11.42-.27-31.07-.85-42.48-1.12Z"/><path class="cls-21" d="M412,3033.3h8.23a1.94,1.94,0,0,1,1.91,1.66l.76,5.24Z"/><path class="cls-21" d="M410.91,3039.69l-2.86-.16a.7.7,0,0,1-.63-.69l-.15-2.09Z"/><path class="cls-22" d="M473.79,3033.32l244.67-3.11a40.19,40.19,0,0,1,10.9,11.58,61.45,61.45,0,0,1,6.26,13.13c-2.08-1.56-18.25-14.4-18.25-14.4l-216.88-1.27S487.75,3041.9,473.79,3033.32Z"/><path class="cls-21" d="M707.47,3032.58h8.23a1.93,1.93,0,0,1,1.91,1.65l.76,5.25Z"/><path class="cls-21" d="M706.43,3039l-2.86-.16a.69.69,0,0,1-.63-.69l-.15-2.08Z"/><path class="cls-23" d="M750.06,3070.63a178.76,178.76,0,0,0,47.59,35.06c25.74,12.95,48.74,15.35,94.73,20.16,18.75,2,46.47,1.25,101.9-.18,7.23-.19,21.56-.72,36.51-8.9a69.64,69.64,0,0,0,8.9-5.82,33.21,33.21,0,0,1-14.34,15.29,31,31,0,0,1-8.58,3c-20.57.09-37.32.22-48.83.29-24.89.14-50.72.26-54.49.21-16-.23-18-.41-31.46-.4-17.9,0-17.43.44-39.57.63-32.39.27-32.93-.65-43.95-.1a148.6,148.6,0,0,1-15.71-.18c-7-.42-9.38-1-10.27-1.27-1.06-.29-8.47-2.38-13.8-7.72-6.92-6.93-7.53-17.07-8.45-37.05C750,3078.2,750,3073.71,750.06,3070.63Z"/><path class="cls-24" d="M771.13,3114a24.57,24.57,0,0,1,5.71-2.83l41.22,11.18s11.87,2.7,12.9,3.46c-11.41-.26-31.07-.85-42.48-1.11Z"/><path class="cls-25" d="M772.21,3033.59l244.67-3.1a40,40,0,0,1,10.9,11.57,61.19,61.19,0,0,1,6.26,13.13c-2.08-1.56-18.25-14.4-18.25-14.4l-216.88-1.27S786.18,3042.17,772.21,3033.59Z"/><path class="cls-21" d="M1005.89,3032.85h8.23a1.93,1.93,0,0,1,1.91,1.65l.76,5.25Z"/><path class="cls-21" d="M1004.85,3039.24l-2.86-.16a.7.7,0,0,1-.63-.69l-.15-2.09Z"/><path class="cls-26" d="M1049.13,3070.72a178.76,178.76,0,0,0,47.59,35.06c25.74,12.95,48.74,15.35,94.73,20.16,18.75,2,46.47,1.25,101.9-.18,7.23-.19,21.56-.72,36.5-8.9a69.16,69.16,0,0,0,8.91-5.82,33.21,33.21,0,0,1-14.34,15.29,30.62,30.62,0,0,1-8.58,3c-20.57.09-37.32.22-48.83.29-24.89.14-50.72.27-54.49.21-16-.23-18-.41-31.46-.4-17.9,0-17.43.44-39.57.63-32.39.27-32.93-.65-44-.09a153.72,153.72,0,0,1-15.71-.19c-7-.42-9.38-1-10.27-1.27-1.06-.29-8.47-2.38-13.8-7.72-6.92-6.93-7.53-17.06-8.45-37.05C1049.06,3078.3,1049.07,3073.8,1049.13,3070.72Z"/><path class="cls-27" d="M1068.52,3116.79a24.15,24.15,0,0,1,5.71-2.84l41.22,11.18s11.87,2.7,12.9,3.47c-11.41-.27-31.07-.85-42.48-1.12Z"/><path class="cls-28" d="M1071.28,3033.68l244.67-3.1a40,40,0,0,1,10.9,11.57,61.19,61.19,0,0,1,6.26,13.13c-2.08-1.56-18.25-14.4-18.25-14.4L1098,3039.61S1085.25,3042.26,1071.28,3033.68Z"/><path class="cls-21" d="M1305,3032.94h8.23a1.94,1.94,0,0,1,1.91,1.66l.76,5.24Z"/><path class="cls-21" d="M1303.92,3039.33l-2.86-.16a.7.7,0,0,1-.63-.69l-.15-2.09Z"/><path class="cls-29" d="M1348.06,3070.7a178.88,178.88,0,0,0,47.59,35.05c25.74,13,48.74,15.36,94.73,20.17,18.76,2,46.47,1.24,101.9-.18,7.24-.19,21.56-.72,36.51-8.91a68.34,68.34,0,0,0,8.9-5.81,33.18,33.18,0,0,1-14.33,15.29,30.94,30.94,0,0,1-8.59,3c-20.57.1-37.32.23-48.83.3-24.88.14-50.71.26-54.49.21-16-.23-18-.41-31.46-.4-17.9,0-17.43.44-39.56.62-32.4.27-32.94-.65-44-.09a151.88,151.88,0,0,1-15.71-.18c-7-.42-9.38-1-10.26-1.27-1.07-.29-8.48-2.38-13.81-7.72-6.92-6.93-7.52-17.07-8.44-37C1348,3078.27,1348,3073.78,1348.06,3070.7Z"/><path class="cls-30" d="M1369.13,3114a24.34,24.34,0,0,1,5.71-2.84l41.22,11.18s11.87,2.71,12.9,3.47c-11.41-.27-31.06-.85-42.48-1.12Z"/><path class="cls-31" d="M1370.21,3033.66l244.67-3.1a39.72,39.72,0,0,1,10.9,11.57,61.28,61.28,0,0,1,6.27,13.13c-2.08-1.56-18.26-14.4-18.26-14.4l-216.87-1.27S1384.18,3042.24,1370.21,3033.66Z"/><path class="cls-21" d="M1603.89,3032.92h8.23a1.92,1.92,0,0,1,1.91,1.65l.76,5.25Z"/><path class="cls-21" d="M1602.86,3039.31l-2.87-.16a.72.72,0,0,1-.63-.69l-.15-2.09Z"/><path class="cls-32" d="M1647.61,3070.54a178.85,178.85,0,0,0,47.58,35.06c25.74,13,48.74,15.35,94.73,20.16,18.76,2,46.47,1.25,101.9-.18,7.24-.19,21.56-.72,36.51-8.9a69.4,69.4,0,0,0,8.9-5.81,33.21,33.21,0,0,1-14.33,15.28,30.67,30.67,0,0,1-8.59,3c-20.56.09-37.32.23-48.83.29-24.88.14-50.71.27-54.49.21-16-.23-18-.41-31.46-.4-17.9,0-17.43.44-39.56.63-32.4.27-32.94-.65-44-.09a153.72,153.72,0,0,1-15.71-.19c-7-.42-9.38-1-10.26-1.27-1.07-.29-8.48-2.38-13.81-7.72-6.92-6.93-7.52-17.06-8.44-37C1647.54,3078.12,1647.55,3073.62,1647.61,3070.54Z"/><path class="cls-33" d="M1668.68,3113.88a24.39,24.39,0,0,1,5.7-2.83l41.22,11.18s11.87,2.7,12.9,3.46c-11.41-.26-31.06-.85-42.48-1.11Z"/><path class="cls-34" d="M1669.76,3033.5l244.66-3.1a39.86,39.86,0,0,1,10.9,11.57,61.28,61.28,0,0,1,6.27,13.13c-2.08-1.56-18.26-14.4-18.26-14.4l-216.87-1.27S1683.72,3042.08,1669.76,3033.5Z"/><path class="cls-21" d="M1903.43,3032.76h8.23a1.93,1.93,0,0,1,1.91,1.66l.76,5.24Z"/><path class="cls-21" d="M1902.4,3039.15l-2.87-.16a.71.71,0,0,1-.63-.69l-.14-2.09Z"/><path class="cls-35" d="M1947.79,3070.36a178.72,178.72,0,0,0,47.59,35c25.74,13,48.74,15.36,94.73,20.17,18.76,2,46.47,1.24,101.9-.19,7.24-.18,21.56-.71,36.51-8.9a69,69,0,0,0,8.9-5.81,33.16,33.16,0,0,1-14.34,15.29,30.78,30.78,0,0,1-8.58,3c-20.57.1-37.32.23-48.83.3-24.88.14-50.72.26-54.49.21-16-.23-18-.41-31.46-.4-17.9,0-17.43.44-39.56.62-32.4.27-32.94-.65-44-.09a151.88,151.88,0,0,1-15.71-.18c-7-.42-9.38-1-10.26-1.27-1.07-.29-8.48-2.38-13.81-7.72-6.92-6.93-7.52-17.07-8.45-37.06C1947.73,3077.93,1947.74,3073.44,1947.79,3070.36Z"/><path class="cls-36" d="M1970.5,3115.88a24.15,24.15,0,0,1,5.71-2.84l41.22,11.18s11.87,2.71,12.9,3.47c-11.42-.27-31.07-.85-42.48-1.12Z"/><path class="cls-37" d="M1969.94,3033.32l244.67-3.1a39.72,39.72,0,0,1,10.9,11.57,61.28,61.28,0,0,1,6.27,13.13c-2.08-1.56-18.26-14.4-18.26-14.4l-216.88-1.27S1983.91,3041.9,1969.94,3033.32Z"/><path class="cls-21" d="M2203.62,3032.58h8.23a1.93,1.93,0,0,1,1.91,1.65l.76,5.25Z"/><path class="cls-21" d="M2202.58,3039l-2.86-.16a.72.72,0,0,1-.63-.7l-.15-2.08Z"/><path class="cls-38" d="M2246.54,3070.81a179.1,179.1,0,0,0,47.59,35.06c25.74,13,48.74,15.35,94.73,20.16,18.76,2,46.47,1.25,101.9-.18,7.24-.19,21.56-.72,36.51-8.9a69.4,69.4,0,0,0,8.9-5.81,33.21,33.21,0,0,1-14.33,15.28,30.67,30.67,0,0,1-8.59,3c-20.56.09-37.32.23-48.83.29-24.88.14-50.71.27-54.49.21-16-.23-18-.41-31.46-.4-17.9,0-17.43.44-39.56.63-32.4.27-32.94-.65-44-.09a153.72,153.72,0,0,1-15.71-.19c-7-.42-9.38-1-10.26-1.27-1.07-.29-8.48-2.38-13.81-7.72-6.92-6.93-7.52-17.06-8.44-37C2246.48,3078.39,2246.49,3073.89,2246.54,3070.81Z"/><path class="cls-39" d="M2267.62,3114.15a24.39,24.39,0,0,1,5.7-2.83l41.22,11.18s11.87,2.7,12.9,3.46c-11.41-.26-31.06-.85-42.48-1.11Z"/><path class="cls-40" d="M2268.7,3033.77l244.66-3.1a39.86,39.86,0,0,1,10.9,11.57,61.28,61.28,0,0,1,6.27,13.13c-2.08-1.56-18.26-14.4-18.26-14.4l-216.87-1.27S2282.66,3042.35,2268.7,3033.77Z"/><path class="cls-21" d="M2502.37,3033h8.23a1.93,1.93,0,0,1,1.91,1.66l.76,5.24Z"/><path class="cls-21" d="M2501.34,3039.42l-2.87-.16a.71.71,0,0,1-.63-.69l-.15-2.09Z"/><rect class="cls-41" x="56.66" y="3147.73" width="82.46" height="117.88" rx="2.16"/><rect class="cls-42" x="2552.03" y="3145.92" width="82.46" height="117.88" rx="2.16"/><rect class="cls-43" x="143.12" y="3168.08" width="2404.18" height="15.98"/><rect class="cls-44" y="688" width="1757" height="23"/><path class="cls-45" d="M1791.64,794h-18c-2.93,0-5.4-1.84-5.76-4.28L1752.5,686h58l-13.08,103.63C1797.11,792.11,1794.62,794,1791.64,794Z"/><polygon class="cls-46" points="1801.35 737 1761.5 737 1755.85 688.15 1807 688.15 1801.35 737"/><rect class="cls-44" x="961" y="1368" width="1092" height="23"/><path class="cls-45" d="M2087.64,1474h-18c-2.93,0-5.4-1.84-5.76-4.28L2048.5,1366h58l-13.08,103.63C2093.11,1472.11,2090.62,1474,2087.64,1474Z"/><polygon class="cls-47" points="2097.35 1417 2057.5 1417 2051.85 1368.15 2103 1368.15 2097.35 1417"/><path class="cls-45" d="M948.64,1474h-18c-2.93,0-5.4-1.84-5.76-4.28L909.5,1366h58l-13.08,103.63C954.11,1472.11,951.62,1474,948.64,1474Z"/><polygon class="cls-48" points="958.35 1417 918.5 1417 912.85 1368.15 964 1368.15 958.35 1417"/><rect class="cls-44" x="2501" y="1267" width="1345" height="23"/><path class="cls-45" d="M2488.64,1373h-18c-2.93,0-5.4-1.84-5.76-4.28L2449.5,1265h58l-13.08,103.63C2494.11,1371.11,2491.62,1373,2488.64,1373Z"/><polygon class="cls-49" points="2498.35 1316 2458.5 1316 2452.85 1267.15 2504 1267.15 2498.35 1316"/><polygon class="cls-50" points="3574.28 566.9 3708.47 675.38 3696.36 675.38 3571.3 574.85 3574.28 566.9"/><polygon class="cls-51" points="3572.99 556.97 3720.36 675.55 3708.47 675.38 3580.54 571.97 3572.99 556.97"/><path class="cls-52" d="M3502.7,586.41c1-.3,30-29.49,30-29.49l10,2.68-10.53,36.2Z"/><path class="cls-52" d="M3550.77,572.51c2.9-5.34,8.41-16,11.15-21.34a4,4,0,0,1,5-1.91l.62.24a4,4,0,0,1,2.57,4.13l-2.6,27.21a4,4,0,0,1-6.19,3l-9.22-6A4,4,0,0,1,3550.77,572.51Z"/><path class="cls-53" d="M3345.72,755.9c40.39,16.94,84.32,33.63,131.66,49.3,54.58,18.06,106.43,32.33,154.69,43.68L3500.61,747.21Z"/><circle class="cls-54" cx="3497.93" cy="759.92" r="48.55"/><rect class="cls-50" x="3708.32" y="675.33" width="12.11" height="511.94"/><polygon class="cls-51" points="3697.9 1181.31 3708.47 1187.31 3708.47 675.38 3696.36 675.38 3697.9 1181.31"/><path class="cls-55" d="M3569.59,551.18l8.25,10.75a15.31,15.31,0,0,1,3.08,7.62l2.7,23.56-17.18-12.8Z"/><rect class="cls-51" x="3466.45" y="1180.91" width="254.18" height="15.09"/><rect class="cls-56" x="3543.76" y="1180.91" width="257.3" height="15.09"/><circle class="cls-57" cx="3497.93" cy="759.92" r="48.55"/><path class="cls-58" d="M3496.44,762.7s140,88.57,138,87-29-212.08-29-212.08l-74.86-42.7"/><path class="cls-59" d="M3502.48,586.54,3344.31,750.4a3.73,3.73,0,0,0,2.51,6.32l148.23,6.63a3.73,3.73,0,0,0,3.82-3l33.27-161.76a3.73,3.73,0,0,0-2.35-4.24l-23.31-8.75A3.75,3.75,0,0,0,3502.48,586.54Z"/><polygon class="cls-55" points="3542.76 559.6 3600.84 597.96 3605.46 638.14 3532.23 595.79 3542.76 559.6"/><rect class="cls-45" x="866.33" y="1297.83" width="1281" height="70"/><rect class="cls-45" x="-0.5" y="617.66" width="1901.83" height="70"/><rect class="cls-60" x="5" y="621.5" width="1894.5" height="8.5"/><rect class="cls-61" y="675" width="1901" height="12"/><rect class="cls-45" x="2416.65" y="1196.83" width="1431.46" height="70"/><polygon class="cls-62" points="2499.14 551.43 2531.75 551.98 2503.41 373.21 2499.14 551.43"/><polygon class="cls-63" points="2504.65 369.67 2536.31 550.42 2531.84 552.8 2506.41 391.36 2504.65 369.67"/><polygon class="cls-64" points="2462.23 517.42 2266.76 511.22 2281.1 240.12 2476.69 232.76 2462.23 517.42"/><polygon class="cls-65" points="2482.76 544.8 2461.99 518.44 2476.78 226.4 2496.55 208.16 2482.76 544.8"/><path class="cls-66" d="M2484.55,543.58,2462.84,518l14.54-291.16c-2.12,8.63-2.74,184.64-2.74,184.64s7.84,4.09,13.61,3.8C2486.43,458.2,2486.37,500.71,2484.55,543.58Z"/><polygon class="cls-67" points="2476.03 235.85 2275.78 242.79 2254.33 214.74 2496.26 208.63 2476.03 235.85"/><polygon class="cls-68" points="2265.95 521.93 2236.13 542.63 2253.6 214.62 2280.89 242.07 2265.95 521.93"/><polygon class="cls-69" points="2462.53 513.81 2266.76 511.22 2235.53 543.1 2484.2 543.87 2462.53 513.81"/><polygon class="cls-70" points="2236.13 542.63 2267.47 512.89 2289.16 514.79 2295.83 539.33 2434.91 540.86 2438.88 542.25 2236.13 542.63"/><polygon class="cls-71" points="2280.89 242.07 2286.71 247.85 2275.9 511.16 2266.76 511.22 2280.89 242.07"/><polygon class="cls-72" points="2280.89 242.07 2285.8 269.28 2286.71 247.85 2280.89 242.07"/><polygon class="cls-73" points="2286.71 247.85 2475.85 240.77 2476.03 235.85 2280.89 242.07 2286.71 247.85"/><polygon class="cls-74" points="2345.38 245.59 2295.76 274.05 2283.25 328.17 2286.71 247.85 2345.38 245.59"/><polygon class="cls-75" points="2473.81 241.6 2462.17 509.38 2475.85 240.77 2473.81 241.6"/><polygon class="cls-76" points="2321.06 240.57 2292.85 214.6 2254.33 214.74 2280.89 242.07 2321.06 240.57"/><polygon class="cls-77" points="2266.69 228.09 2248.68 530.78 2236.13 542.63 2253.6 214.62 2266.69 228.09"/><polygon class="cls-78" points="2248.63 203.98 2506.48 195.87 2496.26 208.63 2253.6 214.62 2248.63 203.98"/><polygon class="cls-78" points="2248.63 203.98 2228.56 552.59 2236.13 542.63 2253.6 214.62 2248.63 203.98"/><polygon class="cls-78" points="2228.56 552.59 2492.23 553.31 2484.2 543.87 2236.13 542.63 2228.56 552.59"/><polygon class="cls-78" points="2506.48 195.87 2492.23 553.31 2484.2 543.87 2496.26 208.63 2506.48 195.87"/><polygon class="cls-79" points="2506.48 195.87 2516.55 214.88 2502.37 550.72 2492.23 553.31 2506.48 195.87"/><polyline class="cls-80" points="2496.26 208.63 2494.91 210.39 2261.6 222.9 2253.85 214.63 2496.55 208.16"/><polygon class="cls-81" points="2330.8 524.43 2304.51 523.64 2304.61 513.83 2330.9 514.62 2330.8 524.43"/><polygon class="cls-63" points="2443.7 215.6 2491.8 212.45 2483.5 221.71 2420.56 223.68 2443.7 215.6"/><polygon class="cls-82" points="2493.23 552 2229.57 551.28 2249.63 202.67 2506.37 195.47 2517.56 213.57 2503.37 549.41 2493.23 552"/><rect class="cls-44" x="2234" y="623" width="716" height="23"/><path class="cls-45" d="M2984.64,729h-18c-2.93,0-5.4-1.84-5.76-4.28L2945.5,621h58l-13.08,103.63C2990.11,727.11,2987.62,729,2984.64,729Z"/><polygon class="cls-83" points="2994.35 672 2954.5 672 2948.85 623.15 3000 623.15 2994.35 672"/><path class="cls-45" d="M2220.64,726h-18c-2.93,0-5.4-1.84-5.76-4.28L2181.5,618h58l-13.08,103.63C2226.11,724.11,2223.62,726,2220.64,726Z"/><polygon class="cls-84" points="2230.35 669 2190.5 669 2184.85 620.15 2236 620.15 2230.35 669"/><rect class="cls-85" x="2428.59" y="1199.12" width="1418.41" height="8.5"/><rect class="cls-86" x="2423.59" y="1252.62" width="1420.41" height="12"/><rect class="cls-87" x="872.59" y="1301.12" width="1272.41" height="8.5"/><rect class="cls-88" x="867.59" y="1354.62" width="1278.41" height="12"/><polygon class="cls-89" points="3580.5 629 3598.5 638.79 3627.5 839.5 3567.85 798.78 3580.5 629"/><polygon class="cls-90" points="3518 575 3533 560 3536 561 3518 575"/><polygon class="cls-90" points="3521 575 3515 580 3517 580 3521 575"/><polygon class="cls-64" points="693.97 566.08 370.16 556.74 373.29 163.13 696.74 156 693.97 566.08"/><polygon class="cls-91" points="729.66 605.47 693.65 567.54 696.42 146.81 727.55 120.87 729.66 605.47"/><path class="cls-92" d="M732.49,603.71,695,567l2.42-419.45c-2.86,12.42,9.1,266.2,9.1,266.2s13.15,5.94,22.59,5.57C729.31,481,732.32,542.1,732.49,603.71Z"/><polygon class="cls-93" points="695.89 160.45 364.6 166.93 326.58 125.68 727.1 121.53 695.89 160.45"/><polygon class="cls-94" points="369.63 572.27 321.46 602.27 325.35 125.49 373.09 165.97 369.63 572.27"/><polygon class="cls-95" points="694.2 560.89 370.16 556.74 320.48 602.96 731.94 604.13 694.2 560.89"/><polygon class="cls-96" points="321.46 602.27 371.46 559.17 407.74 561.98 420.72 597.51 650.82 599.79 657.45 601.79 321.46 602.27"/><polygon class="cls-71" points="373.09 165.97 383.23 174.49 385.38 556.68 370.16 556.74 373.09 165.97"/><polygon class="cls-72" points="373.09 165.97 383.36 205.63 383.23 174.49 373.09 165.97"/><polygon class="cls-73" points="383.23 174.49 695.95 167.55 695.89 160.45 373.09 165.97 383.23 174.49"/><polygon class="cls-74" points="480.74 172.23 400.34 212.73 383.62 291.19 383.23 174.49 480.74 172.23"/><polygon class="cls-97" points="692.65 168.71 693.29 554.52 695.95 167.55 692.65 168.71"/><polygon class="cls-76" points="439.93 164.5 390.94 126.23 326.58 125.68 373.09 165.97 439.93 164.5"/><polygon class="cls-77" points="348.29 145.36 341.49 585.09 321.46 602.27 325.35 125.49 348.29 145.36"/><polygon class="cls-78" points="316.2 109.88 742.94 103.33 727.1 121.53 325.35 125.49 316.2 109.88"/><polygon class="cls-78" points="316.2 109.88 309.57 616.72 321.46 602.27 325.35 125.49 316.2 109.88"/><polygon class="cls-78" points="309.57 616.72 745.78 617.68 731.94 604.13 321.46 602.27 309.57 616.72"/><polygon class="cls-78" points="742.94 103.33 745.78 617.68 731.94 604.13 727.1 121.53 742.94 103.33"/><polyline class="cls-80" points="727.1 121.53 725.02 124.05 339.37 137.7 325.77 125.5 727.55 120.87"/><polygon class="cls-98" points="730.17 616.81 308.54 615.92 315.03 106.34 725.83 100.97 744.83 127.43 746.02 613.07 730.17 616.81"/><rect class="cls-99" x="529.25" y="281.18" width="34.18" height="4.77" transform="translate(12.79 590.51) rotate(-57.34)"/><rect class="cls-99" x="564.54" y="290.92" width="43.19" height="4.78" transform="translate(-5.93 574.46) rotate(-51.98)"/><rect class="cls-99" x="582.67" y="312.34" width="37.22" height="4.78" transform="translate(-66.33 436.73) rotate(-37.99)"/><rect class="cls-99" x="598.63" y="348.81" width="38.3" height="4.78" transform="translate(-19.86 37.51) rotate(-3.42)"/><rect class="cls-99" x="609.92" y="374.29" width="4.78" height="33.46" transform="translate(-8.98 767.6) rotate(-63.78)"/><rect class="cls-99" x="580.64" y="411.33" width="4.77" height="45.3" transform="translate(-135.75 326.19) rotate(-28.13)"/><rect class="cls-99" x="538.95" y="429.3" width="4.78" height="15.07" transform="translate(-20.81 27.12) rotate(-2.82)"/><rect class="cls-99" x="470.78" y="429.73" width="39.52" height="4.78" transform="translate(-163.03 417.94) rotate(-40.13)"/><rect class="cls-99" x="445.16" y="405.82" width="39.75" height="4.78" transform="translate(-142.83 292.5) rotate(-30.5)"/><rect class="cls-99" x="452.37" y="377.76" width="21.93" height="4.78" transform="translate(-61.13 90.09) rotate(-10.42)"/><rect class="cls-99" x="415.58" y="351.23" width="54.7" height="4.78" transform="translate(-58.75 89.9) rotate(-10.87)"/><rect class="cls-99" x="462.05" y="302.13" width="4.78" height="34.45" transform="translate(-47.58 555.01) rotate(-59.23)"/><rect class="cls-99" x="490.67" y="259.59" width="4.78" height="51.5" transform="translate(-76.41 270.03) rotate(-28.52)"/><circle class="cls-100" cx="535.79" cy="363.21" r="68.92"/><path class="cls-99" d="M534.16,419c-16-.07-31.95-6.72-42.37-17.8-19.17-20.4-18.87-55,.66-75.56,22-23.13,58.39-18.72,79.49-1.36,23.72,19.5,29,55.32,12.36,83.33l-4.11-2.44c15.48-26,10.63-59.18-11.28-77.2-19.46-16-52.9-20.18-73,1-17.85,18.77-18.14,50.37-.65,69,10.27,10.93,26.47,17.14,42.27,16.22,11.36-.67,20.49-4.93,25.72-12,6.06-8.18,7.9-21.63,4.59-33.47-2.62-9.36-8-16.13-15.2-19.06-8.72-3.57-20.83-2.42-30.14,2.83-6.38,3.61-10.36,8.59-11.21,14s1.24,11.68,5.52,17c4.57,5.71,10.82,9.21,17.14,9.63,8.85.59,17.36-4.72,21.59-9.88,2.3-2.8,3.38-5.58,2.89-7.42-1-3.6-9.4-7.28-23.57-7.2v-4.78c12-.09,26,2.77,28.19,10.74.92,3.43-.43,7.58-3.8,11.69-5.15,6.28-15.15,12.33-25.6,11.62-7.66-.5-15.15-4.66-20.56-11.41-5.1-6.37-7.54-14.12-6.51-20.74,1.07-6.9,5.9-13.09,13.58-17.43,10.52-5.95,24.31-7.19,34.3-3.11,8.57,3.51,15,11.39,18,22.21,3.69,13.18,1.54,28.28-5.35,37.59-6.09,8.23-16.49,13.17-29.28,13.93Q536,419.05,534.16,419Z"/><rect class="cls-99" x="509.99" y="266.64" width="31.76" height="4.77" transform="translate(228.04 779.14) rotate(-86.81)"/><rect class="cls-99" x="562.44" y="265.47" width="34.23" height="4.78" transform="translate(98.15 687.24) rotate(-65.87)"/><rect class="cls-99" x="618.22" y="324.28" width="31.06" height="4.78" transform="translate(-60.46 164.1) rotate(-14.09)"/><rect class="cls-99" x="637.63" y="356.1" width="4.78" height="42.45" transform="translate(62.9 845.22) rotate(-69.55)"/><rect class="cls-99" x="618.07" y="406.86" width="4.78" height="44.84" transform="translate(-65.93 742.52) rotate(-59.21)"/><rect class="cls-99" x="556.32" y="442.18" width="4.78" height="36.63" transform="translate(-63.01 89.45) rotate(-8.67)"/><rect class="cls-99" x="491.11" y="459.09" width="34.75" height="4.78" transform="translate(-6.23 916) rotate(-83.67)"/><rect class="cls-99" x="406.91" y="405.04" width="43.06" height="4.78" transform="translate(-118.16 182.07) rotate(-21.15)"/><rect class="cls-99" x="433.35" y="313.6" width="4.78" height="25.47" transform="translate(-3.6 647.82) rotate(-73.03)"/><polygon class="cls-98" points="547.39 141.7 705.58 135.11 679.53 157.34 472.04 160.82 547.39 141.7"/><polygon class="cls-101" points="2248.63 204.04 2506.48 195.87 2516.56 214.94 2508.96 394.67 2537.5 550.5 2531.5 551.5 2502.5 551.5 2502.01 552.25 2228.57 552.65 2248.63 204.04"/><rect class="cls-45" x="2126.5" y="552.5" width="922" height="70"/><rect class="cls-102" x="2127" y="609" width="921" height="12"/><rect class="cls-103" x="2129" y="555.92" width="914" height="8.5"/><polygon class="cls-62" points="311.91 1846.9 260.92 1847.49 302.58 1628.56 311.91 1846.9"/><polygon class="cls-63" points="300.61 1623.97 253.94 1844.21 260.96 1847.13 298.2 1650.42 300.61 1623.97"/><polygon class="cls-64" points="368.75 1806.88 674.38 1799.67 648.65 1464.21 342.68 1454.64 368.75 1806.88"/><polygon class="cls-104" points="336.97 1840.72 369.14 1808.14 342.45 1446.77 311.32 1424.17 336.97 1840.72"/><path class="cls-105" d="M334.16,1839.21l33.64-31.55-26.28-360.29c3.43,10.69,6.53,228.46,6.53,228.46s-12.2,5-21.23,4.67C330.19,1733.55,330.8,1786.15,334.16,1839.21Z"/><polygon class="cls-106" points="343.75 1458.47 657.01 1467.54 690.21 1432.88 311.79 1424.74 343.75 1458.47"/><polygon class="cls-107" points="675.78 1812.92 722.65 1838.61 691.35 1432.73 649 1466.63 675.78 1812.92"/><polygon class="cls-108" points="368.24 1802.42 674.38 1799.67 723.61 1839.2 334.72 1839.56 368.24 1802.42"/><polygon class="cls-62" points="722.65 1838.61 673.29 1801.74 639.39 1804.05 629.25 1834.38 411.77 1835.96 405.57 1837.67 722.65 1838.61"/><polygon class="cls-71" points="649 1466.63 639.98 1473.77 660.09 1799.58 674.38 1799.67 649 1466.63"/><polygon class="cls-72" points="649 1466.63 641.66 1500.28 639.98 1473.77 649 1466.63"/><polygon class="cls-73" points="639.98 1473.77 344.09 1464.56 343.75 1458.47 649 1466.63 639.98 1473.77"/><polygon class="cls-74" points="548.19 1470.83 626.13 1506.16 646.36 1573.15 639.98 1473.77 548.19 1470.83"/><polygon class="cls-109" points="347.29 1465.59 368.74 1796.94 344.09 1464.56 347.29 1465.59"/><polygon class="cls-76" points="586.16 1464.67 629.97 1432.61 690.21 1432.88 649 1466.63 586.16 1464.67"/><polygon class="cls-77" points="671.04 1449.36 702.89 1823.92 722.65 1838.61 691.35 1432.73 671.04 1449.36"/><polygon class="cls-78" points="699 1419.58 295.64 1408.93 311.79 1424.74 691.35 1432.73 699 1419.58"/><polygon class="cls-78" points="699 1419.58 734.61 1850.95 722.65 1838.61 691.35 1432.73 699 1419.58"/><polygon class="cls-78" points="734.61 1850.95 322.27 1851.22 334.72 1839.56 722.65 1838.61 734.61 1850.95"/><polygon class="cls-78" points="295.64 1408.93 322.27 1851.22 334.72 1839.56 311.79 1424.74 295.64 1408.93"/><polygon class="cls-110" points="295.64 1408.93 280.11 1432.42 306.39 1848 322.27 1851.22 295.64 1408.93"/><polyline class="cls-80" points="311.79 1424.74 313.91 1426.92 678.94 1442.95 690.95 1432.73 311.32 1424.17"/><rect class="cls-81" x="574.24" y="1803.27" width="41.11" height="12.14" transform="translate(1229.52 3605.06) rotate(178.73)"/><polygon class="cls-63" points="394.07 1433.49 318.79 1429.48 331.9 1440.96 430.34 1443.55 394.07 1433.49"/><polygon class="cls-111" points="322.27 1851.22 734.61 1850.95 699 1419.58 297.39 1410.07 280.11 1432.42 293.99 1655.34 254 1844 261 1847 306 1847 306.39 1848 322.27 1851.22"/><polygon class="cls-112" points="734.61 1850.95 699 1419.58 295.64 1408.93 280.11 1432.42 293.99 1655.34 254 1844 260.96 1847.13 306 1846.4 306 1848 322.27 1851.22 734.61 1850.95"/><rect class="cls-45" x="-32.5" y="1845" width="3385" height="70"/><path class="cls-113" d="M488.24,1674s-26.45,31.62-14.4,45.86c7.62,9,25.17,9.62,32,1.48C516.54,1708.46,488.24,1674,488.24,1674Z"/><path class="cls-114" d="M405,1551s-15.39,17.18-8.56,25.28c4.32,5.13,14.42,5.77,18.39,1.37C421.17,1570.59,405,1551,405,1551Z"/><path class="cls-114" d="M552.41,1595.89s-25.5,30.48-13.65,44.6c7.5,8.94,24.62,9.81,31.15,2C580.28,1630,552.41,1595.89,552.41,1595.89Z"/><path class="cls-115" d="M461.06,1602.34s-21.65,25.06-11.88,36.65c6.19,7.33,20.51,8.06,26.07,1.62C484.07,1630.39,461.06,1602.34,461.06,1602.34Z"/><path class="cls-113" d="M601.84,1568.71s-12.79,15.44-6.75,22.67c3.82,4.58,12.49,5.12,15.79,1.17C616.12,1586.26,601.84,1568.71,601.84,1568.71Z"/><path class="cls-116" d="M547.23,1675.16s-9.77,12-5.24,17.34c2.87,3.42,9.44,3.69,12,.63C558,1688.26,547.23,1675.16,547.23,1675.16Z"/><path class="cls-115" d="M600.6,1676s-17.53,31.08-8.65,45.22c5.64,9,18,9.68,22.5,1.69C621.6,1710.26,600.6,1676,600.6,1676Z"/><path class="cls-115" d="M501.09,1536s-18.35,24-9.8,35.4c5.42,7.2,17.77,8.1,22.49,1.93C521.28,1563.52,501.09,1536,501.09,1536Z"/><path class="cls-114" d="M408.43,1653.58s-14.66,16.92-8.15,24.6c4.12,4.87,13.75,5.28,17.52,1C423.81,1672.23,408.43,1653.58,408.43,1653.58Z"/><polygon class="cls-117" points="3737.57 2446.41 3778.91 2446.99 3741.61 2206.54 3737.57 2446.41"/><polygon class="cls-118" points="3743.12 2201.5 3784.52 2443.37 3778.88 2446.59 3745.5 2230.55 3743.12 2201.5"/><polygon class="cls-119" points="3690.56 2401.63 3442.72 2393.96 3458.67 2027 3706.55 2016.31 3690.56 2401.63"/><polygon class="cls-120" points="3716.82 2438.61 3690.26 2403.01 3706.62 2007.7 3731.52 1982.95 3716.82 2438.61"/><path class="cls-121" d="M3719.07,2437l-27.72-34.49,16-394.11c-2.63,11.69-2,249.9-2,249.9s10,5.5,17.27,5.09C3720.75,2321.39,3721,2378.92,3719.07,2437Z"/><polygon class="cls-122" points="3705.74 2020.5 3451.95 2030.65 3424.53 1992.76 3731.15 1983.58 3705.74 2020.5"/><polygon class="cls-123" points="3441.78 2408.46 3404.16 2436.59 3423.6 1992.6 3458.43 2029.65 3441.78 2408.46"/><polygon class="cls-124" points="3690.91 2396.75 3442.72 2393.96 3403.4 2437.23 3718.63 2437.35 3690.91 2396.75"/><polygon class="cls-117" points="3404.16 2436.59 3443.63 2396.22 3471.15 2398.72 3479.81 2431.9 3656.12 2433.46 3661.17 2435.33 3404.16 2436.59"/><polygon class="cls-125" points="3458.43 2029.65 3465.84 2037.45 3454.3 2393.85 3442.72 2393.96 3458.43 2029.65"/><polygon class="cls-126" points="3458.43 2029.65 3464.86 2066.46 3465.84 2037.45 3458.43 2029.65"/><polygon class="cls-127" points="3465.84 2037.45 3705.55 2027.16 3705.74 2020.5 3458.43 2029.65 3465.84 2037.45"/><polygon class="cls-128" points="3540.2 2034.17 3477.53 2072.88 3462.12 2146.17 3465.84 2037.45 3540.2 2034.17"/><polygon class="cls-129" points="3702.97 2028.29 3690.43 2390.75 3705.55 2027.16 3702.97 2028.29"/><polygon class="cls-130" points="3509.33 2027.46 3473.36 1992.43 3424.53 1992.76 3458.43 2029.65 3509.33 2027.46"/><polygon class="cls-131" points="3440.31 2010.78 3419.96 2420.51 3404.16 2436.59 3423.6 1992.6 3440.31 2010.78"/><polygon class="cls-132" points="3417.21 1978.22 3744.01 1966.27 3731.15 1983.58 3423.6 1992.6 3417.21 1978.22"/><polygon class="cls-132" points="3417.21 1978.22 3394.65 2450.09 3404.16 2436.59 3423.6 1992.6 3417.21 1978.22"/><polygon class="cls-132" points="3394.65 2450.09 3728.89 2450.09 3718.63 2437.35 3404.16 2436.59 3394.65 2450.09"/><polygon class="cls-132" points="3744.01 1966.27 3728.89 2450.09 3718.63 2437.35 3731.15 1983.58 3744.01 1966.27"/><polygon class="cls-133" points="3744.01 1966.27 3756.94 1991.96 3741.72 2446.55 3728.89 2450.09 3744.01 1966.27"/><polyline class="cls-134" points="3731.15 1983.58 3729.46 1985.97 3433.81 2003.77 3423.92 1992.61 3731.52 1982.95"/><polygon class="cls-135" points="3524.01 2411.6 3490.68 2410.64 3490.72 2397.36 3524.05 2398.32 3524.01 2411.6"/><polygon class="cls-118" points="3664.58 1993.21 3725.54 1988.77 3715.09 2001.34 3635.33 2004.24 3664.58 1993.21"/><polygon class="cls-136" points="3729.91 2449 3395.67 2449 3418.23 1977.13 3743.63 1966.43 3757.96 1990.87 3742.74 2445.46 3729.91 2449"/><polygon class="cls-101" points="3417.23 1978.98 3744.01 1966.27 3756.96 1992.72 3748.87 2235.87 3784.52 2443.37 3778.88 2446.59 3741.5 2445.5 3728.89 2450.09 3394.65 2450.09 3417.23 1978.98"/><rect class="cls-45" x="461.34" y="2446.83" width="3379.16" height="70"/><path class="cls-137" d="M3536.34,2353.71c-28.46-44.93-24.71-100.85,8.9-133,30.79-29.42,74.29-24.74,82.69-23.51l-.49,3.35c-8.14-1.19-50.21-5.72-79.86,22.6-32.45,31-36,85.15-8.38,128.71Z"/><path class="cls-137" d="M3623.07,2198.91s14.75-17.46,30.26-16.86c14.23.54,27.67,17.29,27.67,17.29s-21.62,10.62-36.74,8.64C3640.73,2207.52,3623.07,2198.91,3623.07,2198.91Z"/><path class="cls-137" d="M3581,2202s15-.89,25.89,6.08c10,6.39,15.41,19.19,15.41,19.19s-18.13-4.94-28.45-12.31C3591.4,2213.19,3581,2202,3581,2202Z"/><path class="cls-137" d="M3551.42,2218.5s7.35,14.75,19.53,19.24c11.16,4.12,25.5-1.43,25.5-1.43s-14.28-12.92-26.48-16.49C3567.13,2219,3551.42,2218.5,3551.42,2218.5Z"/><path class="cls-137" d="M3536.88,2232.37s-2.11,18.77,7.07,27.94c8.42,8.41,26.12,7.3,26.12,7.3s-5.91-19.16-15.69-27.33C3552.1,2238.38,3536.88,2232.37,3536.88,2232.37Z"/><path class="cls-137" d="M3520.08,2272.08s16.7-3.4,27.46,3.86c9.86,6.64,13.35,22.19,13.35,22.19s-19.1-3.57-29.09-11.44C3529.47,2284.86,3520.08,2272.08,3520.08,2272.08Z"/><path class="cls-137" d="M3521.87,2320.51s11.38-12.68,24.34-13.28c11.88-.55,23.95,9.85,23.95,9.85s-17.46,8.53-30.17,8.17C3537,2325.17,3521.87,2320.51,3521.87,2320.51Z"/><path class="cls-137" d="M3542.71,2172.44s10.85,10.32,13.22,23.07c2.18,11.69-3.5,24.36-3.5,24.36s-8.77-16.62-10.42-29.2C3541.63,2187.75,3542.71,2172.44,3542.71,2172.44Z"/><path class="cls-137" d="M3481.43,2301.63s7.35,14.75,19.52,19.24c11.16,4.11,25.5-1.44,25.5-1.44s-14.28-12.92-26.47-16.48C3497.14,2302.12,3481.43,2301.63,3481.43,2301.63Z"/><path class="cls-137" d="M3488.06,2238.11s-2.11,18.77,7.08,27.94c8.41,8.41,26.12,7.31,26.12,7.31s-5.91-19.17-15.7-27.33C3503.28,2244.12,3488.06,2238.11,3488.06,2238.11Z"/><path class="cls-137" d="M3595.81,2155.14s8.24,14.92,4.54,27.36c-3.38,11.4-17.17,19.38-17.17,19.38s-2.32-19.29,2.19-31.18C3586.42,2167.93,3595.81,2155.14,3595.81,2155.14Z"/><path class="cls-137" d="M3497.18,2209s3,18.68,14.36,25c10.38,5.81,27.16-.1,27.16-.1s-10.87-16.88-22.51-22.08C3513.48,2210.63,3497.18,2209,3497.18,2209Z"/><path class="cls-138" d="M3593.75,2373.25c26.45-12.61,44.76-39.48,43.54-63.87-1.12-22.34-19-32.59-22.56-34.41l-1,1.68c3.45,1.77,20.74,11.67,21.82,33.19,1.18,23.55-16.58,49.53-42.23,61.76Z"/><path class="cls-138" d="M3616,2277.13s.65-12.26-5.35-16.4c-5.5-3.81-16.41.09-16.41.09s4.32,11.06,10.66,14.46C3606.32,2276.07,3616,2277.13,3616,2277.13Z"/><path class="cls-138" d="M3630.59,2290.53s-5.27-4.66-11.8-4.57c-6,.09-12.52,4.46-12.52,4.46s8.51,2.89,15,2.43C3622.73,2292.74,3630.59,2290.53,3630.59,2290.53Z"/><path class="cls-138" d="M3635.77,2306.58s-7.94,4.71-14.06,3.32c-5.62-1.29-9-7.93-9-7.93s9.88-1.89,15.68-.06C3629.74,2302.33,3635.77,2306.58,3635.77,2306.58Z"/><path class="cls-138" d="M3636.31,2317.13s-5.83,9.25-12.49,10.87c-6.1,1.48-12.31-4.08-12.31-4.08s8.95-7.15,15.48-8.13C3628.51,2315.56,3636.31,2317.13,3636.31,2317.13Z"/><path class="cls-138" d="M3628.58,2340.23s-5-6.32-11.6-6.05c-6,.26-12.8,6.44-12.8,6.44s8.38,3.79,14.88,3C3620.57,2343.45,3628.58,2340.23,3628.58,2340.23Z"/><path class="cls-138" d="M3610.85,2362.06s.22-9.09-4.4-13.06c-4.24-3.64-12.41-2.28-12.41-2.28s3.51,8.91,8.38,12.36C3603.55,2359.89,3610.85,2362.06,3610.85,2362.06Z"/><path class="cls-138" d="M3655.25,2287.82s-7.68,1.66-13.06,6.87c-4.93,4.78-7.28,12.24-7.28,12.24s9.13-5.17,14.18-10.5C3650.26,2295.19,3655.25,2287.82,3655.25,2287.82Z"/><path class="cls-138" d="M3632.59,2364.87s-7.94,4.71-14.06,3.32c-5.62-1.28-9-7.93-9-7.93s9.88-1.89,15.68-.06C3626.56,2360.62,3632.59,2364.87,3632.59,2364.87Z"/><path class="cls-138" d="M3652.5,2333.69s-5.83,9.25-12.49,10.87c-6.1,1.48-12.32-4.08-12.32-4.08s9-7.15,15.49-8.13C3644.7,2332.12,3652.5,2333.69,3652.5,2333.69Z"/><path class="cls-138" d="M3641.54,2264.71s-8.33,4.53-11.34,11.32c-2.75,6.23-.42,13.84-.42,13.84s7.66-8.24,10.17-15C3640.53,2273.28,3641.54,2264.71,3641.54,2264.71Z"/><path class="cls-138" d="M3659.35,2317.66s-7.71,7.75-14.17,7.45c-5.92-.28-10.09-7.79-10.09-7.79s10-4.69,16.17-3.77C3652.7,2313.77,3659.35,2317.66,3659.35,2317.66Z"/><polygon class="cls-64" points="1115.59 1814.27 810.22 1808.91 812.04 1580.59 1117.01 1576.4 1115.59 1814.27"/><polygon class="cls-139" points="1149.35 1837.12 1115.29 1815.12 1116.69 1571.07 1145.96 1556.02 1149.35 1837.12"/><path class="cls-140" d="M1152,1836.1l-35.43-21.3,1.07-243.31c-2.66,7.2,9.35,154.41,9.35,154.41s12.42,3.44,21.32,3.23C1148.67,1764.9,1151.68,1800.36,1152,1836.1Z"/><polygon class="cls-141" points="1116.22 1578.98 803.86 1582.8 767.88 1558.87 1145.54 1556.4 1116.22 1578.98"/><polygon class="cls-142" points="809.77 1817.92 764.43 1835.33 766.73 1558.76 811.86 1582.23 809.77 1817.92"/><polygon class="cls-143" points="1115.79 1811.27 810.22 1808.91 763.52 1835.72 1151.5 1836.34 1115.79 1811.27"/><polygon class="cls-62" points="764.43 1835.33 811.46 1810.32 845.68 1811.94 858.02 1832.55 1074.99 1833.83 1081.26 1834.99 764.43 1835.33"/><polygon class="cls-71" points="811.86 1582.23 821.45 1587.17 824.58 1808.87 810.22 1808.91 811.86 1582.23"/><polygon class="cls-72" points="811.86 1582.23 821.66 1605.24 821.45 1587.17 811.86 1582.23"/><polygon class="cls-73" points="821.45 1587.17 1116.31 1583.1 1116.22 1578.98 811.86 1582.23 821.45 1587.17"/><polygon class="cls-74" points="913.38 1585.85 837.69 1609.36 822.15 1654.87 821.45 1587.17 913.38 1585.85"/><polygon class="cls-144" points="1113.2 1583.78 1114.91 1807.57 1116.31 1583.1 1113.2 1583.78"/><polygon class="cls-76" points="874.88 1581.37 828.57 1559.18 767.88 1558.87 811.86 1582.23 874.88 1581.37"/><polygon class="cls-77" points="788.41 1570.29 783.27 1825.36 764.43 1835.33 766.73 1558.76 788.41 1570.29"/><polygon class="cls-78" points="758.05 1549.71 1160.43 1545.84 1145.54 1556.4 766.73 1558.76 758.05 1549.71"/><polygon class="cls-78" points="758.05 1549.71 753.27 1843.71 764.43 1835.33 766.73 1558.76 758.05 1549.71"/><polygon class="cls-78" points="753.27 1843.71 1164.59 1844.2 1151.5 1836.34 764.43 1835.33 753.27 1843.71"/><polygon class="cls-78" points="1160.43 1545.84 1164.59 1844.2 1151.5 1836.34 1145.54 1556.4 1160.43 1545.84"/><polyline class="cls-80" points="1145.54 1556.4 1143.59 1557.86 779.98 1565.84 767.12 1558.77 1145.96 1556.02"/><polygon class="cls-81" points="911.65 1820.05 870.43 1819.38 869.84 1811.14 911.05 1811.82 911.65 1820.05"/><polygon class="cls-63" points="1064.54 1561.67 1138.94 1559.56 1126.75 1567.22 1029.15 1568.21 1064.54 1561.67"/><polygon class="cls-145" points="1148.39 1844.15 753.27 1843.71 757.9 1549.71 1142.84 1546.55 1160.73 1561.81 1163.24 1841.99 1148.39 1844.15"/><polygon class="cls-146" points="757.9 1549.71 1160.43 1545.84 1164.59 1844.2 753.27 1843.71 757.9 1549.71"/><path class="cls-147" d="M850.26,1762.81c-3.88-67.28,35.66-129.15,90-140.85,29-6.24,63,3,90.81,24.77,34.43,26.88,55,68.34,56.53,113.76l-10,.33c-1.4-42.43-20.6-81.13-52.67-106.18-25.54-19.94-56.39-28.49-82.53-22.87-43.53,9.37-86.14,60.73-82.12,130.47Z"/><path class="cls-148" d="M864.05,1761.27c-3.42-59.33,31.49-113.89,79.48-124.22,25.62-5.51,55.6,2.65,80.19,21.85,30.34,23.7,48.51,60.24,49.83,100.27l-10,.33c-1.23-37-18-70.83-46-92.69-22.27-17.39-49.14-24.85-71.9-20-37.12,8-75,53.78-71.56,113.83Z"/><path class="cls-149" d="M876.93,1760.57c-3-52.5,27.53-100.79,69.49-110,22.18-4.84,48.17,2.2,69.53,18.83,26.9,21,43,53.48,44.16,89.23l-10,.33c-1.07-32.77-15.76-62.52-40.3-81.63-19-14.83-41.91-21.16-61.22-17-32,7-64.6,47-61.61,99.57Z"/><path class="cls-150" d="M890.66,1759.1c-2.52-45.14,23.26-86.69,58.69-94.59,18.72-4.17,39.85,1.5,58,15.55,23.19,18,37.06,46.19,38,77.37l-10,.32c-.9-28.18-13.35-53.6-34.17-69.75-15.52-12-34.06-17.15-49.63-13.69-26.38,5.88-53.33,39.76-50.85,84.23Z"/><path class="cls-151" d="M904.06,1760.39c-2.07-39.69,19.32-76.25,48.71-83.24,14.8-3.52,31.65.87,46.22,12,20.49,15.7,32.74,41.11,33.59,69.71l-10,.3c-.77-25.57-11.58-48.19-29.67-62-12.16-9.32-25.94-13.05-37.79-10.23-21.29,5.06-43,34.39-41,72.94Z"/><path class="cls-152" d="M917.14,1759c-1.6-32.21,15-61.92,37.87-67.64,11.12-2.79,23.84.41,34.88,8.78,16.42,12.45,26.62,34,27.29,57.6l-10,.29c-.59-20.62-9.3-39.26-23.32-49.89-8.61-6.52-18.22-9.09-26.38-7-15.74,3.94-31.8,27-30.29,57.4Z"/><path class="cls-153" d="M2340.85,347.11s-27.33-10.51-29.62-6.64c-3.58,6.06,35.32,43.53,35.32,43.53s28.68-44,23.92-49.43C2367.16,330.8,2340.85,347.11,2340.85,347.11Z"/><path class="cls-153" d="M2394.94,388.92s-13.77-12.86-16.05-11.42c-3.57,2.27,10.67,32.53,10.67,32.53s27.53-15.72,26-19.87C2414.48,387.28,2394.94,388.92,2394.94,388.92Z"/><path class="cls-154" d="M2413.47,308.71s-9.91-21.47-13.61-16.86c-5.8,7.23-5.3,68.18-5.3,68.18s43.67-51.76,44.12-60.36C2439,293.7,2413.47,308.71,2413.47,308.71Z"/><path class="cls-154" d="M2345.85,409.49s-18.63-2.79-19.69-.3c-1.66,3.89,27.23,20.74,27.23,20.74s13.76-28.57,10.14-31.11C2361,397.05,2345.85,409.49,2345.85,409.49Z"/><path class="cls-153" d="M2377,435.49s-8-.12-8.46.68c-.77,1.26,11.43,5.27,11.43,5.27s6.29-9.28,4.76-9.91C2383.63,431.09,2377,435.49,2377,435.49Z"/><path class="cls-153" d="M2353.06,457.39s-10.5.69-9.06,3c2.27,3.58,28.23,13.14,28.23,13.14s-15.9-26.49-19.49-28.05C2350.25,444.36,2353.06,457.39,2353.06,457.39Z"/><path class="cls-155" d="M2389,483.13s-2.63-8-3.94-7.7c-2.06.42-3.51,16.2-3.51,16.2s15.43-2.49,15.8-4.58C2397.64,485.59,2389,483.13,2389,483.13Z"/></g></g></svg>