<svg xmlns="http://www.w3.org/2000/svg" viewBox="0 0 37.94 37.94"><defs><style>.cls-1{fill:#dd743a;stroke:#301300;stroke-miterlimit:10;stroke-width:0.5px;}.cls-2{fill:#b74b1f;}.cls-3{fill:#faedda;}.cls-4{fill:#c68b82;}</style></defs><g id="Layer_2" data-name="Layer 2"><g id="Layer_1-2" data-name="Layer 1"><circle class="cls-1" cx="18.97" cy="18.97" r="18.72"/><path class="cls-2" d="M7.59,5.77a20.06,20.06,0,0,0,6.19,21.51c7.65,6.18,17,3.64,17.93,3.38a18.65,18.65,0,0,1-12.42,5.83c-.93,0-7.89.3-13.11-4.68a15.63,15.63,0,0,1-2.87-3.7A17.47,17.47,0,0,1,1.84,16,19.89,19.89,0,0,1,7.59,5.77Z"/><ellipse class="cls-3" cx="28.06" cy="8.54" rx="2.43" ry="2.87" transform="matrix(0.31, -0.95, 0.95, 0.31, 11.37, 32.65)"/><ellipse class="cls-3" cx="24.9" cy="10.49" rx="0.34" ry="0.64" transform="translate(-1.91 13.85) rotate(-30)"/><path class="cls-4" d="M34.68,10.49a16.26,16.26,0,0,1,2.21,10,16.4,16.4,0,0,1-5.18,10.14,26.33,26.33,0,0,0,1.66-5.46,27.75,27.75,0,0,0,.39-5.2c.12-3.44-2.83-6.19-2.83-6.19S34,10.71,34.68,10.49Z"/></g></g></svg>