<svg xmlns="http://www.w3.org/2000/svg" viewBox="0 0 160.439 160.439"><defs><style>.cls-1{fill:#fff35a;}.cls-2{fill:none;stroke:#663c19;stroke-miterlimit:10;stroke-width:0.1px;opacity:0.38;}</style></defs><g id="Layer_2" data-name="Layer 2"><g id="Layer_1-2" data-name="Layer 1"><path class="cls-1" d="M95.965,105.439,81.4,98.02a2.283,2.283,0,0,0-2.124.028l-14.371,7.8a2.281,2.281,0,0,1-3.341-2.361l2.554-16.149a2.281,2.281,0,0,0-.683-2.011L51.576,74.063a2.282,2.282,0,0,1,1.214-3.908l16.148-2.561a2.284,2.284,0,0,0,1.7-1.271l7.045-14.754a2.281,2.281,0,0,1,4.091-.053L89.2,66.082a2.284,2.284,0,0,0,1.734,1.226l16.209,2.14a2.281,2.281,0,0,1,1.315,3.875L96.9,84.886a2.281,2.281,0,0,0-.63,2.028l2.973,16.077A2.282,2.282,0,0,1,95.965,105.439Z"/><circle class="cls-2" cx="80.22" cy="80.22" r="80.17"/></g></g></svg>