<svg xmlns="http://www.w3.org/2000/svg" xmlns:xlink="http://www.w3.org/1999/xlink" viewBox="0 0 37.94 37.94"><defs><style>.cls-1{isolation:isolate;}.cls-2{fill:#dd743a;stroke:#602000;stroke-miterlimit:10;stroke-width:0.5px;}.cls-3{fill:url(#linear-gradient);}.cls-4{fill:#faedda;}.cls-5{mix-blend-mode:screen;opacity:0.72;fill:url(#linear-gradient-2);}</style><linearGradient id="linear-gradient" x1="6.31" y1="31.56" x2="20.6" y2="17.27" gradientUnits="userSpaceOnUse"><stop offset="0" stop-color="#b74b1f"/><stop offset="0.3" stop-color="#bb5022"/><stop offset="0.63" stop-color="#c85d2b"/><stop offset="0.98" stop-color="#dc733a"/><stop offset="0.99" stop-color="#dd743a"/></linearGradient><linearGradient id="linear-gradient-2" x1="32.96" y1="29.86" x2="32.96" y2="9.51" gradientUnits="userSpaceOnUse"><stop offset="0" stop-color="#dd743a"/><stop offset="0.01" stop-color="#dd743b" stop-opacity="0.99"/><stop offset="0.23" stop-color="#d57c54" stop-opacity="0.82"/><stop offset="0.44" stop-color="#ce8368" stop-opacity="0.68"/><stop offset="0.64" stop-color="#ca8776" stop-opacity="0.58"/><stop offset="0.83" stop-color="#c78a7f" stop-opacity="0.52"/><stop offset="0.99" stop-color="#c68b82" stop-opacity="0.5"/></linearGradient></defs><g class="cls-1"><g id="Layer_2" data-name="Layer 2"><g id="Layer_1-2" data-name="Layer 1"><circle class="cls-2" cx="18.97" cy="18.97" r="18.72"/><path class="cls-3" d="M7.84,4.5c-2.54,8.33.84,16.44,7.24,21.61A21.56,21.56,0,0,0,33,30.42,19.41,19.41,0,0,1,20,36.49c-1,0-8.21.31-13.64-4.87a16.62,16.62,0,0,1-3-3.85A18.27,18.27,0,0,1,1.86,15.14,20.78,20.78,0,0,1,7.84,4.5Z"/><ellipse class="cls-4" cx="28.06" cy="8.54" rx="2.43" ry="2.87" transform="matrix(0.31, -0.95, 0.95, 0.31, 11.37, 32.65)"/><ellipse class="cls-4" cx="24.9" cy="10.49" rx="0.34" ry="0.64" transform="translate(-1.91 13.85) rotate(-30)"/><path class="cls-5" d="M33.15,9.51a16.31,16.31,0,0,1,3.08,9.79A16.46,16.46,0,0,1,32,29.86a26.82,26.82,0,0,0,1.17-5.58,27.3,27.3,0,0,0-.08-5.21c-.17-3.44-3.36-5.92-3.36-5.92S32.5,9.79,33.15,9.51Z"/></g></g></g></svg>