<svg xmlns="http://www.w3.org/2000/svg" xmlns:xlink="http://www.w3.org/1999/xlink" viewBox="0 0 37.94 37.94"><defs><style>.cls-1{isolation:isolate;}.cls-2{fill:#ff802d;stroke:#872317;stroke-miterlimit:10;stroke-width:0.5px;}.cls-3{fill:url(#linear-gradient);}.cls-4{mix-blend-mode:screen;fill:url(#linear-gradient-2);}.cls-5{mix-blend-mode:luminosity;fill:url(#linear-gradient-3);}.cls-6{fill:#872317;}.cls-7{fill:#faedda;}</style><linearGradient id="linear-gradient" x1="6.31" y1="31.56" x2="20.6" y2="17.27" gradientUnits="userSpaceOnUse"><stop offset="0" stop-color="#d44a24"/><stop offset="0.26" stop-color="#d84f25"/><stop offset="0.54" stop-color="#e25c27"/><stop offset="0.84" stop-color="#f4722b"/><stop offset="0.99" stop-color="#ff802d"/></linearGradient><linearGradient id="linear-gradient-2" x1="27.14" y1="25.04" x2="37.91" y2="14.27" gradientUnits="userSpaceOnUse"><stop offset="0" stop-color="#d64a1f"/><stop offset="0.21" stop-color="#d84f21"/><stop offset="0.44" stop-color="#df5c28"/><stop offset="0.68" stop-color="#eb7333"/><stop offset="0.94" stop-color="#fa9242"/><stop offset="0.99" stop-color="#fe9946"/></linearGradient><linearGradient id="linear-gradient-3" x1="5.27" y1="25.34" x2="18.26" y2="38.33" gradientTransform="translate(-7.56 4.22) rotate(-14.75)" gradientUnits="userSpaceOnUse"><stop offset="0" stop-color="#d7755b"/><stop offset="0.21" stop-color="#d17c68" stop-opacity="0.83"/><stop offset="0.43" stop-color="#cc8373" stop-opacity="0.69"/><stop offset="0.64" stop-color="#c9877b" stop-opacity="0.58"/><stop offset="0.84" stop-color="#c78a80" stop-opacity="0.52"/><stop offset="1" stop-color="#c68b82" stop-opacity="0.5"/></linearGradient></defs><g class="cls-1"><g id="Layer_2" data-name="Layer 2"><g id="Layer_1-2" data-name="Layer 1"><circle class="cls-2" cx="18.97" cy="18.97" r="18.72"/><path class="cls-3" d="M7.84,4.5c-2.54,8.33.84,16.44,7.24,21.61A21.56,21.56,0,0,0,33,30.42,19.41,19.41,0,0,1,20,36.49c-1,0-8.21.31-13.64-4.87a16.62,16.62,0,0,1-3-3.85A18.27,18.27,0,0,1,1.86,15.14,20.78,20.78,0,0,1,7.84,4.5Z"/><path class="cls-4" d="M33.15,9.51a16.31,16.31,0,0,1,3.08,9.79A16.46,16.46,0,0,1,32,29.86a26.82,26.82,0,0,0,1.17-5.58,27.3,27.3,0,0,0-.08-5.21c-.17-3.44-3.36-5.92-3.36-5.92S32.5,9.79,33.15,9.51Z"/><path class="cls-5" d="M12.75,34.64a14.63,14.63,0,0,1-8.33-7.29A25.44,25.44,0,0,0,9.47,31a17,17,0,0,0,3.39,1.35,28.33,28.33,0,0,0,4.78.8l3.82,1.92a15.63,15.63,0,0,1-5,.37A16.93,16.93,0,0,1,12.75,34.64Z"/><path class="cls-6" d="M26.93,5.22a.72.72,0,0,1,1-.25,13.14,13.14,0,0,1,1.63,1.18A12.93,12.93,0,0,1,31,7.55a.71.71,0,0,1,0,.92l-2.07,2.58a.7.7,0,0,1-1.12,0c-.34-.48-.72-1-1.15-1.49s-.68-.79-1-1.15a.7.7,0,0,1-.1-.84Z"/><path class="cls-7" d="M26.64,4.85a1.12,1.12,0,0,1,1.22,0A12.59,12.59,0,0,1,29.54,6a12.07,12.07,0,0,1,1.3,1.24,1,1,0,0,1,0,1.25L28.72,11.2a.44.44,0,0,1-.71,0c-.4-.57-.84-1.16-1.34-1.76s-.86-1-1.27-1.42a.43.43,0,0,1-.13-.28,3.29,3.29,0,0,1,.42-1.84A3.2,3.2,0,0,1,26.64,4.85Z"/><path class="cls-7" d="M4.1,25.75a1.66,1.66,0,0,1-.31.21,1.25,1.25,0,0,1-.32.14l-.28-.57.35-.1.26-.1Z"/><path class="cls-7" d="M3.87,26.56l-.13-.14a.77.77,0,0,1-.1-.15l.29-.11a1.19,1.19,0,0,0,.08.16l.07.12Z"/><ellipse class="cls-7" cx="24.28" cy="6.97" rx="0.41" ry="0.56"/></g></g></g></svg>