<svg xmlns="http://www.w3.org/2000/svg" viewBox="0 0 37.69 37.69"><defs><style>.cls-1{fill:#fff35a;}.cls-2{fill:none;stroke:#0c00ff;stroke-miterlimit:10;stroke-width:0.25px;opacity:0.38;}</style></defs><g id="Layer_2" data-name="Layer 2"><g id="Layer_1-2" data-name="Layer 1"><path class="cls-1" d="M22.52,24.73,19.12,23a.52.52,0,0,0-.5,0l-3.35,1.82a.54.54,0,0,1-.78-.56l.59-3.77a.52.52,0,0,0-.16-.47l-2.76-2.62a.53.53,0,0,1,.28-.92l3.77-.6a.52.52,0,0,0,.4-.29l1.64-3.45a.54.54,0,0,1,1,0l1.73,3.4a.52.52,0,0,0,.4.29l3.79.5a.53.53,0,0,1,.31.9l-2.7,2.7a.53.53,0,0,0-.15.48l.69,3.75A.53.53,0,0,1,22.52,24.73Z"/><circle class="cls-2" cx="18.84" cy="18.84" r="18.72"/></g></g></svg>