<svg xmlns="http://www.w3.org/2000/svg" viewBox="0 0 160.839 160.839"><defs><style>.cls-1{fill:#ff802d;stroke:#872317;stroke-width:0.5px;}.cls-1,.cls-3{stroke-miterlimit:10;}.cls-2{fill:#fff35a;}.cls-3{fill:none;stroke:#663c19;stroke-width:0.1px;opacity:0.38;}</style></defs><g id="Layer_2" data-name="Layer 2"><g id="Layer_1-2" data-name="Layer 1"><circle class="cls-1" cx="80.42" cy="80.42" r="80.17"/><path class="cls-2" d="M96.165,105.639,81.6,98.22a2.283,2.283,0,0,0-2.124.028l-14.371,7.8a2.281,2.281,0,0,1-3.341-2.361l2.554-16.149a2.281,2.281,0,0,0-.683-2.011L51.776,74.263a2.282,2.282,0,0,1,1.214-3.908l16.148-2.561a2.284,2.284,0,0,0,1.7-1.271l7.045-14.754a2.281,2.281,0,0,1,4.091-.053L89.4,66.282a2.284,2.284,0,0,0,1.734,1.226l16.209,2.14a2.281,2.281,0,0,1,1.315,3.875L97.1,85.086a2.281,2.281,0,0,0-.63,2.028l2.973,16.077A2.282,2.282,0,0,1,96.165,105.639Z"/><circle class="cls-3" cx="80.42" cy="80.42" r="80.17"/></g></g></svg>