<svg xmlns="http://www.w3.org/2000/svg" viewBox="0 0 18.08 18.08"><defs><style>.cls-1{fill:#dd743a;stroke:#301300;stroke-miterlimit:10;stroke-width:0.5px;}.cls-2{fill:#b74b1f;}.cls-3{fill:#faedda;}.cls-4{fill:#c68b82;}</style></defs><g id="Layer_2" data-name="Layer 2"><g id="Layer_1-2" data-name="Layer 1"><circle class="cls-1" cx="9.04" cy="9.04" r="8.79"/><path class="cls-2" d="M3.7,2.84A9.44,9.44,0,0,0,6.6,13,9.79,9.79,0,0,0,15,14.54a8.8,8.8,0,0,1-5.84,2.73A8.66,8.66,0,0,1,3,15.08a7.28,7.28,0,0,1-1.35-1.74A8.17,8.17,0,0,1,1,7.64,9.3,9.3,0,0,1,3.7,2.84Z"/><ellipse class="cls-3" cx="13.31" cy="4.14" rx="1.14" ry="1.35" transform="translate(5.31 15.55) rotate(-72.24)"/><ellipse class="cls-3" cx="11.83" cy="5.06" rx="0.16" ry="0.3" transform="translate(-0.94 6.59) rotate(-30)"/><path class="cls-4" d="M16.42,5.06a7.66,7.66,0,0,1,1,4.71A7.76,7.76,0,0,1,15,14.54,12.71,12.71,0,0,0,15.81,12,13.32,13.32,0,0,0,16,9.53a4.32,4.32,0,0,0-1.33-2.91A14,14,0,0,1,16.42,5.06Z"/></g></g></svg>