<svg xmlns="http://www.w3.org/2000/svg" xmlns:xlink="http://www.w3.org/1999/xlink" viewBox="0 0 160.839 160.839"><defs><style>.cls-1{isolation:isolate;}.cls-2{fill:none;stroke:#872317;stroke-miterlimit:10;stroke-width:0.5px;}.cls-3{mix-blend-mode:screen;fill:url(#linear-gradient);}.cls-4{fill:#872317;}.cls-5{fill:#fff;}.cls-6{fill:#faedda;}.cls-7{mix-blend-mode:darken;fill:url(#linear-gradient-2);}.cls-8{mix-blend-mode:luminosity;fill:url(#linear-gradient-3);}</style><linearGradient id="linear-gradient" x1="115.439" y1="106.428" x2="161.559" y2="60.308" gradientUnits="userSpaceOnUse"><stop offset="0" stop-color="#d64a1f"/><stop offset="0.207" stop-color="#d84f21"/><stop offset="0.44" stop-color="#df5c28"/><stop offset="0.684" stop-color="#eb7333"/><stop offset="0.936" stop-color="#fa9242"/><stop offset="0.987" stop-color="#fe9946"/></linearGradient><linearGradient id="linear-gradient-2" x1="26.218" y1="134.343" x2="87.431" y2="73.13" gradientUnits="userSpaceOnUse"><stop offset="0" stop-color="#d44a24"/><stop offset="0.255" stop-color="#d84f25"/><stop offset="0.542" stop-color="#e25c27"/><stop offset="0.842" stop-color="#f4722b"/><stop offset="0.987" stop-color="#ff802d"/></linearGradient><linearGradient id="linear-gradient-3" x1="859.415" y1="433.107" x2="915.03" y2="488.722" gradientTransform="translate(-925.091 -83.61) rotate(-14.746)" gradientUnits="userSpaceOnUse"><stop offset="0" stop-color="#d7755b"/><stop offset="0.21" stop-color="#d17c68" stop-opacity="0.832"/><stop offset="0.431" stop-color="#cc8373" stop-opacity="0.688"/><stop offset="0.642" stop-color="#c9877b" stop-opacity="0.584"/><stop offset="0.837" stop-color="#c78a80" stop-opacity="0.522"/><stop offset="1" stop-color="#c68b82" stop-opacity="0.5"/></linearGradient></defs><g class="cls-1"><g id="Layer_2" data-name="Layer 2"><g id="Layer_1-2" data-name="Layer 1"><circle class="cls-2" cx="80.42" cy="80.42" r="80.17"/><path class="cls-3" d="M141.169,39.917a69.821,69.821,0,0,1,13.166,41.926c-.521,24.932-14.523,41.194-18.232,45.249a114.961,114.961,0,0,0,5-23.925c.986-9.863.067-15.135-.305-22.324-.763-14.725-14.408-25.349-14.408-25.349S138.4,41.1,141.169,39.917Z"/><path class="cls-4" d="M114.539,21.528a3.014,3.014,0,0,1,4.165-1.061A57.24,57.24,0,0,1,131.88,31.533,3.047,3.047,0,0,1,132,35.469L123.118,46.5a3.005,3.005,0,0,1-4.781-.1c-1.472-2.07-3.106-4.213-4.918-6.393-1.461-1.76-2.917-3.4-4.345-4.917a3.018,3.018,0,0,1-.413-3.614Z"/><path class="cls-5" d="M113.3,19.954a4.776,4.776,0,0,1,5.189-.094,57.272,57.272,0,0,1,12.777,10.509,4.111,4.111,0,0,1,.141,5.354L122.2,47.153a1.909,1.909,0,0,1-3.075-.109c-1.673-2.417-3.567-4.942-5.709-7.521-1.845-2.221-3.68-4.248-5.464-6.09a1.87,1.87,0,0,1-.531-1.192,13.838,13.838,0,0,1,1.8-7.89A13.646,13.646,0,0,1,113.3,19.954Z"/><ellipse class="cls-6" cx="103.167" cy="27.825" rx="1.777" ry="1.196"/><path class="cls-7" d="M32.774,18.473c-10.882,35.659,3.578,70.4,30.98,92.542,34.117,27.572,72.649,19.616,76.617,18.47-4.118,4.4-23.708,24.379-55.423,26-4.124.21-35.179,1.319-58.436-20.874A69.893,69.893,0,0,1,13.7,118.1C1.011,95.191,5.508,71.917,7.156,64.016A88.468,88.468,0,0,1,32.774,18.473Z"/><path class="cls-8" d="M53.785,147.561c-23.693-7.783-32.884-26.522-35.679-31.253,4.762,4.756,12.754,10.575,21.642,15.634,4.992,2.841,9.162,4.035,14.528,5.788,7.148,2.336,20.472,3.425,20.472,3.425l16.332,8.232s-7.522,2.346-21.545,1.594A72.58,72.58,0,0,1,53.785,147.561Z"/><path class="cls-6" d="M16.73,109.489a7.856,7.856,0,0,1-1.3.889,7.663,7.663,0,0,1-1.374.585l-1.229-2.452a14.307,14.307,0,0,0,1.533-.416c.394-.132.761-.273,1.1-.417Z"/><path class="cls-6" d="M15.753,112.921a4.812,4.812,0,0,1-.576-.6,3.982,3.982,0,0,1-.416-.62l1.249-.467a6.549,6.549,0,0,0,.335.685c.1.177.2.343.3.5Z"/></g></g></g></svg>