<svg xmlns="http://www.w3.org/2000/svg" xmlns:xlink="http://www.w3.org/1999/xlink" viewBox="0 0 75.86 162.37"><defs><style>.cls-1{isolation:isolate;}.cls-2{fill:#f0d6b4;}.cls-3{fill:#40271c;}.cls-4{fill:url(#linear-gradient);}.cls-5{fill:url(#linear-gradient-2);}.cls-19,.cls-6,.cls-7{fill:none;stroke-width:0.25px;}.cls-6{stroke:#40271c;}.cls-19,.cls-21,.cls-22,.cls-23,.cls-24,.cls-25,.cls-26,.cls-27,.cls-28,.cls-6,.cls-7{stroke-miterlimit:10;}.cls-7{stroke:#9b5a44;}.cls-8{fill:url(#linear-gradient-3);}.cls-9{fill:url(#linear-gradient-4);}.cls-10{fill:url(#linear-gradient-5);}.cls-11{fill:url(#linear-gradient-6);}.cls-12,.cls-13,.cls-14,.cls-17,.cls-18,.cls-19,.cls-37,.cls-38,.cls-39,.cls-40,.cls-41,.cls-42,.cls-43,.cls-48,.cls-49,.cls-50{mix-blend-mode:darken;}.cls-12{fill:url(#linear-gradient-7);}.cls-13{fill:url(#linear-gradient-8);}.cls-14{fill:url(#linear-gradient-9);}.cls-15{fill:url(#linear-gradient-10);}.cls-16{fill:url(#linear-gradient-11);}.cls-17{fill:url(#linear-gradient-12);}.cls-18{fill:url(#linear-gradient-13);}.cls-19{stroke:#d28d88;}.cls-20{fill:#fff;}.cls-21{stroke:#4d4b63;stroke-width:0.75px;fill:url(#linear-gradient-14);}.cls-22,.cls-23,.cls-24,.cls-25,.cls-26,.cls-27,.cls-28{stroke:#354421;stroke-width:0.5px;}.cls-22{fill:url(#linear-gradient-15);}.cls-23{fill:url(#linear-gradient-16);}.cls-24{fill:url(#linear-gradient-17);}.cls-25{fill:url(#linear-gradient-18);}.cls-26{fill:url(#linear-gradient-19);}.cls-27{fill:url(#linear-gradient-20);}.cls-28{fill:url(#linear-gradient-21);}.cls-29,.cls-30,.cls-31,.cls-32{mix-blend-mode:lighten;}.cls-29{fill:url(#linear-gradient-22);}.cls-30{fill:url(#linear-gradient-23);}.cls-31{fill:url(#linear-gradient-24);}.cls-32{fill:url(#linear-gradient-25);}.cls-33{fill:url(#linear-gradient-26);}.cls-34{fill:url(#linear-gradient-27);}.cls-35{fill:url(#linear-gradient-28);}.cls-36{fill:url(#linear-gradient-29);}.cls-37{fill:url(#linear-gradient-30);}.cls-38{fill:url(#linear-gradient-31);}.cls-39{fill:url(#linear-gradient-32);}.cls-40{fill:url(#linear-gradient-33);}.cls-41{fill:url(#linear-gradient-34);}.cls-42{fill:url(#linear-gradient-35);}.cls-43{fill:url(#linear-gradient-36);}.cls-44{fill:url(#linear-gradient-37);}.cls-45{fill:url(#linear-gradient-38);}.cls-46{fill:url(#linear-gradient-39);}.cls-47{fill:url(#linear-gradient-40);}.cls-48{fill:url(#linear-gradient-41);}.cls-49{fill:url(#linear-gradient-42);}.cls-50{fill:url(#linear-gradient-43);}.cls-51{fill:#fddbab;mix-blend-mode:overlay;}</style><linearGradient id="linear-gradient" x1="29.67" y1="54.16" x2="29.67" y2="49.32" gradientUnits="userSpaceOnUse"><stop offset="0" stop-color="#b2773e"/><stop offset="0.16" stop-color="#966036"/><stop offset="0.41" stop-color="#6d402a"/><stop offset="0.64" stop-color="#502822"/><stop offset="0.84" stop-color="#3e1a1d"/><stop offset="0.99" stop-color="#38151b"/></linearGradient><linearGradient id="linear-gradient-2" x1="45.67" y1="54" x2="45.67" y2="49.12" xlink:href="#linear-gradient"/><linearGradient id="linear-gradient-3" x1="17.43" y1="59.69" x2="25.3" y2="64.24" gradientUnits="userSpaceOnUse"><stop offset="0" stop-color="#f0d6b4"/><stop offset="0.14" stop-color="#e7c8a5"/><stop offset="0.34" stop-color="#debb97"/><stop offset="0.58" stop-color="#d9b38f"/><stop offset="0.99" stop-color="#d7b18c"/></linearGradient><linearGradient id="linear-gradient-4" x1="45.15" y1="62.66" x2="55.54" y2="62.66" gradientUnits="userSpaceOnUse"><stop offset="0" stop-color="#f0d6b4"/><stop offset="0.06" stop-color="#ecd0ae"/><stop offset="0.28" stop-color="#e3c3a0"/><stop offset="0.54" stop-color="#debb98"/><stop offset="0.99" stop-color="#dcb995"/></linearGradient><linearGradient id="linear-gradient-5" x1="58.44" y1="71.04" x2="60.09" y2="68.18" gradientUnits="userSpaceOnUse"><stop offset="0" stop-color="#cdb8a3"/><stop offset="0.21" stop-color="#d2b598"/><stop offset="0.54" stop-color="#d6b28f"/><stop offset="0.99" stop-color="#d7b18c"/></linearGradient><linearGradient id="linear-gradient-6" x1="16.33" y1="67.75" x2="14.84" y2="71.86" gradientUnits="userSpaceOnUse"><stop offset="0" stop-color="#f0d6b4"/><stop offset="0.14" stop-color="#e8c9a6"/><stop offset="0.37" stop-color="#debb96"/><stop offset="0.63" stop-color="#d9b38d"/><stop offset="0.99" stop-color="#d7b08a"/></linearGradient><linearGradient id="linear-gradient-7" x1="43.32" y1="73.21" x2="33.29" y2="100.78" gradientUnits="userSpaceOnUse"><stop offset="0" stop-color="#f0d6b4"/><stop offset="0.14" stop-color="#e8c9a6"/><stop offset="0.37" stop-color="#debb96"/><stop offset="0.63" stop-color="#d9b38d"/><stop offset="0.99" stop-color="#d7b08a"/></linearGradient><linearGradient id="linear-gradient-8" x1="43.91" y1="4.29" x2="43.91" y2="36.8" xlink:href="#linear-gradient-6"/><linearGradient id="linear-gradient-9" x1="10.4" y1="22.47" x2="34.26" y2="22.47" xlink:href="#linear-gradient-6"/><linearGradient id="linear-gradient-10" x1="29.51" y1="54.06" x2="29.51" y2="52.25" gradientUnits="userSpaceOnUse"><stop offset="0" stop-color="#debf9c"/><stop offset="0.08" stop-color="#d3b291"/><stop offset="0.51" stop-color="#9b735a"/><stop offset="0.82" stop-color="#784c37"/><stop offset="0.99" stop-color="#6b3d2a"/></linearGradient><linearGradient id="linear-gradient-11" x1="45.88" y1="53.86" x2="45.88" y2="52.06" xlink:href="#linear-gradient-10"/><linearGradient id="linear-gradient-12" x1="23.84" y1="31.81" x2="23.84" y2="10.21" gradientUnits="userSpaceOnUse"><stop offset="0" stop-color="#b3664f"/><stop offset="0.61" stop-color="#cd9476"/><stop offset="0.99" stop-color="#deb290"/></linearGradient><linearGradient id="linear-gradient-13" x1="46.34" y1="33.48" x2="46.34" y2="6.62" xlink:href="#linear-gradient-12"/><linearGradient id="linear-gradient-14" x1="37.85" y1="161.99" x2="37.85" y2="104.72" gradientUnits="userSpaceOnUse"><stop offset="0" stop-color="#f8a065"/><stop offset="0.62" stop-color="#f8a267"/><stop offset="0.84" stop-color="#f8a86e"/><stop offset="0.99" stop-color="#f9b279"/><stop offset="1" stop-color="#f9b37a"/></linearGradient><linearGradient id="linear-gradient-15" x1="10.37" y1="92.27" x2="10.37" y2="105.72" gradientUnits="userSpaceOnUse"><stop offset="0" stop-color="#d3d768"/><stop offset="0.63" stop-color="#b0bb52"/><stop offset="0.99" stop-color="#a1af48"/></linearGradient><linearGradient id="linear-gradient-16" x1="19.47" y1="93.57" x2="19.47" y2="106.41" xlink:href="#linear-gradient-15"/><linearGradient id="linear-gradient-17" x1="29.78" y1="133.95" x2="29.78" y2="144.05" gradientTransform="matrix(1, -0.01, -0.01, 1.41, 1.44, -96.7)" xlink:href="#linear-gradient-15"/><linearGradient id="linear-gradient-18" x1="37.12" y1="133.98" x2="37.12" y2="143.94" gradientTransform="matrix(0.54, -0.01, -0.01, 1.41, 19.5, -96.43)" xlink:href="#linear-gradient-15"/><linearGradient id="linear-gradient-19" x1="64.13" y1="79.46" x2="64.13" y2="95.38" gradientTransform="matrix(1, 0, 0, 0.92, -0.3, 18.04)" xlink:href="#linear-gradient-15"/><linearGradient id="linear-gradient-20" x1="54.65" y1="102.03" x2="54.65" y2="116.04" gradientTransform="matrix(1, 0, 0, 1.08, 0.31, -18.75)" xlink:href="#linear-gradient-15"/><linearGradient id="linear-gradient-21" x1="44.12" y1="91.86" x2="44.12" y2="106.71" xlink:href="#linear-gradient-15"/><linearGradient id="linear-gradient-22" x1="46.63" y1="92.76" x2="46.63" y2="100.37" gradientUnits="userSpaceOnUse"><stop offset="0" stop-color="#dee092"/><stop offset="0.24" stop-color="#dadd8c"/><stop offset="0.54" stop-color="#cfd47d"/><stop offset="0.87" stop-color="#bdc563"/><stop offset="0.99" stop-color="#b6bf58"/></linearGradient><linearGradient id="linear-gradient-23" x1="63.49" y1="92.64" x2="63.49" y2="100.98" xlink:href="#linear-gradient-22"/><linearGradient id="linear-gradient-24" x1="70.93" y1="91.94" x2="70.93" y2="100.73" xlink:href="#linear-gradient-22"/><linearGradient id="linear-gradient-25" x1="40.17" y1="93.71" x2="40.17" y2="103.2" xlink:href="#linear-gradient-22"/><linearGradient id="linear-gradient-26" x1="26.1" y1="93.01" x2="26.1" y2="102.88" xlink:href="#linear-gradient-22"/><linearGradient id="linear-gradient-27" x1="14.86" y1="94.06" x2="14.86" y2="103.93" xlink:href="#linear-gradient-22"/><linearGradient id="linear-gradient-28" x1="38.76" y1="95.57" x2="38.76" y2="106.15" gradientTransform="translate(-58.37 9.81) rotate(-15.07)" xlink:href="#linear-gradient-22"/><linearGradient id="linear-gradient-29" x1="78.7" y1="101.63" x2="78.7" y2="112.21" gradientTransform="matrix(0.4, -0.06, 0.15, 0.99, -30.52, -1.44)" xlink:href="#linear-gradient-22"/><linearGradient id="linear-gradient-30" x1="35.03" y1="102.16" x2="47.63" y2="102.16" gradientUnits="userSpaceOnUse"><stop offset="0" stop-color="#596b38"/><stop offset="1" stop-color="#99b044"/></linearGradient><linearGradient id="linear-gradient-31" x1="48.36" y1="100.97" x2="60.97" y2="100.97" xlink:href="#linear-gradient-30"/><linearGradient id="linear-gradient-32" x1="42.29" y1="99.95" x2="55.92" y2="99.95" xlink:href="#linear-gradient-30"/><linearGradient id="linear-gradient-33" x1="52.49" y1="99.39" x2="68.68" y2="99.39" xlink:href="#linear-gradient-30"/><linearGradient id="linear-gradient-34" x1="191.34" y1="180.4" x2="206.12" y2="180.4" gradientTransform="matrix(-0.22, -0.64, -0.94, 0.33, 250.41, 167.3)" xlink:href="#linear-gradient-30"/><linearGradient id="linear-gradient-35" x1="0.47" y1="337.33" x2="0.47" y2="352.04" gradientTransform="translate(138.37 425.21) rotate(160.51)" xlink:href="#linear-gradient-30"/><linearGradient id="linear-gradient-36" x1="8.61" y1="340.49" x2="8.61" y2="355.08" gradientTransform="translate(138.37 425.21) rotate(160.51)" xlink:href="#linear-gradient-30"/><linearGradient id="linear-gradient-37" x1="58.68" y1="100.7" x2="58.68" y2="107.91" gradientTransform="translate(-59.57 15.19) rotate(-15.3)" gradientUnits="userSpaceOnUse"><stop offset="0" stop-color="#b8c159"/><stop offset="1" stop-color="#90a645"/></linearGradient><linearGradient id="linear-gradient-38" x1="48.25" y1="101.61" x2="48.25" y2="108.85" gradientTransform="matrix(1.72, -0.47, 0.26, 0.96, -81.11, 21.08)" xlink:href="#linear-gradient-37"/><linearGradient id="linear-gradient-39" x1="76.59" y1="110.29" x2="76.59" y2="118.03" gradientTransform="matrix(-1.2, -0.32, -0.26, 0.97, 159.84, 15.9)" xlink:href="#linear-gradient-37"/><linearGradient id="linear-gradient-40" x1="27.57" y1="97.82" x2="27.57" y2="105.57" gradientTransform="matrix(-1.23, 0.12, 0.1, 1, 80.09, -6.55)" xlink:href="#linear-gradient-37"/><linearGradient id="linear-gradient-41" x1="6.26" y1="133.58" x2="55.51" y2="133.58" gradientUnits="userSpaceOnUse"><stop offset="0" stop-color="#eb7d50"/><stop offset="1" stop-color="#eda765"/></linearGradient><linearGradient id="linear-gradient-42" x1="33.7" y1="121.79" x2="68.68" y2="121.79" gradientUnits="userSpaceOnUse"><stop offset="0" stop-color="#f7a066"/><stop offset="1" stop-color="#eb8856"/></linearGradient><linearGradient id="linear-gradient-43" x1="17.23" y1="71.85" x2="52.22" y2="71.85" gradientTransform="matrix(1, 0.08, -0.05, 0.66, 13.92, 85.23)" gradientUnits="userSpaceOnUse"><stop offset="0" stop-color="#f7a066"/><stop offset="1" stop-color="#eb8957"/></linearGradient></defs><g class="cls-1"><g id="Layer_2" data-name="Layer 2"><g id="Layer_1-2" data-name="Layer 1"><path class="cls-2" d="M19.57,62.69a9.14,9.14,0,0,1-1-4.57,6.35,6.35,0,0,1,1-3.47,5.19,5.19,0,0,1,1.12-1.21,25.56,25.56,0,0,1,1.21-6.58,17,17,0,0,1,3.09-6.19,14.68,14.68,0,0,1,3.65-3.15,6.18,6.18,0,0,1-1.76-3.87c-.3-2.29,2.21-3.71.86-4.79-1.6-1.28-5.55-3.92-10.09-7.59C11.78,16.55,9,8.43,10.66,6.9s9.17,3.17,13.76,7.6a40.12,40.12,0,0,1,7.85,10.91,46.84,46.84,0,0,1,3.9,10.47l2.2-.1a101.34,101.34,0,0,1,4.57-18C43.37,16.56,49.39-.31,52.1.35c2,.48,3.38,10-.08,17.87-2.41,5.46-6.25,8-5.45,12.51.23,1.29,1.5,2.65.4,5.23A19.07,19.07,0,0,0,46.21,38a11.62,11.62,0,0,1,3.85,3.34,32.14,32.14,0,0,1,3.34,5.51,27.17,27.17,0,0,1,1.09,4.67l.28,2.3.79,1.67A6.13,6.13,0,0,1,56,59.4a9.2,9.2,0,0,1-1.37,2.85A25.35,25.35,0,0,1,57,59.79c1.37-1.23,3-2.65,4.69-2.33a4.06,4.06,0,0,1,2.46,1.88,5.41,5.41,0,0,1,.86,3.45c-.19,2.11-1.53,2.81-3.21,5.92A22.87,22.87,0,0,0,60.4,72a15.75,15.75,0,0,1,1.51,3.59,15,15,0,0,1-1.7,12.09c-1,1.46-1.36,1.61-1.59,1.75a15,15,0,0,0-3.9,1.48c-.56.28,3.85-2.67,7.81-1.19,1.53.58,4,1.84,3.64,2.68-.66,1.58-6.45.58-11.24.9-14.61,1-24.6.09-32.17.44-2.4.12-10,.44-10.34-.74-.17-.73,2.47-2.11,3.58-2.56,2.95-1.18,8.52,1.07,8,1L22.88,91a17.33,17.33,0,0,0-4.19-.86c-.35,0-.87,0-1.5,0-.13-.07-.34-.17-.57-.31-3.38-2.08-4.06-6.69-4.29-8.08a15.48,15.48,0,0,1,.94-7.83,7,7,0,0,0,.94-1.66A3.8,3.8,0,0,0,14.48,71a3.54,3.54,0,0,0-.14-1.2,26.83,26.83,0,0,1-2.24-3.11c-1.32-2.17-2.11-3.51-1.93-5.23A3.32,3.32,0,0,1,11.24,59c1.75-1.23,5.26.66,6.77,2.11C18.81,61.9,19.57,62.69,19.57,62.69Z"/><path class="cls-3" d="M19.5,62.59c-.05,0-.12,0-.13,0s0-.08-.06-.11c-1.49-2.89-1.6-7,1.23-9.14a21.43,21.43,0,0,1,.58-4.51c1-4.47,3-9.33,7.36-11.45l0,.28A6.54,6.54,0,0,1,26.64,33a6.28,6.28,0,0,1,.92-2.37,2,2,0,0,0,.34-1.08c0-.33-.37-.55-.7-.81-4-3-8.29-5.68-11.84-9.24-2.47-2.68-6.55-8.91-5.06-12.53,1.93-2.27,8.41,2.63,10.26,3.93,8,5.73,13.82,15.83,15.6,24.89l2.2-.11s-.12.11-.11.11A97.61,97.61,0,0,1,43.07,16.6C44.24,13.77,49.2-1.18,52.41.07c1.62,1.15,1.7,3.63,2,5.41A26.19,26.19,0,0,1,51.51,20c-1.7,3.51-5.44,6.66-4.6,10.86a19.16,19.16,0,0,1,.72,2.38c.33,1.74-.74,3.26-1.18,4.85l-.13-.28c2.88,1.49,4.61,4.3,6.24,7s2,6,2.34,9.06c1.74,2.59,2.17,5.92-.19,8.5l-.18-.17c1.64-2,3.74-4.54,6.45-5,3.05-.11,4.85,3.62,4.24,6.29a8.23,8.23,0,0,1-1.59,2.93,21.57,21.57,0,0,0-3,5.68l0-.21a15.8,15.8,0,0,1,.92,13.86,9.22,9.22,0,0,1-2.84,3.94,14,14,0,0,0-3.89,1.47l0,0c0-.12.11.29-.36-.25a.26.26,0,0,1,.13-.21,6.62,6.62,0,0,1,.9-.5A9.38,9.38,0,0,1,65.63,91c.39.34.85.64.81,1.28-.61,2.05-7.24.91-9.12,1.12-5.24.16-10.52.57-15.78.53-7,.08-14-.34-21.06.06-1.26,0-10.59.6-7.72-2,3.36-2.88,7.2-2.47,11-.87l.15.07.08,0,.06,0c0-.1.08.22,0,.22H24a16.58,16.58,0,0,0-6.92-1.16c-5.13-2.72-6-10.33-4.5-15.41a13.57,13.57,0,0,1,1.26-2.53,3.51,3.51,0,0,0,.25-2.54l.05.09c-2-2.81-5.24-6.36-3.85-10,.79-2.13,3.49-1.64,5.08-.82a10.68,10.68,0,0,1,4.14,3.46Zm.14.2-1.09-.91c-2.58-2.77-8.86-5.49-8.11.82.7,2.58,2.47,4.87,4.1,7a3.91,3.91,0,0,1-.21,3c-2.53,3.87-2.3,9.08-.55,13.25a8.78,8.78,0,0,0,3.39,3.92A13,13,0,0,1,24,91.29h0c-.11,0,0,.29,0,.19h0l-.06,0-.15-.06c-2.29-.78-4.88-1.5-7.28-.89a12.27,12.27,0,0,0-3.36,1.85,1.51,1.51,0,0,0-.38.43c-.06.15-.05.15.1.27a6.81,6.81,0,0,0,2.45.49c1.74.11,3.5.09,5.25,0,7-.41,14.05,0,21.06-.08,5.28,0,10.52-.38,15.79-.54,2.6-.06,5.28.36,7.82-.16,1-.3,1.06-.74.19-1.37a9,9,0,0,0-10.23-.51l-.24.15s0,0,.07-.16c-.46-.53-.29-.12-.32-.25l.06,0a14.26,14.26,0,0,1,3.82-1.45c4.62-4.2,4.69-12,1.63-17.18a22.19,22.19,0,0,1,3.07-5.94,7.59,7.59,0,0,0,1.51-2.74A5.1,5.1,0,0,0,62.44,58c-2-1.06-3.91.86-5.36,2.13-.81.71-1.58,1.47-2.36,2.21l-.19-.17a7.06,7.06,0,0,0,1-6.2s-.86-2.06-.87-2.08c-.4-3.06-.73-6.24-2.41-8.91s-3.35-5.33-6.14-6.72l-.17-.09,0-.2h0c.39-1.56,1.42-3,1.1-4.63s-1.24-3.22-.83-4.9c.66-3.37,3.21-5.78,4.67-8.74A25.13,25.13,0,0,0,53.29,3.16,4.17,4.17,0,0,0,52.09.74a.39.39,0,0,0-.32,0,6.84,6.84,0,0,0-2.2,2.6,45.83,45.83,0,0,0-2.25,4.35c-1.36,3-2.58,6-3.73,9.11a108.41,108.41,0,0,0-5.1,19v.1h-.1L36.17,36h-.1a46.58,46.58,0,0,0-3.44-9.44A40.24,40.24,0,0,0,20.23,11.3c-2.61-1.83-5.39-4.07-8.63-4.46-1.81,0-1.06,2.71-.8,3.83a22,22,0,0,0,4.89,8.5c3.49,3.54,7.77,6.23,11.72,9.26.35.26.79.56.84,1.05C28.2,30.8,27,31.72,27,33a6.36,6.36,0,0,0,.42,2.38,4.38,4.38,0,0,0,1.46,2.13l-.18.15a16.42,16.42,0,0,0-5.78,6.88,27.44,27.44,0,0,0-2.14,9c-2.52,2.1-2.38,6.06-1.19,8.85a.72.72,0,0,1,.08.44Z"/><path class="cls-4" d="M28,50.44a2.26,2.26,0,0,1,2.33-1.06,2.56,2.56,0,0,1,1.31,3.46,2.34,2.34,0,0,1-3.41.9A2.62,2.62,0,0,1,28,50.44Z"/><path class="cls-5" d="M47.5,50.42a2.27,2.27,0,0,0-2.22-1.27,2.56,2.56,0,0,0-1.61,3.33A2.34,2.34,0,0,0,47,53.68,2.61,2.61,0,0,0,47.5,50.42Z"/><path class="cls-6" d="M43.15,41.36l1.4-.18"/><path class="cls-6" d="M31.47,41.45l-1.39-.18"/><path class="cls-7" d="M37.8,54.58a3.58,3.58,0,0,1,0,.62,1.71,1.71,0,0,1-.11.74c-.24.4-.85.44-1.2.46a2.77,2.77,0,0,1-1-.11"/><path class="cls-7" d="M40,56.2a2,2,0,0,1-1,.19,2.25,2.25,0,0,1-1.33-.62"/><path class="cls-3" d="M36.93,53.81c.18-.36,1.77-.37,1.87,0s-.37.74-.94.76S36.82,54,36.93,53.81Z"/><path class="cls-8" d="M18.82,57.47l.14-.42s.61,1.26,1.14,2.24A5,5,0,0,0,21.49,61a8.45,8.45,0,0,0,1.74.94h0a20.24,20.24,0,0,0,2.9.83,16.41,16.41,0,0,0-4,.66,4.64,4.64,0,0,0-1.07.6,2.69,2.69,0,0,0-.33.34,1.66,1.66,0,0,0-.3.57c-.16-.51-.4-1.31-.74-2.28s-.43-1.17-.64-1.91a12.11,12.11,0,0,1-.33-2.53A7.77,7.77,0,0,1,18.82,57.47Z"/><path class="cls-9" d="M55.54,59.82c0-.65-2.78.75-5.76,1.87s-4.63,1.83-4.63,1.83l2.12.77a15.63,15.63,0,0,1,5.78-.19,3,3,0,0,1,1.33.68,2.81,2.81,0,0,1,.63.88,11.11,11.11,0,0,1-.43-1.44c0-.24-.07-.47-.07-.5,0-.25,0-.45,0-.55a1.88,1.88,0,0,1,.15-.71l.08-.11a.72.72,0,0,0-.12-.11l-.07-.05c0-.06,0-.15.06-.16a6.44,6.44,0,0,0,.34-.7C55.47,60.39,55.53,60.15,55.54,59.82Z"/><path class="cls-10" d="M61.32,68.88a6.57,6.57,0,0,1-2.22.81c-.94.12-1.87-.25-2-.06s3,2.36,3,2.36Z"/><path class="cls-11" d="M14,69a4,4,0,0,0,1.83.27A4.06,4.06,0,0,0,18,68.36L14.66,71.8a6.48,6.48,0,0,0,.09-.7,3.18,3.18,0,0,0-.07-1.1A2.26,2.26,0,0,0,14,69Z"/><path class="cls-12" d="M13.09,74.33a8.71,8.71,0,0,1,2.44-4.09,7.16,7.16,0,0,1,.85-.63,28.67,28.67,0,0,0,2.12,5.93,31,31,0,0,0,5.28,7.51c3.53,3.39,8.64,3.33,18.9,3.19,5.76-.07,13.59-.27,16.25-4.68.52-.86,1.49-2.12,1.49-2.12s1.1,3.4-.21,6c-1.43,2.82-4.38,3.74-4.13,4.34s3-.77,6.35.16c1.67.48,3.87,1.64,3.74,2.43-.18,1.14-5.05,1-21.7,1.11-5,0-9.92-.11-14.88,0-9.5.17-17,.68-17.17-.49-.09-.53,1.29-1.41,1.88-1.72,1.39-.76,2.41-.57,2.55-1S15.69,89.07,14.62,88c-1.35-1.41-1.69-3-2.11-5.07A16.25,16.25,0,0,1,13.09,74.33Z"/><path class="cls-13" d="M42.59,36.8c-1.34-.85-1.47-3.5-.68-6.6,1.24-4.85,1.62-8.49,2.36-11.1C44.58,18,45.37,15.66,47,11c.24-.71.63-1.94,1.24-3.52a32.36,32.36,0,0,0,1.24-3.14A88.29,88.29,0,0,0,38.37,35.93C39.2,36,41.77,36.71,42.59,36.8Z"/><path class="cls-14" d="M10.89,7.36c2.27-1.72,13,8.23,19.53,18.34,4.21,6.53,3.83,10.81,3.83,10.81a6.6,6.6,0,0,0-3.57.42c-1,.43-1.37,1-2,.81s-.82-.8-1.23-1.82a6.48,6.48,0,0,1-.56-3.07A4.38,4.38,0,0,1,27.38,31c.21-.42.34-.48.46-.76.4-.93.17-.8,0-1.18-1.06-1.94-4-2.88-6.31-5A27.17,27.17,0,0,1,15,18.77C11.46,14.83,9.39,8.5,10.89,7.36Z"/><ellipse class="cls-15" cx="29.51" cy="53.16" rx="1.45" ry="0.9"/><ellipse class="cls-16" cx="45.88" cy="52.96" rx="1.45" ry="0.9"/><path class="cls-17" d="M14.47,10.33c1.47-1.25,10.92,7.22,17,17.15a34.53,34.53,0,0,1,1.94,4.33,47.44,47.44,0,0,0-6.58-5.31c-5.33-3.7-7.11-4.37-9-7C16.06,16.92,13.53,11.13,14.47,10.33Z"/><path class="cls-18" d="M41.42,33.48a87.57,87.57,0,0,1,3.14-15.31c.81-2.73,3.54-11.8,5.14-11.54,1.21.2,2.35,5.61.81,10.3-1.3,3.94-3.71,5-4.07,8.87a5.24,5.24,0,0,1-1.08,3.38c-.78.85-1.59.87-2.55,1.85A5.75,5.75,0,0,0,41.42,33.48Z"/><path class="cls-19" d="M14.33,93.54a1.71,1.71,0,0,1,.28-1.48"/><path class="cls-19" d="M16.16,93.63A1.82,1.82,0,0,1,16,92.8a1.71,1.71,0,0,1,.24-.74"/><path class="cls-19" d="M64.38,93.23a1.69,1.69,0,0,0-.29-1.48"/><path class="cls-19" d="M62.55,93.32a1.77,1.77,0,0,0,.13-.82,1.82,1.82,0,0,0-.24-.75"/><path class="cls-20" d="M29.89,50.11c.06-.19.55-.27.89-.08s.42.33.36.48-.51.25-.83.11S29.83,50.27,29.89,50.11Z"/><path class="cls-20" d="M45.89,49.91c.07-.2.56-.27.9-.09s.41.34.36.49-.51.25-.83.11S45.84,50.07,45.89,49.91Z"/><path class="cls-21" d="M9.1,106.69c3.49-3.53,7.47-.42,26.73-.34,21.75.1,26.51-3.82,30.47.17,9.13,9.22-5.18,34-14.41,44a131.54,131.54,0,0,1-12.31,11,2.72,2.72,0,0,1-3.12,0c-2.19-1.57-8.6-7.2-10.15-8.8C17.11,143.18-.11,116,9.1,106.69Z"/><path class="cls-22" d="M.29,92.27l9.59,2.87a8.94,8.94,0,0,1,8.85,5c2.69,5.52,1.4,5.56,1.4,5.56l-6-.07s-1.33.22-7.41-3.74A14.63,14.63,0,0,1,.29,92.27Z"/><path class="cls-23" d="M9.52,93.57l11.25.62s5.79,2.57,7.69,7.47c1.82,4.72.55,4.75.55,4.75l-6.28-.06s-1.5.2-7.71-3.54S9.52,93.57,9.52,93.57Z"/><path class="cls-24" d="M21.41,92.7l15.22.41s5.41,3.64,2.75,9.5c-2,4.28-3.29,4.29-3.29,4.29l-6.31-.15s-1.58.14-6.05-3C18.58,100,21.41,92.7,21.41,92.7Z"/><path class="cls-25" d="M33,92.75l8.26.31s2.91,3.6,1.42,9.48c-1.08,4.29-2.08,3.53-2.08,3.53l-3.15.68s-.86.14-3.26-3C31.44,100.1,33,92.75,33,92.75Z"/><path class="cls-26" d="M75.43,91.41,64.65,93.54s-5.55,2.39-8.84,6.59c-4.71,6-3.06,5.94-3.06,5.94l8.94-.86a14.1,14.1,0,0,0,2.23-.69,17.26,17.26,0,0,0,6.79-5.42A30.87,30.87,0,0,0,74,94.18C74.65,93.08,75.11,92.12,75.43,91.41Z"/><path class="cls-27" d="M66.64,91.41a27.83,27.83,0,0,1-7.17,1.84,28.22,28.22,0,0,1-6.13.07,17.13,17.13,0,0,0-9.23,8.3,15.42,15.42,0,0,0-1.37,5l7.22-.2s1.9.22,10.27-4.6C68.81,96.85,66.64,91.41,66.64,91.41Z"/><path class="cls-28" d="M54.66,91.86l-12.57,2s-5.64,3-7.57,7.88-.71,4.94-.71,4.94l8.38-.09s-.3.25,6.74-4.2C56.27,97.79,54.66,91.86,54.66,91.86Z"/><path class="cls-29" d="M48.58,93.31l-5.87,7.06,4.7-4.27c1.5-1.36,3.35-3,3.13-3.32,0,0-.06,0-1.07.09-.42,0-.73.07-.85.29A.31.31,0,0,0,48.58,93.31Z"/><path class="cls-30" d="M60.56,101a10.35,10.35,0,0,0,2.81-1.73A10.15,10.15,0,0,0,65,97.4C66.7,95,66.48,93,66.28,92.72h0c-.28-.2-1.06.1-1.06.1a6,6,0,0,1,0,1,8.75,8.75,0,0,1-2,4.31A17.07,17.07,0,0,1,60.56,101Z"/><path class="cls-31" d="M67.26,100.73A10,10,0,0,0,70.07,99a12,12,0,0,0,1.66-1.85A16.58,16.58,0,0,0,74,93.44c.39-.81.75-1.17.6-1.34-.4-.46-1.66.25-1.66.25,0,.25-.89,1.77-.94,2.19a17.75,17.75,0,0,1-2,3.35A15.94,15.94,0,0,1,67.26,100.73Z"/><path class="cls-32" d="M43.05,93.94l-7.53,9.26c.45-.53,4.06-5,6-6.9a20,20,0,0,1,2.49-2.17c.38-.26.81-.28.77-.36s-.23-.13-.87.06A5.75,5.75,0,0,1,43.05,93.94Z"/><path class="cls-33" d="M23.17,93l1.41.09a9.55,9.55,0,0,0,.3,4.63A7.8,7.8,0,0,0,27,101.27s.2.18,2.09,1.61h0A10,10,0,0,1,23.17,93Z"/><path class="cls-34" d="M11.94,94.06l1.41.09a9.52,9.52,0,0,0,.29,4.63,7.82,7.82,0,0,0,2.09,3.53s.2.19,2.08,1.62h0a10.29,10.29,0,0,1-4.89-4.76A10.07,10.07,0,0,1,11.94,94.06Z"/><path class="cls-35" d="M1.07,92.78c.46-.1,1.12.5,1.58.4a9.54,9.54,0,0,0,1.49,4.4,7.87,7.87,0,0,0,2.93,2.87s.25.12,2.44,1h0a10.39,10.39,0,0,1-6-3.33A12.79,12.79,0,0,1,1.07,92.78Z"/><path class="cls-36" d="M15.81,94.18c.19,0,.5.7.69.71a23.36,23.36,0,0,0,.84,4.55,13.26,13.26,0,0,0,1.39,3.36s.11.17,1.09,1.47h0a10,10,0,0,1-2.71-4.4A29.31,29.31,0,0,1,15.81,94.18Z"/><path class="cls-37" d="M47.63,97.61a88,88,0,0,1-7.08,5.52c-1.9,1.33-3.75,2.52-5.52,3.58l2.39-.1c1.18-.77,2.41-1.64,3.67-2.65A46.36,46.36,0,0,0,47.63,97.61Z"/><path class="cls-38" d="M61,95.44c-1.08,1.22-3.7,4.14-6.73,7.23a15.2,15.2,0,0,1-3.51,2.78,14.63,14.63,0,0,1-2.37,1l2.4-.12a48,48,0,0,0,3.67-3.22A52.91,52.91,0,0,0,61,95.44Z"/><path class="cls-39" d="M54.81,93.42c.52,1-1.52,6.93-6.71,9.5-2.15,1.07-4,2.52-5.81,3.58l2.52-.1c1.24-.76,5.44-2.88,6.73-3.92a14.82,14.82,0,0,0,4-5.68,15.33,15.33,0,0,0,.35-3.24A3.07,3.07,0,0,0,54.81,93.42Z"/><path class="cls-40" d="M67,93.08a2.08,2.08,0,0,1,1.66-.22,19.51,19.51,0,0,1-1,3.64,15.17,15.17,0,0,1-4,6,15.52,15.52,0,0,1-4.89,3c-5,.67-6.28.59-6.33.35-.14-.65,7.74-3.12,11.41-6.65A10.1,10.1,0,0,0,67,93.08Z"/><path class="cls-41" d="M41.84,94.17c-1.21.34-5.6,3.81-7.13,7.5-1.05,2.52-1.49,4.29-1.15,5.17-.16-.55-3.77.45-3.93-.09.45-1,3.7-6.33,4.4-7.5a15.8,15.8,0,0,1,4.46-4.44,22.17,22.17,0,0,1,3-1.3S41.84,93.9,41.84,94.17Z"/><path class="cls-42" d="M28.09,106.41c-.55-.3-1.33-.74-2.24-1.3a17.71,17.71,0,0,1-2.76-1.91,8.52,8.52,0,0,1-2.34-4.09,8.7,8.7,0,0,1,.35-5H18.87a13,13,0,0,0,.41,4.71,13.86,13.86,0,0,0,5.81,7.69,7.59,7.59,0,0,1,1.17-.15A8.54,8.54,0,0,1,28.09,106.41Z"/><path class="cls-43" d="M20.55,105.72c-.77-.34-1.83-.83-3.05-1.49a25.89,25.89,0,0,1-2.61-1.5,12.57,12.57,0,0,1-3.8-3.61A10.48,10.48,0,0,1,9.57,95L8,94.71a26,26,0,0,0,5.75,10.86l2.69.05Z"/><path class="cls-44" d="M21.26,97.48l1.81.47a12.79,12.79,0,0,0,3,3.73,13.15,13.15,0,0,0,2,1.41,5.58,5.58,0,0,1-3.88-.4A5.76,5.76,0,0,1,21.26,97.48Z"/><path class="cls-45" d="M26.18,97.08l3,.14a7,7,0,0,1,2.5,2,6.89,6.89,0,0,1,1.05,1.95,6.05,6.05,0,0,0-.57.48,11.53,11.53,0,0,0-1.49,1.66,7.47,7.47,0,0,1-1.49-.68,6.17,6.17,0,0,1-2.9-3.57A5.22,5.22,0,0,1,26.18,97.08Z"/><path class="cls-46" d="M42.51,98.45l-2.17.38a17.37,17.37,0,0,1-6.1,5.37,4,4,0,0,0,1.7.3c.93,0,1.38-.44,3-1.36,2.24-1.29,2.52-1.19,3-1.81A4.06,4.06,0,0,0,42.51,98.45Z"/><path class="cls-47" d="M58.51,93.8l-1.9,1.12a17.37,17.37,0,0,1-1.94,4.6,17,17,0,0,1-1.88,2.57,3.89,3.89,0,0,0,1.7-.32c.85-.38,1.13-.9,2.31-2.32,1.64-2,1.94-2,2.14-2.74A4,4,0,0,0,58.51,93.8Z"/><path class="cls-48" d="M30.89,106.58c-2.27,4.39-2.18,12.75-.52,22.39,2.38,13.7,3.88,25.2,8.49,28.66,3.19,2.4,15.69-10,16.65-11.48C52.76,149.41,39.63,162,38.77,161.9a7.37,7.37,0,0,0-1.58-.07,0,0,0,0,0,0,0,81.89,81.89,0,0,1-23.68-26.94c-3.27-6.12-10.81-20.19-5.34-27.12a9.07,9.07,0,0,1,3.29-2.54Z"/><path class="cls-49" d="M68.68,118.75a91.37,91.37,0,0,1-13.49,3.5,101.64,101.64,0,0,1-21.49,1,64.94,64.94,0,0,0,22.42,1,71.89,71.89,0,0,0,12.29-2.51C68.84,120.94,68.26,119.61,68.68,118.75Z"/><path class="cls-50" d="M62.51,134.83a128.53,128.53,0,0,1-13.64,1.3,154.68,154.68,0,0,1-21.48-1,97.11,97.11,0,0,0,22.31,2.38,102.7,102.7,0,0,0,12.38-.72C62.55,136.3,62,135.37,62.51,134.83Z"/><path class="cls-51" d="M47.52,110.06a4.81,4.81,0,0,1,2.88-1.61,4.46,4.46,0,0,1,3.25.88,11.09,11.09,0,0,1-.37,8,6.72,6.72,0,0,1-2.94,2.2,5.76,5.76,0,0,1-3.76.07,23.3,23.3,0,0,0,.94-4.61A24.17,24.17,0,0,0,47.52,110.06Z"/><path class="cls-51" d="M47.36,126.83c.58.3,1.56-.37,2.83-.7,1-.25,1.76.22,2.3-.25l-.6,5.93a8,8,0,0,1-3.8.5,7.43,7.43,0,0,1-1.51-.35Z"/><path class="cls-51" d="M46.43,132.66a10.86,10.86,0,0,0,3.19.37,9.31,9.31,0,0,0,2.45-.39l-.2,2.61a20.76,20.76,0,0,1-4.19-.08c-.61-.07-1.19-.16-1.71-.27Z"/><path class="cls-51" d="M46.71,138.92a3.24,3.24,0,0,1,4.21.32c2.22,3.1-7.52,13.55-7.72,13.41s3-2.79,3.44-7.21C47,142.09,45.53,140.05,46.71,138.92Z"/></g></g></g></svg>