<svg xmlns="http://www.w3.org/2000/svg" xmlns:xlink="http://www.w3.org/1999/xlink" viewBox="0 0 291.243 487.754"><defs><style>.cls-1{isolation:isolate;}.cls-2{fill:#f0d6b4;}.cls-3{fill:#40271c;}.cls-4{fill:url(#linear-gradient);}.cls-5{fill:url(#linear-gradient-2);}.cls-6,.cls-7{fill:none;stroke-miterlimit:10;stroke-width:0.75px;}.cls-6{stroke:#40271c;}.cls-7{stroke:#9b5a44;}.cls-8{fill:url(#linear-gradient-3);}.cls-9{fill:url(#linear-gradient-4);}.cls-10{fill:url(#linear-gradient-5);}.cls-11{fill:url(#linear-gradient-6);}.cls-12,.cls-13,.cls-14,.cls-17,.cls-18,.cls-19,.cls-20,.cls-21,.cls-22{mix-blend-mode:darken;}.cls-12{fill:url(#linear-gradient-7);}.cls-13{fill:url(#linear-gradient-8);}.cls-14{fill:url(#linear-gradient-9);}.cls-15{fill:url(#linear-gradient-10);}.cls-16{fill:url(#linear-gradient-11);}.cls-17{fill:url(#linear-gradient-12);}.cls-18{fill:url(#linear-gradient-13);}.cls-19{fill:url(#linear-gradient-14);}.cls-20{fill:url(#linear-gradient-15);}.cls-21{fill:url(#linear-gradient-16);}.cls-22{fill:url(#linear-gradient-17);}.cls-23{fill:#fff;}</style><linearGradient id="linear-gradient" x1="103.152" y1="280.615" x2="103.152" y2="255.304" gradientTransform="matrix(1, 0.013, -0.013, 1, 3.099, -1.883)" gradientUnits="userSpaceOnUse"><stop offset="0" stop-color="#b2773e"/><stop offset="0.155" stop-color="#966036"/><stop offset="0.409" stop-color="#6d402a"/><stop offset="0.642" stop-color="#502822"/><stop offset="0.842" stop-color="#3e1a1d"/><stop offset="0.987" stop-color="#38151b"/></linearGradient><linearGradient id="linear-gradient-2" x1="186.81" y1="279.778" x2="186.81" y2="254.284" xlink:href="#linear-gradient"/><linearGradient id="linear-gradient-3" x1="39.21" y1="309.528" x2="80.308" y2="333.256" gradientTransform="matrix(1, 0.013, -0.013, 1, 3.099, -1.883)" gradientUnits="userSpaceOnUse"><stop offset="0.004" stop-color="#f0d6b4"/><stop offset="0.141" stop-color="#e7c8a5"/><stop offset="0.339" stop-color="#debb97"/><stop offset="0.581" stop-color="#d9b38f"/><stop offset="0.987" stop-color="#d7b18c"/></linearGradient><linearGradient id="linear-gradient-4" x1="184.048" y1="325.011" x2="238.365" y2="325.011" gradientTransform="matrix(1, 0.013, -0.013, 1, 3.099, -1.883)" gradientUnits="userSpaceOnUse"><stop offset="0" stop-color="#f0d6b4"/><stop offset="0.065" stop-color="#ecd0ae"/><stop offset="0.281" stop-color="#e3c3a0"/><stop offset="0.545" stop-color="#debb98"/><stop offset="0.987" stop-color="#dcb995"/></linearGradient><linearGradient id="linear-gradient-5" x1="253.508" y1="368.813" x2="262.149" y2="353.846" gradientTransform="matrix(1, 0.013, -0.013, 1, 3.099, -1.883)" gradientUnits="userSpaceOnUse"><stop offset="0" stop-color="#cdb8a3"/><stop offset="0.21" stop-color="#d2b598"/><stop offset="0.535" stop-color="#d6b28f"/><stop offset="0.987" stop-color="#d7b18c"/></linearGradient><linearGradient id="linear-gradient-6" x1="33.474" y1="351.635" x2="25.655" y2="373.118" gradientTransform="matrix(1, 0.013, -0.013, 1, 3.099, -1.883)" gradientUnits="userSpaceOnUse"><stop offset="0" stop-color="#f0d6b4"/><stop offset="0.141" stop-color="#e8c9a6"/><stop offset="0.368" stop-color="#debb96"/><stop offset="0.627" stop-color="#d9b38d"/><stop offset="0.987" stop-color="#d7b08a"/></linearGradient><linearGradient id="linear-gradient-7" x1="174.347" y1="380.106" x2="122.036" y2="523.828" gradientTransform="matrix(1, 0.013, -0.013, 1, 3.099, -1.883)" gradientUnits="userSpaceOnUse"><stop offset="0.004" stop-color="#f0d6b4"/><stop offset="0.145" stop-color="#e8c9a6"/><stop offset="0.371" stop-color="#debb96"/><stop offset="0.629" stop-color="#d9b38d"/><stop offset="0.987" stop-color="#d7b08a"/></linearGradient><linearGradient id="linear-gradient-8" x1="177.595" y1="19.972" x2="177.595" y2="189.87" xlink:href="#linear-gradient-6"/><linearGradient id="linear-gradient-9" x1="3.023" y1="114.586" x2="127.159" y2="114.586" xlink:href="#linear-gradient-6"/><linearGradient id="linear-gradient-10" x1="102.331" y1="280.089" x2="102.331" y2="270.648" gradientTransform="translate(377.307 172.428) rotate(90)" gradientUnits="userSpaceOnUse"><stop offset="0" stop-color="#debf9c"/><stop offset="0.08" stop-color="#d3b291"/><stop offset="0.51" stop-color="#9b735a"/><stop offset="0.824" stop-color="#784c37"/><stop offset="0.987" stop-color="#6b3d2a"/></linearGradient><linearGradient id="linear-gradient-11" x1="187.907" y1="279.044" x2="187.907" y2="269.603" gradientTransform="translate(461.845 86.89) rotate(90)" xlink:href="#linear-gradient-10"/><linearGradient id="linear-gradient-12" x1="72.728" y1="163.82" x2="72.728" y2="50.909" gradientTransform="matrix(1, 0.013, -0.013, 1, 3.099, -1.883)" gradientUnits="userSpaceOnUse"><stop offset="0" stop-color="#b3664f"/><stop offset="0.61" stop-color="#cd9476"/><stop offset="0.987" stop-color="#deb290"/></linearGradient><linearGradient id="linear-gradient-13" x1="190.284" y1="172.517" x2="190.284" y2="32.175" xlink:href="#linear-gradient-12"/><linearGradient id="linear-gradient-14" x1="19.645" y1="480.898" x2="21.533" y2="480.898" gradientTransform="matrix(1, 0, 0, 1, 0, 0)" xlink:href="#linear-gradient-12"/><linearGradient id="linear-gradient-15" x1="28.833" y1="481.25" x2="30.192" y2="481.25" gradientTransform="matrix(1, 0, 0, 1, 0, 0)" xlink:href="#linear-gradient-12"/><linearGradient id="linear-gradient-16" x1="280.102" y1="482.606" x2="281.854" y2="482.606" gradientTransform="matrix(1, 0, 0, 1, 0, 0)" xlink:href="#linear-gradient-12"/><linearGradient id="linear-gradient-17" x1="271.443" y1="482.727" x2="272.684" y2="482.727" gradientTransform="matrix(1, 0, 0, 1, 0, 0)" xlink:href="#linear-gradient-12"/></defs><g class="cls-1"><g id="Layer_2" data-name="Layer 2"><g id="Layer_1-2" data-name="Layer 1"><path class="cls-2" d="M49.38,323.916a48.059,48.059,0,0,1-5.146-23.972c.25-4.543.714-11.378,5.344-18.058a28.948,28.948,0,0,1,5.917-6.263,135.613,135.613,0,0,1,6.772-34.275c3.348-9.926,7.063-20.942,16.586-32.149a77.24,77.24,0,0,1,19.24-16.241c-4.687-4.148-7.921-11.638-8.936-20.324-1.4-11.977,11.809-19.22,4.819-24.958-8.254-6.777-28.756-20.85-52.2-40.359C11.71,82.292-2.161,39.694,6.484,31.812c9.06-8.259,47.737,17.144,71.432,40.6,22.435,22.211,34.288,45.5,40.3,57.555a245.311,245.311,0,0,1,19.654,54.958l11.518-.405a532.475,532.475,0,0,1,25.051-93.73C176.771,84.458,209.35-3.3,223.5.309,233.727,2.92,240.48,52.853,221.87,93.7c-12.931,28.379-33.177,41.546-29.289,65.014,1.113,6.723,7.647,13.937,1.711,27.321a93.873,93.873,0,0,0-4.07,10.776,61.024,61.024,0,0,1,19.889,17.724c.267.37,14.108,19.77,17.091,29.017a139.508,139.508,0,0,1,5.361,24.475c.261,2.206,1.349,12.027,1.349,12.027s2.4,5.368,3.987,8.761a32.027,32.027,0,0,1,1.983,20.337c-1.854,7.549-7.317,14.768-7.317,14.768a137.715,137.715,0,0,1,12.8-12.7c7.266-6.343,15.649-13.66,24.669-11.864,7.069,1.408,11.241,7.756,12.717,10a28.42,28.42,0,0,1,4.275,18.068c-1.121,11.037-8.191,14.6-17.175,30.727a116.03,116.03,0,0,0-7.725,16.94,81.258,81.258,0,0,1,7.656,18.889c6.265,23.71.96,47.925-9.693,63.038-5.322,7.549-7.227,8.343-8.423,9.04-9.28,1.568-18.153,6.4-20.476,7.5-2.97,1.4,20.307-13.717,40.882-5.71,7.971,3.1,20.738,9.888,18.853,14.25-3.54,8.193-33.744,2.575-58.781,3.926-76.442,4.125-128.548-1.149-168.134.207-12.552.43-52.564,1.64-53.984-4.575-.871-3.811,13.051-10.871,18.847-13.105,15.523-5.984,44.437,6.155,41.626,5.753l-5.715-2.512c-6.927-2.954-19.688-4.663-21.795-4.754a75.329,75.329,0,0,0-7.842.07c-.72-.368-1.764-.933-2.973-1.7-17.528-11.088-20.788-35.2-21.908-42.488,0,0-3.331-22.159,5.468-40.827a39.125,39.125,0,0,0,5-8.625,20.425,20.425,0,0,0,1.5-6.36,19.073,19.073,0,0,0-.671-6.264,134.816,134.816,0,0,1-11.469-16.407C3.3,332.984-.75,325.936.318,316.957c.381-3.206,1.13-9.566,5.777-12.77,9.189-6.335,27.422,3.767,35.216,11.454C45.464,319.737,49.38,323.916,49.38,323.916Z"/><path class="cls-3" d="M49.331,323.846a47.416,47.416,0,0,1-5.193-25.39c.347-8.79,4.174-17.542,11.3-22.907l-.036.067a137.567,137.567,0,0,1,7.14-35.494c5.949-19.75,17.313-36.865,35.49-47.265,0-.006-.018.19-.016.19-4.863-4.5-7.307-10.976-8.508-17.354a19.136,19.136,0,0,1,1.342-12.8c1.319-3,3.252-5.67,4.489-8.692a5.081,5.081,0,0,0-.864-5.917c-.772-.735-1.671-1.38-2.509-2.065-13.842-10.556-28-20.716-41.547-31.67-6.777-5.463-13.647-10.892-19.427-17.443C19.432,84.11,10.285,68.7,5.58,51.89,3.99,45.5,1.433,33.551,8.159,30.612c12.176-3.8,39.168,16.013,49.048,23.53a201.48,201.48,0,0,1,37.128,36.61,247.264,247.264,0,0,1,43.536,94.089l11.514-.4A525.4,525.4,0,0,1,176.4,85.075C183.481,67.229,206.191,6.757,221.073.229c9.129-2.822,11.95,21.248,12.362,27.177,1.761,25.7-3.116,52.224-15.667,74.852-6.14,11.377-14.557,21.319-20.64,32.705-5.185,9.511-6.64,20.847-2.088,30.877,5,13.024-1.083,19.248-4.657,31.01,0,.01-.085-.192-.085-.192a53.881,53.881,0,0,1,10.033,7.007c6.285,5.287,10.993,12.063,15.427,18.9,4.366,6.858,9.007,13.7,11.71,21.432a138.421,138.421,0,0,1,5.174,23.886c-.009-.031,1.378,12.3,1.348,12.129,1.387,3.123,3.6,7.558,4.853,10.709a31.221,31.221,0,0,1-.349,23.051,49.633,49.633,0,0,1-5.867,10.2,1.61,1.61,0,0,1-.127-.114,130.8,130.8,0,0,1,11.977-12.1c10.92-9.969,24.352-20.281,36.4-5.334,7.265,8.773,8.9,22.319,2.4,31.959-1.523,2.41-3.254,4.664-4.918,6.959a115.946,115.946,0,0,0-16.072,29.811c12.056,20.719,13.825,48.837,3.89,71.309a61.7,61.7,0,0,1-6.031,10.765c-2.437,3.27-4.759,6.925-8.4,8.981-7.078,1.241-13.757,4.109-20.146,7.336l-.392.188a.729.729,0,0,1-.289.086c-.305-.507.014-.273-.043-.377,13.163-7.831,30.454-11.318,44.682-4.314,4.751,2.269,16.061,7.492,15.672,12.5-1.74,5.8-14.218,5.007-19.1,5.2-9.186-.086-18.345-.717-27.516-.832-4.586-.07-9.169-.007-13.748.255-41.215,2.269-82.625,1.626-123.849.37-18.351-.6-36.689-.539-55.038.083-12.566-.018-25.4.6-37.741-2.183-12.659-3.239,5.875-12,10.1-14.156,10.384-5.7,22.711-3.6,33.642-.762a72.124,72.124,0,0,1,12.573,4.456.655.655,0,0,1,.194.165c.065.162-.147.2-.14.178a.888.888,0,0,1-.12-.009l-4.2-1.812a58.649,58.649,0,0,0-13.071-3.854A63.731,63.731,0,0,0,35.153,467.3c-8.947-4.325-15.326-12.706-19.145-21.71-8.02-19.692-9.231-42.935-.822-62.7a6.386,6.386,0,0,1,.908-1.624c2.887-3.874,5.243-8.341,5.882-13.173a19.951,19.951,0,0,0-.543-7.145,136.989,136.989,0,0,1-12.261-17.76C4.445,335.053-1.259,326.217.246,316.372c.531-4.668,1.921-9.944,6.2-12.558,9.8-5.569,25.162,3.457,32.857,9.83,3.3,2.9,6.477,6.387,9.527,9.558l.308.328.154.164.077.082c.008.009.036.037.028.032s-.06.007-.062.038Zm.1.14a.193.193,0,0,1-.139-.043l-.049-.05-.077-.081-.155-.163c-1.341-1.4-3.33-3.461-4.692-4.84a56.949,56.949,0,0,0-17.209-12.734c-6.244-2.837-14.083-5.7-20.522-2.03C.691,307.761-.224,317.22.606,323.532c1.27,7.1,5.272,13.333,8.829,19.5A139.794,139.794,0,0,0,21.713,360.8c2.2,7.276-.959,14.875-5.346,20.662a6.877,6.877,0,0,0-.5.73l-.374.834c-8.354,19.668-7.121,42.817.869,62.407,3.633,8.9,10.449,17.277,18.767,21.481a64.062,64.062,0,0,1,18.155,1.5,56.394,56.394,0,0,1,13.077,3.952l4.153,1.851c-7.373-3.529-17.351-5.982-26.079-6.949-6.859-.793-13.85.035-19.965,3.359-3.841,1.922-18.2,8.924-13.261,12.291,3.988,2.222,8.817,2.36,13.273,2.881,9.14.732,18.327.726,27.5.593,18.339-.624,36.7-.689,55.051-.089,41.216,1.249,82.62,1.893,123.824-.386,4.583-.261,9.18-.326,13.77-.256,9.181.114,18.344.744,27.512.828,5.1-.14,16.97.492,18.768-4.924.312-4.846-11.528-10.258-15.481-12.132-14.115-6.95-31.251-3.481-44.32,4.264-.1-.061.118.228-.149-.222,6.418-3.222,13.651-6.446,20.619-7.566,3.581-2.014,5.877-5.662,8.291-8.884a61.492,61.492,0,0,0,6-10.7c9.938-22.678,8.1-49.807-3.908-71.291a116.364,116.364,0,0,1,16.116-29.9c3.291-4.544,7.017-9.057,8.263-14.646a28.214,28.214,0,0,0-5.743-23.831c-11.877-14.756-25.084-4.411-35.871,5.378a150.017,150.017,0,0,0-12.088,11.942s-.131-.116-.123-.119a53.881,53.881,0,0,0,5.7-10.2,31.33,31.33,0,0,0,.383-22.835c-1.252-3.111-3.41-7.633-4.76-10.775-.812-7.123-1.778-17.269-3.453-24.17-.88-3.975-1.91-7.92-3.126-11.805a61.007,61.007,0,0,0-5.257-10.984A222.583,222.583,0,0,0,208.544,212.7a60.492,60.492,0,0,0-18.4-15.748l-.122-.064.039-.133c3.494-11.619,9.626-17.915,4.639-30.8-4.6-10.069-3.129-21.618,2.086-31.173,6.076-11.4,14.5-21.366,20.617-32.731,12.488-22.552,17.33-49.009,15.555-74.612-.864-8.386-1.775-17.366-6.5-24.551-3.294-4.532-7.121-1.823-10.253,1.561-8.426,9.753-13.862,21.7-19.507,33.2C189.4,53.217,182.874,69.141,176.721,85.2a545.451,545.451,0,0,0-27.33,99.411c-.07.022-11.523.392-11.585.407-7.89-33.861-22.64-66.372-43.738-94.056A203.77,203.77,0,0,0,56.985,54.429c-11.437-8.622-31.551-23.316-45.564-24.04C.889,30.262,4.3,45.318,5.884,51.809c4.676,16.75,13.8,32.148,25.317,45.107,5.769,6.547,12.617,11.962,19.385,17.425,13.538,10.964,27.682,21.123,41.525,31.693,3.125,2.268,5.1,4.253,3.44,8.25-3.578,7.561-7.986,12.372-5.831,21.37,1.2,6.306,3.592,12.821,8.452,17.215l.119.1-.138.086c-18.179,11.052-29.2,27-35.36,47.148a135.552,135.552,0,0,0-7.2,35.421l0,.041-.033.026c-7.037,5.383-10.764,14.045-11.042,22.785-.887,8.8,1.19,17.548,4.917,25.5Z"/><path class="cls-4" d="M94.029,260.469c2.532-3.693,7.527-6.8,12.245-5.411,6.365,1.879,10.136,11.336,6.609,18.172-3.413,6.614-12.708,8.934-17.9,4.469C90.279,273.662,90.583,265.494,94.029,260.469Z"/><path class="cls-5" d="M196.141,261.63c-2.1-3.957-6.7-7.616-11.55-6.768-6.537,1.142-11.359,10.109-8.632,17.3,2.638,6.958,11.609,10.321,17.279,6.476C198.367,275.163,198.993,267.013,196.141,261.63Z"/><path class="cls-6" d="M174.007,214.009l7.292-.829"/><path class="cls-6" d="M112.96,213.7l-7.269-1.012"/><path class="cls-7" d="M145.187,282.754a22.308,22.308,0,0,1,.081,3.22c-.1,2.043-.145,3.064-.633,3.87-1.254,2.073-4.458,2.243-6.284,2.339a14.084,14.084,0,0,1-5.043-.661"/><path class="cls-7" d="M156.671,291.331a10.267,10.267,0,0,1-5.016.937,11.847,11.847,0,0,1-6.946-3.319"/><path class="cls-3" d="M140.674,278.646c.959-1.851,9.267-1.807,9.772.18.331,1.308-2,3.852-4.958,3.94C143.148,282.836,140.058,279.833,140.674,278.646Z"/><path class="cls-8" d="M45.806,296.6l.736-2.2s3.1,6.629,5.842,11.764a26.548,26.548,0,0,0,7.112,9.208,44.31,44.31,0,0,0,9.054,5.007h0c.013.007,2.13,1.136,15.066,4.528-10.091.6-17.6,2.052-20.723,3.185a21.742,21.742,0,0,0-5.6,3.1,10.159,10.159,0,0,0-1.773,1.729A9.952,9.952,0,0,0,53.9,335.9c-.761-2.713-1.982-6.887-3.685-11.973-1.486-4.44-2.187-6.132-3.251-10.007a63.435,63.435,0,0,1-1.542-13.239A38.442,38.442,0,0,1,45.806,296.6Z"/><path class="cls-9" d="M237.52,311.277c.126-3.367-14.6,3.734-30.2,9.412-16.129,5.869-24.359,9.255-24.359,9.255l11.068,4.143c14.042-2.221,25.054-2.1,30.2-.619a15.83,15.83,0,0,1,6.876,3.673,14.779,14.779,0,0,1,3.277,4.629,51.3,51.3,0,0,1-2.156-7.533c-.23-1.269-.327-2.475-.338-2.622a23.834,23.834,0,0,1-.058-2.874s.116-2.766.816-3.726l.4-.544a2.9,2.9,0,0,0-.6-.6c-.238-.169-.3-.179-.342-.272-.137-.3.241-.741.324-.842.86-1.046,1.136-2.463,1.828-3.628C237.129,314.285,237.455,313.021,237.52,311.277Z"/><path class="cls-10" d="M267.106,359.03a33.609,33.609,0,0,1-11.616,4.079c-4.959.573-9.8-1.453-10.669-.469-1.435,1.627,15.631,12.541,15.631,12.541Z"/><path class="cls-11" d="M19.949,356.248a20.813,20.813,0,0,0,20.8-2.834L23.1,371.177a26.221,26.221,0,0,0,.521-3.642,16.541,16.541,0,0,0-.283-5.76A11.985,11.985,0,0,0,19.949,356.248Z"/><path class="cls-12" d="M14.588,384.7c.994-1.828,1.64-2.589,4.79-8.075,3.941-6.865,5.432-10.036,9.091-13.332a27.239,27.239,0,0,1,4.477-3.27c5.239,7.24,11.191,18.083,10.664,31.066s-7.154,18.77-3.55,25.716c4.345,8.372,15.9,3.676,30.585,13.782,12.067,8.3,8.723,14.535,18.233,19.44,11.958,6.166,19.44-2.555,47.623-3.723a133.674,133.674,0,0,1,32.395,2.162c21.387,4.186,23.425,10.467,34.672,8.668,10.462-1.674,7.724-6.953,31.517-19.23,7.825-4.038,13.609-6.3,18.832-12.76l7.9-10.99s5.506,17.8-1.5,31.254c-7.628,14.645-23.066,19.231-21.8,22.348s15.783-3.81,33.046,1.291c9.675,2.859,20.174,9.176,19.358,12.9-.859,3.923-13.863,3.171-50.515,3.677-41.479.572-37.615,1.711-63.455,1.426-21.6-.239-28.789-1.085-53.489-.894-7.177.055-13.349.179-24.394.113-23.114-.138-21.343-.831-33.393-.624-14.158.244-22.707,1.305-38.809.085-10.509-.8-15.637-1.912-16.086-4.223-.522-2.692,5.461-6.232,9.881-8.847,3.758-2.224,6.58-3.893,10.716-4.547,1.63-.257,4.591-.535,4.6-1.021,0-.18-.4-.292-1.192-.6,0,0-1.11-.427-3.332-1.555a13.126,13.126,0,0,1-3.285-2.594,63.2,63.2,0,0,1-7.755-8.852c-6.171-9.107-9.016-23.87-9.016-23.87C10.592,425.463,5.839,400.8,14.588,384.7Z"/><path class="cls-13" d="M171.389,190.132c-6.983-4.5-7.459-18.388-3.122-34.511,6.8-25.267,9-44.278,13.076-57.88,1.681-5.605,5.972-17.867,14.555-42.391,1.294-3.7,3.443-10.071,6.755-18.321,4.275-10.648,7.108-16.121,6.686-16.327-.519-.254-29.836,47.885-48.147,111.2a449.514,449.514,0,0,0-11.81,53.389C153.692,185.792,167.079,189.635,171.389,190.132Z"/><path class="cls-14" d="M7.669,34.212C18.66,25.8,73.745,75.859,108.52,131.341c21.571,34.415,19.3,56.733,19.3,56.733a29.753,29.753,0,0,0-5.781-.508,37.14,37.14,0,0,0-12.926,2.5c-4.776,1.824-8.758,4.426-10.606,2.985-.171-.135-.438-.392-.957-.894a34.684,34.684,0,0,1-2.639-2.832,18.034,18.034,0,0,1-2.472-4.781,36.96,36.96,0,0,1-1.591-4.579,26.95,26.95,0,0,1-1.154-11.474,22.35,22.35,0,0,1,2.665-8.036c1.15-2,1.632-2.939,2.595-4.809.8-1.557,1.387-2.764,1.235-4.255a6.068,6.068,0,0,0-.851-2.34c-1.424-2.274-14.73-12.892-33.4-26.795h0a23.484,23.484,0,0,0-6.646-4.949c-1.467-.869-1.082-.854-5.252-4.155-6.494-5.14-6.821-4.694-10.628-7.863a79.695,79.695,0,0,1-9.908-10.025s-2.854-3.332-5.331-6.8C17.75,79.462-.534,40.488,7.669,34.212Z"/><ellipse class="cls-15" cx="101.938" cy="274.759" rx="4.72" ry="7.585" transform="translate(-174.089 373.212) rotate(-89.275)"/><ellipse class="cls-16" cx="187.52" cy="274.798" rx="4.72" ry="7.585" transform="translate(-89.628 458.825) rotate(-89.275)"/><path class="cls-17" d="M26.159,49.964c7.762-6.434,56.585,38.477,87.816,90.759,4.186,7.009,9.836,22.755,9.836,22.755s-11.287-12-33.991-28.192c-27.629-19.7-36.879-23.325-46.586-37.458C34.069,84.485,21.212,54.064,26.159,49.964Z"/><path class="cls-18" d="M165.5,172.7a456.1,456.1,0,0,1,17.379-79.78c4.452-14.186,19.284-61.45,27.638-59.975,6.316,1.114,11.924,29.469,3.544,53.864-7.045,20.511-19.709,25.784-21.822,46.094-.485,4.668-.608,12-5.894,17.606-4.141,4.388-8.348,4.425-13.464,9.5A29.823,29.823,0,0,0,165.5,172.7Z"/><path class="cls-19" d="M19.934,484.752a8.823,8.823,0,0,1,1.6-7.708"/><path class="cls-20" d="M29.5,485.347a9.055,9.055,0,0,1,.688-8.194"/><path class="cls-21" d="M281.506,486.479a8.83,8.83,0,0,0-1.4-7.746"/><path class="cls-22" d="M271.923,486.832a9.05,9.05,0,0,0-.48-8.209"/><path class="cls-23" d="M104.113,258.859c.344-1,2.91-1.355,4.675-.385,1.019.56,2.145,1.767,1.858,2.581-.343.974-2.673,1.269-4.343.5C105.09,261,103.825,259.7,104.113,258.859Z"/><path class="cls-23" d="M187.76,258.854c.344-1,2.911-1.355,4.675-.385,1.019.56,2.145,1.767,1.858,2.581-.343.974-2.673,1.269-4.343.5C188.737,260.993,187.472,259.691,187.76,258.854Z"/></g></g></g></svg>