<svg xmlns="http://www.w3.org/2000/svg" viewBox="0 0 3840 7200"><defs><style>.cls-1{fill:blue;}</style></defs><g id="Layer_4" data-name="Layer 4"><rect class="cls-1" x="2130.085" y="420.681" width="931" height="16"/><rect class="cls-1" x="-0.064" y="1604.915" width="2669.447" height="18.106"/><rect class="cls-1" x="0.702" y="2650.404" width="3380" height="24"/><rect class="cls-1" x="4.277" y="4308.447" width="3380" height="24"/><rect class="cls-1" x="464.106" y="4906.66" width="3380" height="24"/><rect class="cls-1" x="2916.149" y="3167.596" width="925.106" height="21"/><rect class="cls-1" x="2415" y="938.319" width="1429" height="16"/><path class="cls-1" d="M3044,940.581s-106,1.691-184-42.262V946.5Z"/><rect class="cls-1" x="460.021" y="2118.085" width="3380" height="24"/><path class="cls-1" d="M3150.021,2122.347s-106,1.69-184-42.262v48.179Z"/><rect class="cls-1" x="3.191" y="486.098" width="1900" height="29.583"/><path class="cls-1" d="M1257.191,486.943s106,1.69,184-42.262v48.178Z"/><rect class="cls-1" x="1879.191" y="468.681" width="24" height="24"/><rect class="cls-1" x="896.383" y="1039.064" width="1284" height="16"/><rect class="cls-1" x="2007.383" y="1018.064" width="24" height="24"/><rect class="cls-1" x="1712.447" y="3733.894" width="841.532" height="23.596"/><path class="cls-1" d="M2837.5,3458.483s23.275-15.558,78.344-52.3v48.178Z"/><path class="cls-1" d="M2759.159,3510.255s23.275-15.558,78.345-52.3v48.178Z"/><path class="cls-1" d="M2681.749,3561.857s23.275-15.558,78.345-52.3v48.178Z"/><path class="cls-1" d="M2604.132,3614.162s23.275-15.559,78.345-52.3v48.179Z"/><path class="cls-1" d="M2525.788,3666.466s23.275-15.558,78.344-52.3v48.178Z"/><polygon class="cls-1" points="1675.83 3705.626 1675.83 3733.84 1733.658 3733.84 1675.83 3705.626"/><polygon class="cls-1" points="1618.595 3676.781 1618.595 3705.626 1676.423 3705.626 1618.595 3676.781"/><polygon class="cls-1" points="1560.766 3647.936 1560.766 3676.781 1618.595 3676.781 1560.766 3647.936"/><polygon class="cls-1" points="1503.124 3619.171 1503.124 3648.016 1560.953 3648.016 1503.124 3619.171"/><polygon class="cls-1" points="1477.15 3606.215 1477.15 3619.171 1503.124 3619.171 1477.15 3606.215"/></g></svg>