<svg xmlns="http://www.w3.org/2000/svg" viewBox="0 0 3840 7200"><defs><style>.cls-1{fill:blue;}</style></defs><title>static fixed-09</title><g id="Layer_1" data-name="Layer 1"><rect class="cls-1" x="2126" y="556" width="931" height="16"/><rect class="cls-1" x="-5" y="1849" width="3360" height="16"/><rect class="cls-1" x="459" y="4011" width="3380" height="24"/><rect class="cls-1" x="2534" y="3271" width="845" height="21"/><rect class="cls-1" x="2411" y="1199" width="1429" height="16"/><path class="cls-1" d="M3040,1201.262s-106,1.69-184-42.262v48.179Z"/><rect class="cls-1" x="459" y="2450" width="3380" height="24"/><path class="cls-1" d="M3149,2454.262s-106,1.69-184-42.262v48.179Z"/><rect class="cls-1" y="621.417" width="1900" height="29.583"/><path class="cls-1" d="M1254,622.262s106,1.69,184-42.262v48.179Z"/><rect class="cls-1" x="1876" y="604" width="24" height="24"/><rect class="cls-1" x="894" y="1300" width="1284" height="16"/><rect class="cls-1" x="2005" y="1279" width="24" height="24"/><rect class="cls-1" x="54" y="3044" width="2586" height="20"/></g></svg>