<svg xmlns="http://www.w3.org/2000/svg" viewBox="0 0 3840 7200"><defs><style>.cls-1{fill:blue;}</style></defs><g id="Layer_4" data-name="Layer 4"><rect class="cls-1" x="2130.085" y="420.681" width="931" height="16"/><rect class="cls-1" x="-0.064" y="1604.915" width="3067.798" height="18.106"/><rect class="cls-1" x="2357.075" y="2650.404" width="1023.627" height="24"/><rect class="cls-1" x="4.277" y="4308.447" width="3380" height="24"/><rect class="cls-1" x="464.106" y="4906.66" width="3380" height="24"/><rect class="cls-1" x="2916.149" y="3167.596" width="925.106" height="21"/><rect class="cls-1" x="2415" y="938.319" width="1429" height="16"/><path class="cls-1" d="M3044,940.581s-106,1.691-184-42.262V946.5Z"/><rect class="cls-1" x="460.021" y="2118.085" width="3380" height="24"/><path class="cls-1" d="M3150.021,2122.347s-106,1.69-184-42.262v48.179Z"/><rect class="cls-1" x="3.191" y="486.098" width="1900" height="29.583"/><path class="cls-1" d="M1257.191,486.943s106,1.69,184-42.262v48.178Z"/><rect class="cls-1" x="1879.191" y="468.681" width="24" height="24"/><rect class="cls-1" x="896.383" y="1039.064" width="1284" height="16"/><rect class="cls-1" x="2007.383" y="1018.064" width="24" height="24"/><path class="cls-1" d="M2728.692,3458.22s23.275-15.558,78.344-52.3v48.178Z"/><path class="cls-1" d="M2650.347,3509.992s23.275-15.558,78.345-52.3v48.178Z"/><path class="cls-1" d="M2573.646,3560.885s23.275-15.559,78.345-52.305v48.179Z"/><path class="cls-1" d="M2496.029,3613.189s23.275-15.558,78.345-52.3v48.178Z"/><path class="cls-1" d="M2417.685,3665.494s23.275-15.559,78.344-52.305v48.179Z"/><rect class="cls-1" x="2012.191" y="3733.894" width="449.362" height="23.596"/><path class="cls-1" d="M1917.533,3649.011s-26.737-13.282-89.989-44.639l6.568,50.955Z"/><path class="cls-1" d="M2006.752,3693.748s-26.737-13.282-89.988-44.638l6.567,50.955Z"/><path class="cls-1" d="M2096.741,3738.387s-26.737-13.282-89.989-44.639l6.568,50.955Z"/><path class="cls-1" d="M1565.309,3520.422s-26.737-13.282-89.989-44.638l6.568,50.954Z"/><path class="cls-1" d="M1654.528,3565.16s-26.737-13.282-89.989-44.639l6.568,50.955Z"/><path class="cls-1" d="M1744.517,3609.8s-26.737-13.282-89.989-44.638l6.568,50.954Z"/><rect class="cls-1" x="1661.518" y="3604.316" width="166.027" height="23.596"/><path class="cls-1" d="M3769.542,692.745s20-19.592,67.33-65.881l8.9,47.349Z"/><path class="cls-1" d="M3703.566,756.934s20-19.591,67.33-65.881l8.9,47.349Z"/><path class="cls-1" d="M3636.951,822.681s20-19.592,67.33-65.881l8.9,47.349Z"/><rect class="cls-1" x="66.089" y="2442.69" width="2290.987" height="15.966"/><path class="cls-1" d="M245.8,2457.8s84.621.912,146.889-22.806v26Z"/><path class="cls-1" d="M504.31,2457.344s84.621.912,146.889-22.806v26Z"/><path class="cls-1" d="M753.4,2456.366s84.621.912,146.889-22.806v26Z"/><path class="cls-1" d="M1022.092,2455.045s84.62.912,146.888-22.806v26Z"/><path class="cls-1" d="M1278.485,2456.346s84.621.912,146.889-22.806v26Z"/><path class="cls-1" d="M1568.291,2458.534s84.62.912,146.889-22.806v26Z"/><path class="cls-1" d="M1812.476,2456.447s84.621.911,146.889-22.807v26Z"/><path class="cls-1" d="M873.809,1604.391s106,1.69,184-42.262v48.178Z"/></g></svg>