<svg xmlns="http://www.w3.org/2000/svg" viewBox="0 0 3840 7200"><defs><style>.cls-1{fill:blue;}</style></defs><g id="Layer_1" data-name="Layer 1"><rect class="cls-1" x="2126" y="556" width="931" height="16"/><rect class="cls-1" x="-5" y="1849" width="3360" height="16"/><rect class="cls-1" x="459" y="4011" width="3380" height="24"/><rect class="cls-1" x="2534" y="3271" width="845" height="21"/><rect class="cls-1" x="2411" y="1199" width="1429" height="16"/><path class="cls-1" d="M3040,1201.262s-106,1.69-184-42.262v48.179Z"/><rect class="cls-1" x="459" y="2450" width="3380" height="24"/><path class="cls-1" d="M3149,2454.262s-106,1.69-184-42.262v48.179Z"/><rect class="cls-1" y="621.417" width="1900" height="29.583"/><path class="cls-1" d="M1254,622.262s106,1.69,184-42.262v48.179Z"/><rect class="cls-1" x="1876" y="604" width="24" height="24"/><rect class="cls-1" x="894" y="1300" width="1284" height="16"/><rect class="cls-1" x="2005" y="1279" width="24" height="24"/><rect class="cls-1" x="54" y="3056.543" width="2586" height="20"/><path class="cls-1" d="M258,3069.673s106,1.69,184-42.262v48.178Z"/><path class="cls-1" d="M565,3073.673s106,1.69,184-42.262v48.178Z"/><path class="cls-1" d="M859,3069.673s106,1.69,184-42.262v48.178Z"/><path class="cls-1" d="M1163,3074.673s106,1.69,184-42.262v48.178Z"/><path class="cls-1" d="M1465,3069.673s106,1.69,184-42.262v48.178Z"/><path class="cls-1" d="M1774,3074.673s106,1.69,184-42.262v48.178Z"/><path class="cls-1" d="M2072,3074.673s106,1.69,184-42.262v48.178Z"/></g><g id="Layer_4" data-name="Layer 4"><rect class="cls-1" x="2126" y="556" width="931" height="16"/><rect class="cls-1" x="-5" y="1849" width="3360" height="16"/><rect class="cls-1" x="459" y="4011" width="3380" height="24"/><rect class="cls-1" x="2534" y="3271" width="845" height="21"/><rect class="cls-1" x="2411" y="1199" width="1429" height="16"/><path class="cls-1" d="M3040,1201.262s-106,1.69-184-42.262v48.179Z"/><rect class="cls-1" x="459" y="2450" width="3380" height="24"/><path class="cls-1" d="M3149,2454.262s-106,1.69-184-42.262v48.179Z"/><rect class="cls-1" y="621.417" width="1900" height="29.583"/><path class="cls-1" d="M1254,622.262s106,1.69,184-42.262v48.179Z"/><rect class="cls-1" x="1876" y="604" width="24" height="24"/><rect class="cls-1" x="894" y="1300" width="1284" height="16"/><rect class="cls-1" x="2005" y="1279" width="24" height="24"/><rect class="cls-1" x="54" y="3056.543" width="2586" height="20"/><path class="cls-1" d="M258,3069.673s106,1.69,184-42.262v48.178Z"/><path class="cls-1" d="M565,3073.673s106,1.69,184-42.262v48.178Z"/><path class="cls-1" d="M859,3069.673s106,1.69,184-42.262v48.178Z"/><path class="cls-1" d="M1163,3074.673s106,1.69,184-42.262v48.178Z"/><path class="cls-1" d="M1465,3069.673s106,1.69,184-42.262v48.178Z"/><path class="cls-1" d="M1774,3074.673s106,1.69,184-42.262v48.178Z"/><path class="cls-1" d="M2072,3074.673s106,1.69,184-42.262v48.178Z"/><rect class="cls-1" x="3219.255" y="5368.267" width="295.345" height="26.332"/><rect class="cls-1" x="3501.138" y="4971.767" width="353.38" height="6.071" transform="translate(9196.683 7770.748) rotate(153.343)"/><rect class="cls-1" y="4696.549" width="3309.979" height="27.498"/><rect class="cls-1" x="3083.655" y="4697.715" width="295.345" height="26.332"/><rect class="cls-1" x="32.828" y="4337.807" width="158.77" height="26.833" transform="translate(3824.377 2078.432) rotate(60)"/><rect class="cls-1" x="-5.133" y="4286.872" width="94.587" height="20.383" transform="translate(-1128.961 162.453) rotate(-15.253)"/><rect class="cls-1" x="85.298" y="4464.98" width="133.203" height="25.969" transform="translate(4629.864 4326.066) rotate(90)"/><rect class="cls-1" x="161.356" y="4545.218" width="74.324" height="20.633" transform="translate(397.037 9111.069) rotate(180)"/><rect class="cls-1" x="541.733" y="4389.412" width="181.187" height="7.055" transform="translate(1264.653 8785.879) rotate(180)"/><rect class="cls-1" x="737.614" y="4389.716" width="150.218" height="7.055" transform="translate(1625.445 8786.487) rotate(180)"/><rect class="cls-1" x="894.805" y="4544.516" width="323.599" height="7.055" transform="translate(2113.209 9096.087) rotate(180)"/><rect class="cls-1" x="1694.748" y="4544.306" width="57.018" height="7.855" transform="translate(3446.514 9096.466) rotate(180)"/><rect class="cls-1" x="216.76" y="4466.077" width="347.858" height="20.831" transform="translate(2748.24 8301.88) rotate(153.343)"/><rect class="cls-1" x="1140.647" y="4618.229" width="150.076" height="6.565" transform="translate(-3405.826 5837.196) rotate(-90)"/><rect class="cls-1" x="1367.435" y="4622.445" width="347.858" height="7.939" transform="translate(4994.543 8069.534) rotate(153.343)"/><rect class="cls-1" x="1730.091" y="4466.34" width="353.38" height="6.071" transform="translate(5616.079 7608.203) rotate(153.343)"/><rect class="cls-1" x="2071.162" y="4390.1" width="147.92" height="7.855" transform="translate(4290.244 8788.056) rotate(-180)"/><rect class="cls-1" x="2226.992" y="4390.68" width="157.966" height="7.161" transform="translate(4611.949 8788.52) rotate(180)"/><rect class="cls-1" x="2392.067" y="4391.731" width="166.683" height="6.11" transform="translate(4950.818 8789.571) rotate(-180)"/><rect class="cls-1" x="2840.32" y="4544.169" width="242.34" height="6.05" transform="translate(5922.979 9094.389) rotate(-180)"/><rect class="cls-1" x="2540.561" y="4462.447" width="317.958" height="5.991" transform="translate(3108.704 9667.393) rotate(-153.343)"/></g></svg>