<svg xmlns="http://www.w3.org/2000/svg" viewBox="0 0 3840 7605.66"><defs><style>.cls-1{fill:blue;}</style></defs><g id="Layer_4" data-name="Layer 4"><rect class="cls-1" x="2130.085" y="420.681" width="931" height="16"/><rect class="cls-1" x="2357.075" y="2650.404" width="1023.627" height="24"/><rect class="cls-1" x="4.277" y="4308.447" width="3380" height="24"/><rect class="cls-1" x="-1.511" y="5456.122" width="3380" height="24"/><rect class="cls-1" x="460" y="6045.654" width="3380" height="24"/><rect class="cls-1" x="2916.149" y="3167.596" width="925.106" height="21"/><rect class="cls-1" x="3661.909" y="2702.3" width="24.046" height="21"/><rect class="cls-1" x="3671.933" y="2699.989" width="11.945" height="3.48"/><rect class="cls-1" x="2415" y="938.319" width="1429" height="16"/><path class="cls-1" d="M3044,940.581s-106,1.691-184-42.262V946.5Z"/><rect class="cls-1" x="3.191" y="486.098" width="1900" height="29.583"/><path class="cls-1" d="M1257.191,486.943s106,1.69,184-42.262v48.178Z"/><rect class="cls-1" x="1879.191" y="468.681" width="24" height="24"/><rect class="cls-1" x="896.383" y="1039.064" width="1284" height="16"/><rect class="cls-1" x="2007.383" y="1018.064" width="24" height="24"/><rect class="cls-1" x="66.089" y="2454.284" width="2290.987" height="15.966"/><path class="cls-1" d="M265.748,2454.3s84.621,1.273,146.889-31.82v36.274Z"/><path class="cls-1" d="M525.47,2456.033s84.62,1.289,146.888-32.244v36.757Z"/><path class="cls-1" d="M794.225,2454.436s84.621,1.137,146.889-28.451v32.433Z"/><path class="cls-1" d="M1060.85,2455.285s84.621,1.218,146.889-30.472v34.737Z"/><path class="cls-1" d="M1329.014,2453.607s84.621,1.236,146.889-30.926v35.255Z"/><path class="cls-1" d="M1594.063,2455.48s84.621,1.236,146.889-30.926v35.255Z"/><path class="cls-1" d="M1865.38,2454.123s84.62,1.3,146.889-32.4v36.934Z"/><path class="cls-1" d="M866.728,1605.654s110.236,2.052,191.353-51.3v58.487Z"/><rect class="cls-1" x="-0.974" y="1604.661" width="3229.239" height="18.106"/><rect class="cls-1" x="1953.197" y="1656.462" width="424.074" height="18.106"/><path class="cls-1" d="M3045.482,1604.343s106,2.21,184-55.246v62.98Z"/><rect class="cls-1" x="460.021" y="2118.085" width="3380" height="24"/><path class="cls-1" d="M2589.9,2046.864s-23.278-12.229-78.347-41.1l4.767,45Z"/><path class="cls-1" d="M2667.567,2088.036s-23.277-12.228-78.346-41.1l4.766,45Z"/><path class="cls-1" d="M2745.914,2129.137s-23.277-12.229-78.347-41.1l4.767,45Z"/><path class="cls-1" d="M2433.685,1969.729s-23.85-11.07-80.272-37.2l6.972,44.709Z"/><path class="cls-1" d="M2513.957,2006.929s-23.85-11.07-80.272-37.2l6.972,44.709Z"/><path class="cls-1" d="M2279.481,1896.425s-23.615-11.564-79.48-38.864l6.04,44.845Z"/><path class="cls-1" d="M2206.914,1861.086s-17.912-7.912-60.285-26.585l5.811,33.193Z"/><path class="cls-1" d="M2358.961,1935.288s-23.614-11.564-79.48-38.863l6.04,44.844Z"/><rect class="cls-1" x="2042.692" y="1835.551" width="105.166" height="24"/><rect class="cls-1" x="1843.294" y="1931.055" width="204.873" height="24"/><rect class="cls-1" x="1489.133" y="2025.37" width="358.243" height="24"/><path class="cls-1" d="M1446.455,2102.919s12.863-22.933,43.324-77.14l20.509,40.335Z"/><rect class="cls-1" x="2102.467" y="3166.845" width="230.855" height="23.596"/><rect class="cls-1" x="2077.65" y="2953.788" width="412.789" height="23.596" transform="translate(5249.63 681.542) rotate(90)"/><rect class="cls-1" x="2275.061" y="3192.656" width="66.008" height="23.596" transform="translate(5512.518 896.389) rotate(90)"/><path class="cls-1" d="M2728.692,3458.22s23.275-15.558,78.344-52.3v48.178Z"/><path class="cls-1" d="M2803.234,3408.309s23.275-15.559,78.344-52.305v48.179Z"/><path class="cls-1" d="M2878.012,3358.509s23.275-15.558,78.344-52.3v48.178Z"/><path class="cls-1" d="M2650.347,3509.992s23.275-15.558,78.345-52.3v48.178Z"/><path class="cls-1" d="M2573.646,3560.885s23.275-15.559,78.345-52.305v48.179Z"/><path class="cls-1" d="M2496.029,3613.189s23.275-15.558,78.345-52.3v48.178Z"/><path class="cls-1" d="M2417.685,3665.494s23.275-15.559,78.344-52.305v48.179Z"/><rect class="cls-1" x="2211.222" y="3733.894" width="250.331" height="23.596"/><path class="cls-1" d="M2077.009,3648.833s-26.737-13.282-89.989-44.639l6.568,50.955Z"/><path class="cls-1" d="M2166.228,3693.57s-26.737-13.282-89.989-44.638l6.568,50.955Z"/><path class="cls-1" d="M2256.217,3738.209s-26.737-13.282-89.989-44.639l6.568,50.955Z"/><path class="cls-1" d="M1803.69,3519.164s-26.737-13.282-89.989-44.639l6.568,50.955Z"/><path class="cls-1" d="M1892.909,3563.9s-26.737-13.282-89.989-44.638l6.568,50.954Z"/><path class="cls-1" d="M1982.9,3608.54s-26.737-13.282-89.989-44.639l6.568,50.955Z"/><rect class="cls-1" x="1823.39" y="3604.316" width="166.027" height="23.596"/><rect class="cls-1" x="1419.455" y="3473.945" width="295.002" height="23.596"/><rect class="cls-1" x="460.362" y="3733.941" width="490.723" height="23.596"/><rect class="cls-1" x="1026.754" y="3599.796" width="123.861" height="23.596"/><rect class="cls-1" x="1382.107" y="3601.564" width="37.348" height="23.596"/><path class="cls-1" d="M1307.436,3560.161s25.059,12.484,84.291,42.055l-41.826,23.911Z"/><path class="cls-1" d="M1223.507,3518.736s25.058,12.485,84.29,42.056l-41.826,23.911Z"/><path class="cls-1" d="M1140.776,3477.393s25.058,12.484,84.29,42.055l-41.826,23.912Z"/><path class="cls-1" d="M980.767,3681.894s13.821-24.347,46.551-81.894l21.615,43.058Z"/><rect class="cls-1" x="3779.555" y="4571.205" width="55.206" height="23.596"/><rect class="cls-1" x="3301.42" y="4573.937" width="55.206" height="23.596"/><rect class="cls-1" x="3656.761" y="4611.866" width="122.794" height="23.596"/><rect class="cls-1" x="3350.451" y="4588.121" width="293.849" height="23.596"/><path class="cls-1" d="M3670.784,4622.817s-7.885-10.365-26.551-34.861l-7.289,21.194Z"/><rect class="cls-1" x="290.319" y="6595.101" width="3092.548" height="24"/><path class="cls-1" d="M1034.064,6342.085c-120.69,6.459-270.253,1.069-444.255,7.149-132.918,4.645-230.416,12.07-260.426-45.191-12.949-24.709-13.4-57.4-6.128-140.33,3.365-38.375,15.133-75.422,18.969-97.835,12.256-3.631,20.861-8.843,33.116-12.474-10.766,27.456-34.762,75.969-39.479,129.9-5.2,59.5-8.131,92.975,10.118,119.2,17.789,25.566,51.476,38.176,243.974,35.762,89.593-1.123,156.623-4.787,218.664-7.167,94.6-3.628,171.419-4.033,220.851-3.83Z"/><path class="cls-1" d="M34.489,6495.609a231.623,231.623,0,0,1-27.032-36.252h0c-9.23-11.807-16.362-23.326-14.444-34.533,12.256-3.631,9.914-5.167,22.17-8.8,15.528,45.618,38.362,73.112,54.54,88.81,48.743,47.3,112.5,60.717,200.341,79.208,26.185,5.512,48.188,8.942,63.544,11.058H224.454c-43.067-16.081-78.776-31.96-106.1-45.024C118.354,6550.077,58.681,6521.546,34.489,6495.609Z"/><path class="cls-1" d="M2870.778,3236.642s23.275-15.559,78.344-52.3v48.179Z"/><rect class="cls-1" x="3567.959" y="832.862" width="108.992" height="18.35"/><path class="cls-1" d="M3751.173,791.179s26.665-17.825,89.758-59.924v55.2Z"/><path class="cls-1" d="M3673.211,843.264s26.666-17.825,89.758-59.924v55.2Z"/><path class="cls-1" d="M3520.039,2848.755s14.527-15.12,48.91-50.844l7.737,35.243Z"/><path class="cls-1" d="M3566.551,2800.272s14.527-15.119,48.91-50.843l7.738,35.243Z"/><path class="cls-1" d="M3613.254,2751.834s14.527-15.119,48.91-50.844l7.737,35.243Z"/><path class="cls-1" d="M3723.065,2734.431s-12.082-9.76-40.674-32.816l-2.408,26.62Z"/><path class="cls-1" d="M3763.338,2767.21s-12.082-9.76-40.674-32.816l-2.408,26.621Z"/><path class="cls-1" d="M3804.013,2800.026s-12.083-9.76-40.675-32.816l-2.407,26.621Z"/><rect class="cls-1" x="1740.021" y="4906.995" width="2101.739" height="24"/><path class="cls-1" d="M1463.678,4736.365s-26.737-13.282-89.989-44.639l6.568,50.955Z"/><path class="cls-1" d="M1553.666,4781s-26.737-13.282-89.988-44.638l6.567,50.954Z"/><path class="cls-1" d="M1634.227,4821.239s-26.737-13.282-89.989-44.639l6.568,50.955Z"/><path class="cls-1" d="M1723.446,4865.976s-26.737-13.282-89.989-44.638l6.568,50.955Z"/><path class="cls-1" d="M1813.435,4910.615s-26.737-13.282-89.989-44.639l6.568,50.955Z"/><rect class="cls-1" x="1140.673" y="4691.726" width="233.414" height="24"/><rect class="cls-1" x="1141.936" y="4670.512" width="21.473" height="24" transform="translate(-3529.839 5835.185) rotate(-90)"/><rect class="cls-1" x="2572.439" y="7582.856" width="676.111" height="24"/><path class="cls-1" d="M3610.5,6874.425s23.751-14.821,79.944-49.824l-1.509,48.155Z"/><path class="cls-1" d="M3686.567,6826.874s23.751-14.822,79.944-49.824L3765,6825.2Z"/><path class="cls-1" d="M3762.868,6779.442s23.751-14.822,79.945-49.825l-1.509,48.155Z"/><path class="cls-1" d="M3530.57,6923.718s23.751-14.822,79.945-49.825l-1.51,48.155Z"/><path class="cls-1" d="M3452.312,6972.182s23.751-14.821,79.945-49.824l-1.51,48.155Z"/><path class="cls-1" d="M3373.1,7022.029s23.751-14.821,79.944-49.824l-1.509,48.155Z"/><path class="cls-1" d="M3293.15,7071.854s23.751-14.822,79.945-49.825l-1.51,48.155Z"/><path class="cls-1" d="M3354.788,7346.905s12.034-25.278,40.54-85.031l24.656,41.391Z"/><path class="cls-1" d="M3393.286,7265.876s12.033-25.278,40.539-85.03l24.656,41.391Z"/><path class="cls-1" d="M3432.043,7184.823s12.033-25.278,40.539-85.031l24.657,41.392Z"/><path class="cls-1" d="M3313.977,7431.478s12.033-25.278,40.539-85.031l24.656,41.391Z"/><path class="cls-1" d="M3274.127,7514.454s12.033-25.278,40.539-85.031l24.657,41.392Z"/><path class="cls-1" d="M3234.213,7599.112s12.033-25.278,40.539-85.03l24.656,41.391Z"/><path class="cls-1" d="M2511.4,7336.962s-7.107-27.079-23.967-91.1l-31.944,36.066Z"/><path class="cls-1" d="M2535.721,7427.663s-7.107-27.079-23.968-91.1l-31.944,36.066Z"/><path class="cls-1" d="M2559.394,7516.616s-7.107-27.079-23.967-91.1l-31.945,36.066Z"/><path class="cls-1" d="M2582.817,7607.234s-7.107-27.079-23.967-91.1l-31.945,36.066Z"/><path class="cls-1" d="M2483.233,7271.089s9.162-26.455,30.774-89.031l-46.61,12.193Z"/><path class="cls-1" d="M2512.486,7186.142s9.161-26.455,30.773-89.032l-46.61,12.194Z"/><path class="cls-1" d="M2539.312,7106.221s15.559-23.275,52.305-78.345h-48.179Z"/><path class="cls-1" d="M2589.112,7031.443s15.558-23.275,52.3-78.345h-48.179Z"/><path class="cls-1" d="M2639.487,6953.113s22.833-16.2,76.8-54.553l-45.014-17.174Z"/><path class="cls-1" d="M2712.671,6901s22.833-16.2,76.8-54.553l-45.014-17.174Z"/></g></svg>