<svg xmlns="http://www.w3.org/2000/svg" viewBox="0 0 3840 7777.234"><defs><style>.cls-1{fill:blue;}</style></defs><g id="Layer_4" data-name="Layer 4"><rect class="cls-1" x="2130.085" y="420.681" width="931" height="16"/><rect class="cls-1" x="2357.075" y="2650.404" width="1023.627" height="24"/><rect class="cls-1" x="4.277" y="4308.447" width="3380" height="24"/><rect class="cls-1" x="-0.319" y="5601.995" width="3380" height="24"/><rect class="cls-1" x="460.255" y="6191.952" width="3380" height="24"/><rect class="cls-1" x="2916.149" y="3167.596" width="925.106" height="21"/><rect class="cls-1" x="3661.909" y="2702.3" width="24.046" height="21"/><rect class="cls-1" x="3671.933" y="2699.989" width="11.945" height="3.48"/><rect class="cls-1" x="2415" y="938.319" width="1429" height="16"/><path class="cls-1" d="M3044,940.581s-106,1.691-184-42.262V946.5Z"/><rect class="cls-1" x="3.191" y="486.098" width="1900" height="29.583"/><path class="cls-1" d="M1257.191,486.943s106,1.69,184-42.262v48.178Z"/><rect class="cls-1" x="1879.191" y="468.681" width="24" height="24"/><rect class="cls-1" x="896.383" y="1039.064" width="1284" height="16"/><rect class="cls-1" x="2007.383" y="1018.064" width="24" height="24"/><rect class="cls-1" x="66.089" y="2454.284" width="2290.987" height="15.966"/><path class="cls-1" d="M265.748,2454.3s84.621,1.273,146.889-31.82v36.274Z"/><path class="cls-1" d="M525.47,2456.033s84.62,1.289,146.888-32.244v36.757Z"/><path class="cls-1" d="M794.225,2454.436s84.621,1.137,146.889-28.451v32.433Z"/><path class="cls-1" d="M1060.85,2455.285s84.621,1.218,146.889-30.472v34.737Z"/><path class="cls-1" d="M1329.014,2453.607s84.621,1.236,146.889-30.926v35.255Z"/><path class="cls-1" d="M1594.063,2455.48s84.621,1.236,146.889-30.926v35.255Z"/><path class="cls-1" d="M1865.38,2454.123s84.62,1.3,146.889-32.4v36.934Z"/><path class="cls-1" d="M795.3,1610.553s110.257-.58,189.882-60.345l1.607,63.253Z"/><rect class="cls-1" x="-0.974" y="1604.661" width="3229.239" height="18.106"/><rect class="cls-1" x="1834.489" y="1656.462" width="542.781" height="18.106"/><path class="cls-1" d="M3045.482,1604.343s106,2.21,184-55.246v62.98Z"/><rect class="cls-1" x="460.021" y="2118.085" width="3380" height="24"/><path class="cls-1" d="M2589.9,2046.864s-23.278-12.229-78.347-41.1l4.767,45Z"/><path class="cls-1" d="M2667.567,2088.036s-23.277-12.228-78.346-41.1l4.766,45Z"/><path class="cls-1" d="M2745.914,2129.137s-23.277-12.229-78.347-41.1l4.767,45Z"/><path class="cls-1" d="M2433.685,1969.729s-23.85-11.07-80.272-37.2l6.972,44.709Z"/><path class="cls-1" d="M2513.957,2006.929s-23.85-11.07-80.272-37.2l6.972,44.709Z"/><path class="cls-1" d="M2279.481,1896.425s-23.615-11.564-79.48-38.864l6.04,44.845Z"/><path class="cls-1" d="M2206.914,1861.086s-17.912-7.912-60.285-26.585l5.811,33.193Z"/><path class="cls-1" d="M2358.961,1935.288s-23.614-11.564-79.48-38.863l6.04,44.844Z"/><rect class="cls-1" x="1990.745" y="1835.551" width="157.114" height="24"/><rect class="cls-1" x="1791.596" y="1931.055" width="151.66" height="24"/><rect class="cls-1" x="1489.133" y="2025.37" width="251.91" height="24"/><path class="cls-1" d="M1435.372,2122.653s16.153-28.8,54.407-96.874l25.756,50.653Z"/><path class="cls-1" d="M1737.6,2029.026s16.251-28.974,54.736-97.459l25.912,50.959Z"/><path class="cls-1" d="M1936.745,1935.579s16.251-28.974,54.736-97.459l25.912,50.959Z"/><path class="cls-1" d="M2728.692,3458.22s23.275-15.558,78.344-52.3v48.178Z"/><path class="cls-1" d="M2803.234,3408.309s23.275-15.559,78.344-52.305v48.179Z"/><path class="cls-1" d="M2878.012,3358.509s23.275-15.558,78.344-52.3v48.178Z"/><path class="cls-1" d="M2650.347,3509.992s23.275-15.558,78.345-52.3v48.178Z"/><path class="cls-1" d="M2573.646,3560.885s23.275-15.559,78.345-52.305v48.179Z"/><path class="cls-1" d="M2496.029,3613.189s23.275-15.558,78.345-52.3v48.178Z"/><path class="cls-1" d="M2417.685,3665.494s23.275-15.559,78.344-52.305v48.179Z"/><rect class="cls-1" x="2211.222" y="3733.894" width="250.331" height="23.596"/><path class="cls-1" d="M2077.009,3648.833s-26.737-13.282-89.989-44.639l6.568,50.955Z"/><path class="cls-1" d="M2166.228,3693.57s-26.737-13.282-89.989-44.638l6.568,50.955Z"/><path class="cls-1" d="M2256.217,3738.209s-26.737-13.282-89.989-44.639l6.568,50.955Z"/><path class="cls-1" d="M1803.69,3519.164s-26.737-13.282-89.989-44.639l6.568,50.955Z"/><path class="cls-1" d="M1892.909,3563.9s-26.737-13.282-89.989-44.638l6.568,50.954Z"/><path class="cls-1" d="M1982.9,3608.54s-26.737-13.282-89.989-44.639l6.568,50.955Z"/><rect class="cls-1" x="1823.39" y="3604.316" width="166.027" height="23.596"/><rect class="cls-1" x="1495.17" y="3473.945" width="219.287" height="23.596"/><rect class="cls-1" x="460.362" y="3733.941" width="347.234" height="23.596"/><rect class="cls-1" x="1031.01" y="3481.923" width="80.841" height="23.596"/><rect class="cls-1" x="1349.472" y="3601.524" width="66.804" height="23.596"/><path class="cls-1" d="M1274.8,3560.12s25.058,12.485,84.291,42.056l-41.827,23.911Z"/><path class="cls-1" d="M1190.872,3518.7s25.059,12.484,84.291,42.056l-41.826,23.911Z"/><path class="cls-1" d="M1108.141,3477.352s25.059,12.485,84.291,42.056l-41.826,23.911Z"/><path class="cls-1" d="M985.023,3562.66s13.82-24.347,46.55-81.894l21.616,43.057Z"/><path class="cls-1" d="M953.363,3618.32s13.821-24.347,46.551-81.894l21.615,43.057Z"/><path class="cls-1" d="M800.767,3737.894s13.821-24.347,46.551-81.894l21.615,43.058Z"/><rect class="cls-1" x="876.627" y="3602.859" width="123.861" height="23.596"/><path class="cls-1" d="M830.64,3684.958s13.82-24.347,46.55-81.894l21.616,43.057Z"/><path class="cls-1" d="M1451.065,3558.064s13.821-24.347,46.551-81.894l21.615,43.058Z"/><path class="cls-1" d="M1419.916,3611.171s13.821-24.347,46.551-81.894l21.615,43.057Z"/><rect class="cls-1" x="3779.555" y="4571.205" width="55.206" height="23.596"/><rect class="cls-1" x="3301.42" y="4573.937" width="55.206" height="23.596"/><rect class="cls-1" x="3656.761" y="4611.866" width="122.794" height="23.596"/><rect class="cls-1" x="3350.451" y="4588.121" width="293.849" height="23.596"/><path class="cls-1" d="M3670.784,4622.817s-7.885-10.365-26.551-34.861l-7.289,21.194Z"/><rect class="cls-1" x="290.574" y="6741.399" width="2919.064" height="24"/><path class="cls-1" d="M1034.319,6488.383c-120.69,6.459-270.253,1.069-444.255,7.149-132.917,4.644-230.415,12.07-260.426-45.192-12.949-24.708-13.4-57.4-6.127-140.329,3.364-38.375,15.133-75.422,18.969-97.835,12.255-3.631,20.86-8.843,33.116-12.474-10.767,27.455-34.763,75.969-39.48,129.9-5.2,59.5-8.131,92.975,10.118,119.2,17.789,25.567,51.477,38.177,243.975,35.763,89.592-1.124,156.622-4.787,218.663-7.167,94.6-3.628,171.419-4.033,220.851-3.83Z"/><path class="cls-1" d="M34.745,6641.907a231.623,231.623,0,0,1-27.032-36.252v0c-9.23-11.806-16.362-23.325-14.443-34.532,12.255-3.631,9.913-5.167,22.169-8.8,15.528,45.618,38.363,73.111,54.541,88.81,48.742,47.3,112.5,60.717,200.34,79.207,26.186,5.512,48.188,8.943,63.545,11.059H224.709c-43.066-16.081-78.776-31.96-106.1-45.024C118.61,6696.375,58.936,6667.843,34.745,6641.907Z"/><path class="cls-1" d="M2870.778,3236.642s23.275-15.559,78.344-52.3v48.179Z"/><rect class="cls-1" x="3610.853" y="845.884" width="108.992" height="18.35"/><path class="cls-1" d="M3794.066,804.2s26.666-17.825,89.758-59.924v55.2Z"/><path class="cls-1" d="M3716.105,856.286s26.665-17.826,89.758-59.925v55.2Z"/><path class="cls-1" d="M3511.334,878.991s30.585-9.661,102.929-32.449l-15.428,53Z"/><path class="cls-1" d="M3421.921,907.211s30.585-9.662,102.93-32.449l-15.428,53Z"/><path class="cls-1" d="M3326.177,937.083s30.585-9.662,102.929-32.449l-15.427,53Z"/><path class="cls-1" d="M3520.039,2848.755s14.527-15.12,48.91-50.844l7.737,35.243Z"/><path class="cls-1" d="M3566.551,2800.272s14.527-15.119,48.91-50.843l7.738,35.243Z"/><path class="cls-1" d="M3613.254,2751.834s14.527-15.119,48.91-50.844l7.737,35.243Z"/><path class="cls-1" d="M3723.065,2734.431s-12.082-9.76-40.674-32.816l-2.408,26.62Z"/><path class="cls-1" d="M3763.338,2767.21s-12.082-9.76-40.674-32.816l-2.408,26.621Z"/><path class="cls-1" d="M3804.013,2800.026s-12.083-9.76-40.675-32.816l-2.407,26.621Z"/><rect class="cls-1" x="1842.915" y="4906.995" width="1998.845" height="24"/><path class="cls-1" d="M1529.039,4735.344s-26.737-13.283-89.988-44.639l6.567,50.955Z"/><path class="cls-1" d="M1205.427,4713.311s9.582-13.5,32.264-45.385l8.721,30.984Z"/><path class="cls-1" d="M1619.028,4779.982s-26.737-13.282-89.989-44.638l6.568,50.954Z"/><path class="cls-1" d="M1699.588,4820.218s-26.737-13.283-89.988-44.639l6.567,50.955Z"/><path class="cls-1" d="M1788.808,4864.955s-26.737-13.282-89.989-44.638l6.568,50.954Z"/><path class="cls-1" d="M1878.8,4909.594s-26.736-13.283-89.988-44.639l6.567,50.955Z"/><rect class="cls-1" x="1206.035" y="4690.705" width="233.414" height="24"/><rect class="cls-1" x="2706.149" y="7652.797" width="488.448" height="24"/><path class="cls-1" d="M3633.141,7038.325s23.751-14.822,79.944-49.825l-1.509,48.155Z"/><path class="cls-1" d="M3709.21,6990.773s23.751-14.822,79.944-49.824l-1.509,48.155Z"/><path class="cls-1" d="M3785.511,6943.341s23.751-14.822,79.945-49.825l-1.509,48.155Z"/><path class="cls-1" d="M3553.213,7087.617s23.751-14.822,79.944-49.825l-1.509,48.155Z"/><path class="cls-1" d="M3474.955,7136.081s23.751-14.821,79.945-49.824l-1.51,48.155Z"/><path class="cls-1" d="M3395.738,7185.929s23.75-14.822,79.944-49.825l-1.509,48.155Z"/><path class="cls-1" d="M3315.793,7235.753s23.751-14.822,79.945-49.824l-1.51,48.155Z"/><path class="cls-1" d="M3269.045,7517.179s15.824-23.1,53.289-77.678l17.908,44.726Z"/><path class="cls-1" d="M3319.694,7443.136s15.824-23.1,53.288-77.678l17.909,44.726Z"/><path class="cls-1" d="M3370.6,7369.109s15.824-23.1,53.288-77.678l17.909,44.726Z"/><path class="cls-1" d="M3215.558,7594.363s15.824-23.1,53.289-77.678l17.909,44.726Z"/><path class="cls-1" d="M3163.271,7670.12s15.824-23.1,53.288-77.679l17.909,44.727Z"/><path class="cls-1" d="M2611.27,7519.376s-16.954-22.278-57.09-74.928l-15.66,45.562Z"/><path class="cls-1" d="M2668.533,7593.8s-16.954-22.278-57.09-74.928l-15.659,45.562Z"/><path class="cls-1" d="M2724.528,7666.861s-16.954-22.279-57.09-74.929l-15.659,45.563Z"/><path class="cls-1" d="M2539.142,7440.9s9.775-26.235,32.837-88.291l-46.881,11.105Z"/><path class="cls-1" d="M2570.364,7356.657s9.774-26.234,32.837-88.291l-46.881,11.106Z"/><path class="cls-1" d="M2599.043,7277.382s16.1-22.906,54.114-77.106l-48.166-1.121Z"/><path class="cls-1" d="M2650.569,7203.783s16.1-22.906,54.114-77.106l-48.165-1.121Z"/><path class="cls-1" d="M2702.754,7126.647s23.2-15.664,78.044-52.751l-44.6-18.217Z"/><path class="cls-1" d="M2777.131,7076.25s23.2-15.664,78.044-52.751l-44.6-18.217Z"/><rect class="cls-1" x="459.34" y="3166.845" width="1873.981" height="23.596"/><rect class="cls-1" x="2275.061" y="3192.656" width="66.008" height="23.596" transform="translate(5512.518 896.389) rotate(90)"/><path class="cls-1" d="M2319.307,2852.428s.311-27.994.992-94.194l-40.349,26.327Z"/><path class="cls-1" d="M2318.761,2946.332s.311-27.995.992-94.195l-40.349,26.328Z"/><path class="cls-1" d="M2318.053,3038.379s.311-27.995.992-94.195l-40.349,26.328Z"/><path class="cls-1" d="M2316.663,3131.964s.312-27.994.993-94.2l-40.349,26.328Z"/><path class="cls-1" d="M2315.671,3226.159s.311-27.995.992-94.2l-40.348,26.328Z"/><path class="cls-1" d="M1982.122,6195.8s-26.737-13.282-89.989-44.638l6.568,50.955Z"/></g></svg>