
<svg id="Layer_1" data-name="Layer 1" xmlns="http://www.w3.org/2000/svg" viewBox="0 0 3840 7200"><defs><style>.cls-1{fill:blue;}</style></defs><title>staticss</title><rect class="cls-1" x="2126" y="556" width="931" height="16"/><rect class="cls-1" x="-5" y="1849" width="3360" height="16"/><rect class="cls-1" x="459" y="4011" width="3380" height="24"/><rect class="cls-1" x="0.447" y="4698.319" width="3380" height="24"/><rect class="cls-1" x="462.064" y="5370.319" width="3380" height="24"/><rect class="cls-1" x="2534" y="3271" width="845" height="21"/><rect class="cls-1" x="2411" y="1199" width="1429" height="16"/><path class="cls-1" d="M3040,1201.262s-106,1.69-184-42.262v48.179Z"/><rect class="cls-1" x="459" y="2450" width="3380" height="24"/><path class="cls-1" d="M2787.386,2454.262s-106,1.69-184-42.262v48.179Z"/><rect class="cls-1" y="621.417" width="1900" height="29.583"/><path class="cls-1" d="M1254,622.262s106,1.69,184-42.262v48.179Z"/><rect class="cls-1" x="1876" y="604" width="24" height="24"/><rect class="cls-1" x="894" y="1300" width="1284" height="16"/><rect class="cls-1" x="2005" y="1279" width="24" height="24"/><rect class="cls-1" x="54" y="3056.543" width="2586" height="20"/><path class="cls-1" d="M258,3073.21s106,1.142,184-28.568v32.567Z"/><path class="cls-1" d="M565,3075.914s106,1.142,184-28.568v32.567Z"/><path class="cls-1" d="M859,3073.21s106,1.142,184-28.568v32.567Z"/><path class="cls-1" d="M1163,3076.59s106,1.142,184-28.568v32.567Z"/><path class="cls-1" d="M1465,3073.21s106,1.142,184-28.568v32.567Z"/><path class="cls-1" d="M1774,3076.59s106,1.142,184-28.568v32.567Z"/><path class="cls-1" d="M2072,3076.59s106,1.142,184-28.568v32.567Z"/></svg>

