<svg id="Layer_1" data-name="Layer 1" xmlns="http://www.w3.org/2000/svg" viewBox="0 0 3840 7200"><defs><style>.cls-1{fill:blue;}</style></defs><title>static</title><rect class="cls-1" x="2130.085" y="420.681" width="931" height="16"/><rect class="cls-1" x="2357.075" y="2650.404" width="1023.627" height="24"/><rect class="cls-1" x="4.277" y="4308.447" width="3380" height="24"/><rect class="cls-1" x="464.106" y="4906.66" width="3380" height="24"/><rect class="cls-1" x="-1.511" y="5456.122" width="3380" height="24"/><rect class="cls-1" x="460" y="6045.654" width="3380" height="24"/><rect class="cls-1" x="2916.149" y="3167.596" width="925.106" height="21"/><rect class="cls-1" x="2415" y="938.319" width="1429" height="16"/><path class="cls-1" d="M3044,940.581s-106,1.691-184-42.262V946.5Z"/><rect class="cls-1" x="3.191" y="486.098" width="1900" height="29.583"/><path class="cls-1" d="M1257.191,486.943s106,1.69,184-42.262v48.178Z"/><rect class="cls-1" x="1879.191" y="468.681" width="24" height="24"/><rect class="cls-1" x="896.383" y="1039.064" width="1284" height="16"/><rect class="cls-1" x="2007.383" y="1018.064" width="24" height="24"/><rect class="cls-1" x="3567.959" y="832.862" width="108.992" height="18.35"/><path class="cls-1" d="M3751.121,790.433s24.173-14.122,81.364-47.471l-2.914,48.09Z"/><path class="cls-1" d="M3671.483,836.6s24.173-14.123,81.364-47.472l-2.913,48.091Z"/><rect class="cls-1" x="66.089" y="2442.69" width="2290.987" height="15.966"/><path class="cls-1" d="M245.8,2457.8s84.621.912,146.889-22.806v26Z"/><path class="cls-1" d="M504.31,2457.344s84.621.912,146.889-22.806v26Z"/><path class="cls-1" d="M753.4,2456.366s84.621.912,146.889-22.806v26Z"/><path class="cls-1" d="M1022.092,2455.045s84.62.912,146.888-22.806v26Z"/><path class="cls-1" d="M1278.485,2456.346s84.621.912,146.889-22.806v26Z"/><path class="cls-1" d="M1568.291,2458.534s84.62.912,146.889-22.806v26Z"/><path class="cls-1" d="M1812.476,2456.447s84.621.911,146.889-22.807v26Z"/><path class="cls-1" d="M873.809,1604.391s106,1.69,184-42.262v48.178Z"/><rect class="cls-1" x="-0.064" y="1604.915" width="3067.798" height="18.106"/><path class="cls-1" d="M2884.951,1604.764s106,1.691,184-42.262v48.179Z"/><rect class="cls-1" x="460.021" y="2118.085" width="3380" height="24"/><path class="cls-1" d="M3150.021,2122.347s-106,1.69-184-42.262v48.179Z"/><path class="cls-1" d="M2589.9,2046.864s-23.278-12.229-78.347-41.1l4.767,45Z"/><path class="cls-1" d="M2667.567,2088.036s-23.277-12.228-78.346-41.1l4.766,45Z"/><path class="cls-1" d="M2745.914,2129.137s-23.277-12.229-78.347-41.1l4.767,45Z"/><path class="cls-1" d="M2433.685,1969.729s-23.85-11.07-80.272-37.2l6.972,44.709Z"/><path class="cls-1" d="M2513.957,2006.929s-23.85-11.07-80.272-37.2l6.972,44.709Z"/><rect class="cls-1" x="2042.597" y="1932.003" width="310.871" height="24"/><rect class="cls-1" x="1990.083" y="2033.39" width="53.332" height="24"/><path class="cls-1" d="M1947.405,2110.939s12.862-22.933,43.324-77.14l20.509,40.335Z"/><rect class="cls-1" x="2255.268" y="3166.792" width="249.728" height="23.596"/><path class="cls-1" d="M2728.692,3458.22s23.275-15.558,78.344-52.3V3454.1Z"/><path class="cls-1" d="M2650.347,3509.992s23.275-15.558,78.345-52.3v48.178Z"/><path class="cls-1" d="M2573.646,3560.885s23.275-15.559,78.345-52.305v48.179Z"/><path class="cls-1" d="M2496.029,3613.189s23.275-15.558,78.345-52.3v48.178Z"/><path class="cls-1" d="M2417.685,3665.494s23.275-15.559,78.344-52.305v48.179Z"/><rect class="cls-1" x="2012.191" y="3733.894" width="449.362" height="23.596"/><path class="cls-1" d="M1917.533,3649.011s-26.737-13.282-89.989-44.639l6.568,50.955Z"/><path class="cls-1" d="M2006.752,3693.748s-26.737-13.282-89.988-44.638l6.567,50.955Z"/><path class="cls-1" d="M2096.741,3738.387s-26.737-13.282-89.989-44.639l6.568,50.955Z"/><path class="cls-1" d="M1565.309,3520.422s-26.737-13.282-89.989-44.638l6.568,50.954Z"/><path class="cls-1" d="M1654.528,3565.16s-26.737-13.282-89.989-44.639l6.568,50.955Z"/><path class="cls-1" d="M1744.517,3609.8s-26.737-13.282-89.989-44.638l6.568,50.954Z"/><rect class="cls-1" x="1661.518" y="3604.316" width="166.027" height="23.596"/><rect class="cls-1" x="1324.021" y="3475.951" width="152.141" height="23.596"/><rect class="cls-1" x="850.489" y="3604.645" width="249.728" height="23.596"/><rect class="cls-1" x="459.115" y="3733.941" width="349.162" height="23.596"/><path class="cls-1" d="M1240.49,3518.225s25.032-12.537,84.252-42.133l-6,47.8Z"/><path class="cls-1" d="M1156.959,3560.448s25.033-12.536,84.253-42.133l-6,47.8Z"/><path class="cls-1" d="M1074.213,3601.761s25.032-12.536,84.252-42.132l-6,47.8Z"/><rect class="cls-1" x="3779.555" y="4571.205" width="55.206" height="23.596"/><rect class="cls-1" x="3301.42" y="4573.937" width="55.206" height="23.596"/><rect class="cls-1" x="3656.761" y="4611.866" width="122.794" height="23.596"/><rect class="cls-1" x="3350.451" y="4588.121" width="293.849" height="23.596"/><path class="cls-1" d="M3670.784,4622.817s-7.885-10.365-26.551-34.861l-7.289,21.194Z"/><rect class="cls-1" x="290.319" y="6595.101" width="3092.548" height="24"/><path class="cls-1" d="M1034.064,6342.085c-120.69,6.459-271.019,13.579-445.021,19.66-132.918,4.644-240.628,7.218-270.639-50.043-12.949-24.708-9.314-66.174-2.042-149.106,3.364-38.375,8.115-70.183,11.951-92.6l36.766-10.894a447.034,447.034,0,0,0-29.218,124.2c-5.2,59.5-8.131,92.975,10.118,119.2,17.789,25.566,51.476,38.176,243.974,35.763,89.593-1.123,156.623-4.787,218.664-7.167,94.6-3.628,171.419-4.034,220.851-3.83Z"/><path class="cls-1" d="M34.489,6495.609a231.634,231.634,0,0,1-27.032-36.252h0c-9.23-11.807-16.362-23.326-14.444-34.533,12.256-3.631,9.914-5.167,22.17-8.8,15.528,45.618,38.362,73.112,54.54,88.81,48.743,47.3,112.5,60.717,200.341,79.208,26.185,5.512,48.188,8.942,63.544,11.058H224.454c-43.067-16.081-78.776-31.96-106.1-45.024C118.354,6550.077,58.681,6521.546,34.489,6495.609Z"/></svg>