<svg xmlns="http://www.w3.org/2000/svg" xmlns:xlink="http://www.w3.org/1999/xlink" viewBox="0 0 364 755"><defs><style>.cls-1{fill:#f9f5ed;}.cls-2,.cls-7{fill:#4d4b63;}.cls-3{fill:url(#linear-gradient);}.cls-4{fill:url(#linear-gradient-2);}.cls-17,.cls-5,.cls-6{fill:none;}.cls-20,.cls-5,.cls-7{stroke:#4d4b63;}.cls-17,.cls-20,.cls-21,.cls-22,.cls-23,.cls-24,.cls-25,.cls-26,.cls-27,.cls-5,.cls-6,.cls-7{stroke-miterlimit:10;}.cls-6{stroke:#d8948e;}.cls-17,.cls-7{stroke-width:0.25px;}.cls-8{fill:url(#linear-gradient-3);}.cls-9{fill:url(#linear-gradient-4);}.cls-10{fill:url(#linear-gradient-5);}.cls-11{fill:#e7d7ce;}.cls-12{fill:url(#linear-gradient-6);}.cls-13{fill:url(#linear-gradient-7);}.cls-14{fill:url(#linear-gradient-8);}.cls-15{fill:url(#linear-gradient-9);}.cls-16{fill:url(#linear-gradient-10);}.cls-17{stroke:#d28d88;}.cls-18{fill:#fff;}.cls-19{fill:#f5d4c6;}.cls-20{stroke-width:0.75px;fill:url(#linear-gradient-11);}.cls-21,.cls-22,.cls-23,.cls-24,.cls-25,.cls-26,.cls-27{stroke:#354421;stroke-width:0.5px;}.cls-21{fill:url(#linear-gradient-12);}.cls-22{fill:url(#linear-gradient-13);}.cls-23{fill:url(#linear-gradient-14);}.cls-24{fill:url(#linear-gradient-15);}.cls-25{fill:url(#linear-gradient-16);}.cls-26{fill:url(#linear-gradient-17);}.cls-27{fill:url(#linear-gradient-18);}.cls-28{fill:url(#linear-gradient-19);}.cls-29{fill:url(#linear-gradient-20);}.cls-30{fill:url(#linear-gradient-21);}.cls-31{fill:url(#linear-gradient-22);}.cls-32{fill:url(#linear-gradient-23);}.cls-33{fill:url(#linear-gradient-24);}.cls-34{fill:url(#linear-gradient-25);}.cls-35{fill:url(#linear-gradient-26);}.cls-36{fill:url(#linear-gradient-27);}.cls-37{fill:url(#linear-gradient-28);}.cls-38{fill:url(#linear-gradient-29);}.cls-39{fill:url(#linear-gradient-30);}.cls-40{fill:url(#linear-gradient-31);}.cls-41{fill:url(#linear-gradient-32);}.cls-42{fill:url(#linear-gradient-33);}.cls-43{fill:url(#linear-gradient-34);}.cls-44{fill:url(#linear-gradient-35);}.cls-45{fill:url(#linear-gradient-36);}.cls-46{fill:url(#linear-gradient-37);}.cls-47{fill:url(#linear-gradient-38);}.cls-48{fill:url(#linear-gradient-39);}.cls-49{fill:url(#linear-gradient-40);}.cls-50{fill:#fddbab;}</style><linearGradient id="linear-gradient" x1="137.203" y1="-1869.98" x2="137.203" y2="-1847.558" gradientTransform="matrix(1, 0, 0, -1, 0, -1613.89)" gradientUnits="userSpaceOnUse"><stop offset="0" stop-color="#4d4b63"/><stop offset="0.81" stop-color="#1f1d35"/><stop offset="0.99" stop-color="#15132b"/></linearGradient><linearGradient id="linear-gradient-2" x1="213.219" y1="-1869.239" x2="213.219" y2="-1846.631" xlink:href="#linear-gradient"/><linearGradient id="linear-gradient-3" x1="79.417" y1="-1895.558" x2="116.442" y2="-1916.964" gradientTransform="matrix(1, 0, 0, -1, 0, -1613.89)" gradientUnits="userSpaceOnUse"><stop offset="0" stop-color="#f9f5ed"/><stop offset="0.06" stop-color="#f6efe7"/><stop offset="0.28" stop-color="#ede2d9"/><stop offset="0.54" stop-color="#e8d9d1"/><stop offset="0.99" stop-color="#e7d7ce"/></linearGradient><linearGradient id="linear-gradient-4" x1="210.547" y1="-1909.346" x2="259.773" y2="-1909.346" xlink:href="#linear-gradient-3"/><linearGradient id="linear-gradient-5" x1="273.7" y1="-1948.187" x2="281.375" y2="-1934.883" gradientTransform="matrix(1, 0, 0, -1, 0, -1613.89)" gradientUnits="userSpaceOnUse"><stop offset="0" stop-color="#f9f5ed"/><stop offset="0.04" stop-color="#f7f2ea"/><stop offset="0.29" stop-color="#eee3da"/><stop offset="0.58" stop-color="#e9dad1"/><stop offset="0.99" stop-color="#e7d7ce"/></linearGradient><linearGradient id="linear-gradient-6" x1="201.724" y1="-1957.519" x2="154.59" y2="-2086.951" xlink:href="#linear-gradient-5"/><linearGradient id="linear-gradient-7" x1="136.448" y1="-1869.517" x2="136.448" y2="-1861.132" gradientTransform="matrix(1, 0, 0, -1, 0, -1613.89)" gradientUnits="userSpaceOnUse"><stop offset="0" stop-color="#d28d88"/><stop offset="0.36" stop-color="#a4767b"/><stop offset="0.99" stop-color="#4d4b63"/></linearGradient><linearGradient id="linear-gradient-8" x1="214.053" y1="-1868.59" x2="214.053" y2="-1860.252" xlink:href="#linear-gradient-7"/><linearGradient id="linear-gradient-9" x1="109.578" y1="-1766.439" x2="109.578" y2="-1666.359" gradientTransform="matrix(1, 0, 0, -1, 0, -1613.89)" gradientUnits="userSpaceOnUse"><stop offset="0" stop-color="#d28d88"/><stop offset="0.67" stop-color="#e5bbae"/><stop offset="0.99" stop-color="#efd2c2"/></linearGradient><linearGradient id="linear-gradient-10" x1="216.206" y1="-1774.176" x2="216.206" y2="-1649.761" xlink:href="#linear-gradient-9"/><linearGradient id="linear-gradient-11" x1="184.105" y1="-2368.053" x2="184.105" y2="-2102.657" gradientTransform="matrix(1, 0, 0, -1, 0, -1613.89)" gradientUnits="userSpaceOnUse"><stop offset="0" stop-color="#f8a065"/><stop offset="0.62" stop-color="#f8a267"/><stop offset="0.84" stop-color="#f8a86e"/><stop offset="0.99" stop-color="#f9b279"/><stop offset="1" stop-color="#f9b37a"/></linearGradient><linearGradient id="linear-gradient-12" x1="53.889" y1="-2044.958" x2="53.889" y2="-2107.269" gradientTransform="matrix(1, 0, 0, -1, 0, -1613.89)" gradientUnits="userSpaceOnUse"><stop offset="0" stop-color="#d3d768"/><stop offset="0.63" stop-color="#b0bb52"/><stop offset="0.99" stop-color="#a1af48"/></linearGradient><linearGradient id="linear-gradient-13" x1="97.021" y1="-2050.981" x2="97.021" y2="-2110.465" xlink:href="#linear-gradient-12"/><linearGradient id="linear-gradient-14" x1="160.315" y1="-1668.056" x2="160.315" y2="-1714.858" gradientTransform="matrix(1, -0.01, 0.01, -1.41, 5.27, -1921.12)" xlink:href="#linear-gradient-12"/><linearGradient id="linear-gradient-15" x1="4826.906" y1="-1700.413" x2="4826.906" y2="-1746.607" gradientTransform="matrix(0.54, -0.01, 0.01, -1.41, -2405.29, -1920.15)" xlink:href="#linear-gradient-12"/><linearGradient id="linear-gradient-16" x1="308.057" y1="-2164.236" x2="308.057" y2="-2238.057" gradientTransform="matrix(1, 0, 0, -0.92, -0.29, -1565.28)" xlink:href="#linear-gradient-12"/><linearGradient id="linear-gradient-17" x1="264.179" y1="-1935.639" x2="264.179" y2="-2000.497" gradientTransform="matrix(1, 0, 0, -1.08, 0.3, -1663.2)" xlink:href="#linear-gradient-12"/><linearGradient id="linear-gradient-18" x1="213.815" y1="-2043.059" x2="213.815" y2="-2111.855" xlink:href="#linear-gradient-12"/><linearGradient id="linear-gradient-19" x1="225.727" y1="-2047.228" x2="225.727" y2="-2082.483" gradientTransform="matrix(1, 0, 0, -1, 0, -1613.89)" gradientUnits="userSpaceOnUse"><stop offset="0" stop-color="#dee092"/><stop offset="0.24" stop-color="#dadd8c"/><stop offset="0.54" stop-color="#cfd47d"/><stop offset="0.87" stop-color="#bdc563"/><stop offset="0.99" stop-color="#b6bf58"/></linearGradient><linearGradient id="linear-gradient-20" x1="305.507" y1="-2046.672" x2="305.507" y2="-2085.309" xlink:href="#linear-gradient-19"/><linearGradient id="linear-gradient-21" x1="340.92" y1="-2043.432" x2="340.92" y2="-2084.151" xlink:href="#linear-gradient-19"/><linearGradient id="linear-gradient-22" x1="195.013" y1="-2051.63" x2="195.013" y2="-2095.594" xlink:href="#linear-gradient-19"/><linearGradient id="linear-gradient-23" x1="128.583" y1="-2048.387" x2="128.583" y2="-2094.112" xlink:href="#linear-gradient-19"/><linearGradient id="linear-gradient-24" x1="75.193" y1="-2053.251" x2="75.193" y2="-2098.976" xlink:href="#linear-gradient-19"/><linearGradient id="linear-gradient-25" x1="-531.61" y1="-3370.914" x2="-531.61" y2="-3420.206" gradientTransform="matrix(0.966, -0.26, -0.26, -0.966, -339.707, -2963.419)" xlink:href="#linear-gradient-19"/><linearGradient id="linear-gradient-26" x1="7291.357" y1="-2832.466" x2="7291.357" y2="-2881.589" gradientTransform="matrix(0.4, -0.06, -0.15, -0.99, -3255.96, -1927.91)" xlink:href="#linear-gradient-19"/><linearGradient id="linear-gradient-27" x1="170.75" y1="-2090.776" x2="230.446" y2="-2090.776" gradientTransform="matrix(1, 0, 0, -1, 0, -1613.89)" gradientUnits="userSpaceOnUse"><stop offset="0" stop-color="#596b38"/><stop offset="1" stop-color="#99b044"/></linearGradient><linearGradient id="linear-gradient-28" x1="233.905" y1="-2085.147" x2="293.649" y2="-2085.147" xlink:href="#linear-gradient-27"/><linearGradient id="linear-gradient-29" x1="205.146" y1="-2080.575" x2="269.723" y2="-2080.575" xlink:href="#linear-gradient-27"/><linearGradient id="linear-gradient-30" x1="253.472" y1="-2077.993" x2="330.177" y2="-2077.993" xlink:href="#linear-gradient-27"/><linearGradient id="linear-gradient-31" x1="-9990.543" y1="4054.761" x2="-9922.474" y2="4054.761" gradientTransform="matrix(-0.22, -0.64, 0.94, -0.33, -5828.94, -4568.5)" xlink:href="#linear-gradient-27"/><linearGradient id="linear-gradient-32" x1="-9807.073" y1="2604.252" x2="-9807.073" y2="2535.78" gradientTransform="matrix(-0.943, 0.334, 0.334, 0.943, -9989.187, 1318.22)" xlink:href="#linear-gradient-27"/><linearGradient id="linear-gradient-33" x1="-9768.56" y1="2589.319" x2="-9768.56" y2="2521.287" gradientTransform="matrix(-0.943, 0.334, 0.334, 0.943, -9989.187, 1318.22)" xlink:href="#linear-gradient-27"/><linearGradient id="linear-gradient-34" x1="-457.029" y1="-3431.262" x2="-457.029" y2="-3464.844" gradientTransform="matrix(0.965, -0.264, -0.264, -0.965, -347.942, -2978.088)" gradientUnits="userSpaceOnUse"><stop offset="0" stop-color="#b8c159"/><stop offset="1" stop-color="#90a645"/></linearGradient><linearGradient id="linear-gradient-35" x1="-2545.17" y1="-3449.106" x2="-2545.17" y2="-3482.772" gradientTransform="matrix(1.72, -0.47, -0.26, -0.96, 3620.44, -4058.65)" xlink:href="#linear-gradient-34"/><linearGradient id="linear-gradient-36" x1="-9758.362" y1="-635.029" x2="-9758.362" y2="-671.144" gradientTransform="matrix(-1.2, -0.32, 0.26, -0.97, -11354.78, -3275.49)" xlink:href="#linear-gradient-34"/><linearGradient id="linear-gradient-37" x1="-9545.257" y1="-2575.673" x2="-9545.257" y2="-2611.478" gradientTransform="matrix(-1.23, 0.12, -0.1, -1, -11730.33, -986.78)" xlink:href="#linear-gradient-34"/><linearGradient id="linear-gradient-38" x1="34.332" y1="-2236.268" x2="267.78" y2="-2236.268" gradientTransform="matrix(1, 0, 0, -1, 0, -1613.89)" gradientUnits="userSpaceOnUse"><stop offset="0" stop-color="#eb7d50"/><stop offset="1" stop-color="#eda765"/></linearGradient><linearGradient id="linear-gradient-39" x1="164.448" y1="-2181.625" x2="330.177" y2="-2181.625" gradientTransform="matrix(1, 0, 0, -1, 0, -1613.89)" gradientUnits="userSpaceOnUse"><stop offset="0" stop-color="#f7a066"/><stop offset="1" stop-color="#eb8856"/></linearGradient><linearGradient id="linear-gradient-40" x1="221.851" y1="-2397.359" x2="387.63" y2="-2397.359" gradientTransform="matrix(1, 0.08, 0.05, -0.66, 33.41, -975.44)" gradientUnits="userSpaceOnUse"><stop offset="0" stop-color="#f7a066"/><stop offset="1" stop-color="#eb8957"/></linearGradient></defs><title>rabbit</title><g id="Layer_1" data-name="Layer 1"><g id="Layer_2-2" data-name="Layer 2"><g id="Layer_1-2" data-name="Layer 1-2"><path class="cls-1" d="M89.4,295.608a42.038,42.038,0,0,1-4.975-21.172,28.939,28.939,0,0,1,4.738-16.075,25.273,25.273,0,0,1,5.307-5.606,118.066,118.066,0,0,1,5.732-30.483A78.462,78.462,0,0,1,114.891,193.6,69.072,69.072,0,0,1,132.136,179a28.623,28.623,0,0,1-8.338-17.929c-1.422-10.609,10.47-17.187,4.074-22.19-7.533-5.93-26.295-18.161-47.757-35.163C52.446,81.854,39.417,44.236,47.14,37.148s43.493,14.686,65.24,35.209A187.053,187.053,0,0,1,149.571,122.9,215.759,215.759,0,0,1,168,171.4l10.423-.463a465.037,465.037,0,0,1,21.652-83.389C202.114,81.9,230.636,3.746,243.522,6.8,253,9.027,259.489,53.131,243.1,89.59c-11.371,25.3-29.611,37.062-25.774,57.956,1.043,5.976,7.06,12.276,1.848,24.229a80.44,80.44,0,0,0-3.553,9.451A55.083,55.083,0,0,1,233.81,196.7a147.672,147.672,0,0,1,15.872,25.526A125.5,125.5,0,0,1,254.8,243.86c.284,1.946,1.373,10.655,1.373,10.655s2.227,4.633,3.7,7.737a27.821,27.821,0,0,1,2.037,17.975,42.633,42.633,0,0,1-6.443,13.2,121.36,121.36,0,0,1,11.418-11.4c6.538-5.7,14.213-12.277,22.22-10.794a19.186,19.186,0,0,1,11.655,8.709,24.636,24.636,0,0,1,4.075,15.983c-.853,9.775-7.249,13.018-15.208,27.426a98.592,98.592,0,0,0-6.776,15.38A72.071,72.071,0,0,1,290,355.37a68.172,68.172,0,0,1-8.1,56.009c-4.738,6.764-6.444,7.459-7.533,8.108a72.627,72.627,0,0,0-18.478,6.717c-2.653,1.3,18.288-12.369,37-5.513,7.3,2.687,18.951,8.524,17.245,12.416-3.079,7.551-30.559,2.919-53.205,4.169-69.267,4.633-116.551.417-152.416,2.039-11.371.556-47.663,2.038-48.989-3.428-.853-3.382,11.7-9.775,16.914-11.86,14.213-5.467,40.366,4.957,37.9,4.633l-5.306-1.9a83.424,83.424,0,0,0-19.709-4.216H78.22c-.663-.324-1.611-.787-2.748-1.436-16.014-9.636-19.236-30.993-20.325-37.432A69.981,69.981,0,0,1,59.884,347.4a33.015,33.015,0,0,0,4.407-7.691,17.242,17.242,0,0,0,.947-5.605,16.05,16.05,0,0,0-.663-5.56A117.8,117.8,0,0,1,54.01,314.139c-6.3-10.053-10.045-16.261-9.192-24.23a15.318,15.318,0,0,1,5.117-11.4c8.244-5.7,24.874,3.058,32.028,9.775C85.8,291.948,89.4,295.608,89.4,295.608Z"/><path class="cls-2" d="M89.022,295.144a.631.631,0,0,0-.568,0s-.237-.37-.332-.509c-7.059-13.389-7.581-32.429,5.875-42.343A99.83,99.83,0,0,1,96.7,231.4c4.738-20.708,14.214-43.223,34.918-53.045v1.3a29.943,29.943,0,0,1-8.717-21.589,27.865,27.865,0,0,1,4.311-10.979,9.125,9.125,0,0,0,1.611-5c0-1.529-1.753-2.548-3.317-3.752-18.951-13.9-39.276-26.314-56.095-42.807-11.7-12.415-31.033-41.277-23.974-58.048,9.144-10.655,39.893,12.045,48.61,18.068,37.9,26.545,65.524,73.336,73.958,115.308l10.375-.509-.521.509a444.08,444.08,0,0,1,22.837-88.763c5.543-13.11,29.042-82.37,44.251-76.579,7.675,5.328,8.1,16.817,9.475,25.063a119.049,119.049,0,0,1-13.692,67.268c-8.1,16.26-25.774,30.854-21.841,50.311a87.321,87.321,0,0,1,3.411,11.026c1.564,8.061-3.506,15.1-5.591,22.469l-.568-1.3c13.645,6.9,21.794,19.921,29.517,32.43s9.475,27.8,11.086,41.972c8.244,12,10.281,27.426-.9,39.378l-.853-.787c7.77-9.266,17.767-21.033,30.559-23.164,14.5-.51,22.978,16.771,20.088,29.14a37.86,37.86,0,0,1-7.533,13.574A100.563,100.563,0,0,0,283.889,339.2v-.973a71.761,71.761,0,0,1,4.406,64.209A42.879,42.879,0,0,1,274.84,420.46a67.769,67.769,0,0,0-18.431,6.81h0c0-.556.522,1.343-1.658-1.158,0-.927.616-.881.569-.973a35.36,35.36,0,0,1,4.311-2.317,45.273,45.273,0,0,1,47.994,3.938c1.8,1.575,4.027,2.965,3.791,5.93-2.891,9.5-34.3,4.216-43.162,5.189-24.874.741-49.889,2.64-74.81,2.455-33.165.371-66.33-1.575-99.779.278-5.922,0-50.173,2.78-36.576-9.265C73.008,418,91.2,419.9,109.205,427.316l.758.324h.616c0-.463.379,1.02,0,1.02H110.3a80.484,80.484,0,0,0-32.833-5.374C53.2,410.685,49.035,375.43,56.189,351.9a59.385,59.385,0,0,1,5.922-11.72,15.98,15.98,0,0,0,1.232-11.768l.237.417C54.1,315.806,38.706,299.36,45.292,282.5c3.79-9.868,16.535-7.6,24.068-3.8a50.356,50.356,0,0,1,19.615,16.029Zm.711.927-5.164-4.216c-12.271-12.832-41.978-25.433-38.472,3.8,3.364,11.952,11.7,22.561,19.426,32.429a17.569,17.569,0,0,1-.995,13.9c-11.987,17.929-10.85,42.065-2.606,61.384a41.05,41.05,0,0,0,16.108,18.16,62.765,62.765,0,0,1,32.265,6.718h0c-.521,0-.237,1.343-.237.88h-.332l-.71-.556c-10.9-3.614-23.121-6.949-34.492-4.123a58.118,58.118,0,0,0-15.966,8.57,7.814,7.814,0,0,0-1.8,1.992c-.285.7,0,.7.473,1.251a32.933,32.933,0,0,0,11.655,2.27,221.812,221.812,0,0,0,24.827,0c33.164-1.9,66.613,0,99.825-.37,25.016,0,49.795-1.761,74.811-2.5,12.271-.278,24.968,1.668,37-.741,4.738-1.39,5.07-3.429.948-6.347a43.432,43.432,0,0,0-48.468-2.363l-1.185.695.332-.741c-2.132-2.456-1.374-.556-1.516-1.158h.331a67.626,67.626,0,0,1,18.052-6.718c21.936-19.457,22.267-55.593,7.722-79.59a103.514,103.514,0,0,1,14.593-27.518,35.491,35.491,0,0,0,7.106-12.648,23.412,23.412,0,0,0-10.8-24.646c-9.475-4.91-18.525,3.984-25.395,9.868-3.79,3.289-7.438,6.81-11.181,10.238l-.853-.787a32.287,32.287,0,0,0,4.738-28.723s-4.122-9.544-4.122-9.636c-1.942-14.176-3.506-28.908-11.465-41.278s-15.825-24.692-29.043-31.132l-.853-.417v-.926h0c1.848-7.227,6.728-13.9,5.212-21.45s-5.875-14.917-3.933-22.7c3.175-15.612,15.209-26.777,22.173-40.49a114.143,114.143,0,0,0,11.371-76.625A19.389,19.389,0,0,0,243.475,8.61a1.886,1.886,0,0,0-1.516,0,31.987,31.987,0,0,0-10.471,12.045,221.512,221.512,0,0,0-10.612,20.153c-6.491,13.9-12.271,27.8-17.72,42.2a489.321,489.321,0,0,0-24.115,88.022v.463h-.474l-10.423.51h-.521a210.083,210.083,0,0,0-16.3-43.733,187.586,187.586,0,0,0-58.8-70.742C80.162,49.054,66.944,38.677,51.641,36.87c-8.623,0-5.022,12.555-3.838,17.743a101.409,101.409,0,0,0,23.31,39.378c16.583,16.4,36.86,28.862,55.527,42.9,1.659,1.2,3.743,2.594,3.98,4.864,0,6.115-5.827,10.377-6.064,16.307a29.824,29.824,0,0,0,1.99,11.026,20.284,20.284,0,0,0,6.917,9.868l-.853.7a76.087,76.087,0,0,0-27.337,31.873,122.773,122.773,0,0,0-10.139,41.694c-11.939,9.729-11.324,28.075-5.685,41a3.689,3.689,0,0,1,.426,2.038Z"/><path class="cls-3" d="M129.1,238.857a10.8,10.8,0,0,1,11.039-4.911,11.72,11.72,0,0,1,6.467,15.464c-.081.19-.168.379-.26.565a11.237,11.237,0,0,1-16.156,4.17A11.978,11.978,0,0,1,129.1,238.857Z"/><path class="cls-4" d="M221.729,238.764a10.848,10.848,0,0,0-10.566-5.883,11.8,11.8,0,0,0-7.522,15.073c.042.119.086.236.131.354a11.224,11.224,0,0,0,15.73,5.559A11.99,11.99,0,0,0,221.729,238.764Z"/><path class="cls-5" d="M201.119,196.792l6.586-.834"/><path class="cls-5" d="M145.734,197.209l-6.586-.834"/><path class="cls-6" d="M175.772,258.036a24.587,24.587,0,0,1,0,2.873,7.127,7.127,0,0,1-.522,3.428c-1.137,1.853-4.027,2.038-5.685,2.131a12.926,12.926,0,0,1-4.738-.51"/><path class="cls-6" d="M186.29,265.541a10.2,10.2,0,0,1-4.738.881,10.964,10.964,0,0,1-6.207-2.873"/><path class="cls-7" d="M171.6,254.469c.853-1.668,8.386-1.714,8.86,0s-1.753,3.428-4.406,3.521S171.081,255.349,171.6,254.469Z"/><path class="cls-8" d="M85.848,271.425l.616-1.946s2.89,5.837,5.448,10.377a23.632,23.632,0,0,0,6.538,7.922,40.353,40.353,0,0,0,8.244,4.355h0a105.033,105.033,0,0,0,13.74,3.845,79.81,79.81,0,0,0-18.951,3.058,21.007,21.007,0,0,0-5.023,2.78,10.208,10.208,0,0,0-1.61,1.575,8.529,8.529,0,0,0-1.422,2.64c-.71-2.362-1.895-6.069-3.506-10.562s-2.037-5.421-3.032-8.849a54.884,54.884,0,0,1-1.563-11.582A32.14,32.14,0,0,1,85.848,271.425Z"/><path class="cls-9" d="M259.773,282.312c0-3.012-13.171,3.474-27.242,8.663s-21.984,8.478-21.984,8.478l10.092,3.567a75.444,75.444,0,0,1,27.337-.88,13.095,13.095,0,0,1,9.334,7.227,38.073,38.073,0,0,1-2.038-6.671,17.077,17.077,0,0,1-.331-2.317,12.614,12.614,0,0,1,0-2.548,8.259,8.259,0,0,1,.663-3.289l.379-.509a3.325,3.325,0,0,0-.569-.51s-.284,0-.284-.232,0-.695.284-.741a29.288,29.288,0,0,0,1.611-3.243C259.489,284.952,259.773,283.841,259.773,282.312Z"/><path class="cls-10" d="M287.158,324.284a31.094,31.094,0,0,1-10.471,3.753c-4.738.556-8.907-1.158-9.475-.278s14.213,10.933,14.213,10.933Z"/><path class="cls-11" d="M63.059,324.84a19.575,19.575,0,0,0,8.717,1.251,19.861,19.861,0,0,0,10.139-3.984l-15.824,15.7a21.1,21.1,0,0,0,.426-3.243,14.4,14.4,0,0,0-.142-5.1A10.052,10.052,0,0,0,63.059,324.84Z"/><path class="cls-12" d="M58.7,349.533a39.866,39.866,0,0,1,11.513-18.948,38.293,38.293,0,0,1,4.027-2.919,131.449,131.449,0,0,0,10.092,27.472,140.777,140.777,0,0,0,25.015,34.792c16.678,15.7,40.888,15.427,89.5,14.778,27.29-.324,64.387-1.25,77.037-21.681,2.464-3.984,7.059-9.821,7.059-9.821s5.212,15.751-1.042,27.8c-6.728,13.065-20.752,17.327-19.52,20.106s14.214-3.567,30.038.742c7.912,2.223,18.335,7.6,17.719,11.257-.852,5.281-23.926,4.633-102.81,5.142-23.69,0-47-.509-70.452,0-45.057.788-80.543,3.151-81.348-2.27-.427-2.455,6.112-6.532,8.859-7.968,6.586-3.521,11.466-2.641,12.082-4.633s-5.354-5.559-10.565-10.516c-6.4-6.532-7.96-13.9-10-23.488A73.55,73.55,0,0,1,58.7,349.533Z"/><path class="cls-11" d="M198.466,175.666c-6.4-3.937-7.012-16.214-3.222-30.576,5.875-22.468,7.628-39.331,11.181-51.423,1.469-5,5.212-15.936,12.7-37.757,1.137-3.289,2.985-8.987,5.922-16.307,3.743-9.265,6.254-14.361,5.875-14.547a402.254,402.254,0,0,0-52.495,146.58C182.357,171.96,194.533,175.249,198.466,175.666Z"/><path class="cls-11" d="M48.229,39.279c10.755-7.968,61.592,38.127,92.53,84.964,19.994,30.252,18.146,50.08,18.146,50.08a31.918,31.918,0,0,0-16.914,1.946c-4.738,1.992-6.443,4.632-9.476,3.752s-3.885-3.706-5.827-8.431a29.935,29.935,0,0,1-2.7-14.223,21.482,21.482,0,0,1,2.369-8.57c1.042-1.946,1.611-2.224,2.227-3.521,1.848-4.309.758-3.706,0-5.467-5.07-8.987-18.951-13.342-29.943-23.164A128.2,128.2,0,0,1,67.749,92.092C50.977,73.885,41.17,44.56,48.229,39.279Z"/><ellipse class="cls-13" cx="136.448" cy="251.458" rx="6.87" ry="4.169"/><ellipse class="cls-14" cx="214.053" cy="250.531" rx="6.87" ry="4.169"/><path class="cls-15" d="M65.191,53.038c6.964-5.791,51.737,33.448,80.543,79.451a158.344,158.344,0,0,1,9.191,20.06,224.887,224.887,0,0,0-31.127-24.6C98.5,110.808,90.064,107.7,81.157,95.52,72.771,83.568,60.737,56.744,65.191,53.038Z"/><path class="cls-16" d="M192.923,160.286a392.763,392.763,0,0,1,14.829-70.927C211.637,76.711,224.524,34.693,232.1,35.9c5.733.927,11.182,25.99,3.838,47.717-6.159,18.253-17.577,23.164-19.236,41.092a23.954,23.954,0,0,1-5.164,15.659c-3.695,3.938-7.486,4.031-12.081,8.571A25.83,25.83,0,0,0,192.923,160.286Z"/><path class="cls-17" d="M64.528,438.527a7.6,7.6,0,0,1,1.374-6.856"/><path class="cls-17" d="M73.2,438.944a8.267,8.267,0,0,1-.616-3.845,8.486,8.486,0,0,1,1.137-3.428"/><path class="cls-17" d="M301.656,437.091a7.177,7.177,0,0,0,0-3.984,7.859,7.859,0,0,0-1.374-2.872"/><path class="cls-17" d="M292.985,437.508a8.041,8.041,0,0,0,.806-3.8,8.294,8.294,0,0,0-1.137-3.474"/><path class="cls-18" d="M138.248,237.328c.284-.88,2.606-1.251,4.217-.371s1.99,1.529,1.753,2.224-2.417,1.158-3.933.51S138.011,238.069,138.248,237.328Z"/><path class="cls-18" d="M214.1,236.4c.284-.926,2.6-1.25,4.216-.416s1.943,1.575,1.706,2.27-2.416,1.158-3.932.509S213.816,237.143,214.1,236.4Z"/><ellipse class="cls-19" cx="228.598" cy="262.298" rx="9.286" ry="3.938"/><ellipse class="cls-19" cx="122.187" cy="261.974" rx="9.286" ry="3.938"/><path class="cls-20" d="M47.9,497.873c16.535-16.354,35.391-1.946,126.642-1.576,103.047.464,125.6-17.7,144.361.788,43.257,42.714-24.542,157.513-68.272,203.84a618.75,618.75,0,0,1-58.322,50.96,13.127,13.127,0,0,1-14.782,0c-10.376-7.274-40.746-33.356-48.089-40.768C85.848,666.921,4.262,541.142,47.9,497.873Z"/><path class="cls-21" d="M6.158,431.069l45.435,13.3a42.539,42.539,0,0,1,41.93,23.163c12.745,25.573,6.633,25.758,6.633,25.758l-28.427-.324s-6.3,1.019-35.107-17.327A67.727,67.727,0,0,1,6.158,431.069Z"/><path class="cls-22" d="M49.888,437.091l53.3,2.872s27.432,11.907,36.434,34.607c8.623,21.866,2.606,22,2.606,22l-29.754-.324s-7.106.927-36.528-16.4S49.888,437.091,49.888,437.091Z"/><path class="cls-23" d="M106.22,433.061l72.11,1.9s25.632,16.863,13.029,44.011c-9.476,19.828-15.587,19.874-15.587,19.874l-29.9-.7s-7.486.649-28.664-13.9C92.812,467.019,106.22,433.061,106.22,433.061Z"/><path class="cls-24" d="M161.132,433.292l39.134,1.436s13.787,16.678,6.728,43.919C201.877,498.521,197.139,495,197.139,495l-14.924,3.15s-4.074.649-15.445-13.9C153.741,467.343,161.132,433.292,161.132,433.292Z"/><path class="cls-25" d="M362.158,427.084l-51.074,9.868s-26.3,11.072-41.882,30.53C246.886,495.278,254.7,495,254.7,495l42.356-3.984a67.812,67.812,0,0,0,10.565-3.2,81.144,81.144,0,0,0,32.17-25.155,140.786,140.786,0,0,0,15.587-22.747A128.486,128.486,0,0,0,362.158,427.084Z"/><path class="cls-26" d="M320.512,427.084a134.285,134.285,0,0,1-33.97,8.525,136.75,136.75,0,0,1-29.043.324,80.556,80.556,0,0,0-43.73,38.452,70.2,70.2,0,0,0-6.491,23.163l34.4-1.3s9,1.019,48.657-21.31C330.793,452.287,320.512,427.084,320.512,427.084Z"/><path class="cls-27" d="M263.753,429.169,204.2,438.435s-26.722,13.9-35.866,36.5-3.364,22.886-3.364,22.886l39.7-.417s-1.421,1.158,31.933-19.457C271.381,456.641,263.753,429.169,263.753,429.169Z"/><path class="cls-28" d="M234.947,436.026l-27.811,32.429L229.4,448.627c7.107-6.255,15.871-13.9,14.829-15.335,0,0-.284,0-5.069.417-1.99,0-3.459.325-4.027,1.344A1.4,1.4,0,0,0,234.947,436.026Z"/><path class="cls-29" d="M291.706,471.42a49.2,49.2,0,0,0,13.313-8.015,47.309,47.309,0,0,0,7.723-8.571c7.912-10.933,6.87-20.384,5.922-21.681h0c-1.326-.926-5.022.464-5.022.464a27.14,27.14,0,0,1,0,4.632,40.138,40.138,0,0,1-9.475,19.967A79.778,79.778,0,0,1,291.706,471.42Z"/><path class="cls-30" d="M323.45,470.261a47.58,47.58,0,0,0,13.313-7.968,56.044,56.044,0,0,0,7.865-8.57,76.523,76.523,0,0,0,10.754-17.234c1.848-3.753,3.554-5.42,2.843-6.254-1.9-2.085-7.865,1.2-7.865,1.2,0,1.158-4.216,8.2-4.453,10.146a81.9,81.9,0,0,1-9.476,15.52A76.3,76.3,0,0,1,323.45,470.261Z"/><path class="cls-31" d="M208.747,438.805l-35.676,42.9c2.132-2.455,19.236-23.163,28.427-31.966a94.249,94.249,0,0,1,11.8-10.053c1.8-1.2,3.838-1.3,3.648-1.667s-1.089-.6-4.122.278A27.762,27.762,0,0,1,208.747,438.805Z"/><path class="cls-32" d="M114.559,434.5l6.68.417a43.307,43.307,0,0,0,1.422,21.449,35.985,35.985,0,0,0,10.044,16.4s.947.834,9.9,7.459h0A46.208,46.208,0,0,1,114.748,434.5Z"/><path class="cls-33" d="M61.353,439.361l6.681.417a43.165,43.165,0,0,0,1.374,21.45,36.062,36.062,0,0,0,9.9,16.492s.947.88,9.854,7.5h0A48.269,48.269,0,0,1,66,463.173,45.765,45.765,0,0,1,61.353,439.361Z"/><path class="cls-34" d="M9.853,433.431c2.179-.463,5.306,2.317,7.486,1.853A43.536,43.536,0,0,0,24.4,455.668a36.9,36.9,0,0,0,13.882,13.3s1.184.556,11.56,4.633h0A49.533,49.533,0,0,1,21.413,458.17,58.653,58.653,0,0,1,9.853,433.431Z"/><path class="cls-35" d="M79.689,439.917c.9,0,2.369,3.243,3.269,3.289a106.12,106.12,0,0,0,3.979,21.079,60.675,60.675,0,0,0,6.586,15.566s.521.788,5.164,6.81h0a46.167,46.167,0,0,1-12.839-20.384A133.226,133.226,0,0,1,79.689,439.917Z"/><path class="cls-36" d="M230.446,455.807A415.84,415.84,0,0,1,196.9,481.38c-9,6.162-17.766,11.674-26.152,16.585l11.323-.463c5.591-3.567,11.418-7.6,17.388-12.277A217.5,217.5,0,0,0,230.446,455.807Z"/><path class="cls-37" d="M293.791,445.754c-5.117,5.652-17.53,19.18-31.886,33.5a71.779,71.779,0,0,1-16.629,12.879,70.168,70.168,0,0,1-11.229,4.633l11.371-.556a225.828,225.828,0,0,0,17.387-14.918A246.625,246.625,0,0,0,293.791,445.754Z"/><path class="cls-38" d="M264.464,436.4c2.463,4.633-7.2,32.1-31.791,44.011-10.186,4.957-18.951,11.675-27.527,16.585l11.939-.463c5.875-3.521,25.774-13.342,31.886-18.16a68.674,68.674,0,0,0,18.951-26.314,69.5,69.5,0,0,0,1.659-15.01A14.867,14.867,0,0,0,264.464,436.4Z"/><path class="cls-39" d="M322.218,434.821a10.049,10.049,0,0,1,7.865-1.019,88.888,88.888,0,0,1-4.738,16.863,70.194,70.194,0,0,1-18.952,27.8,73.826,73.826,0,0,1-23.168,13.9c-23.689,3.1-29.753,2.733-29.99,1.621-.663-3.011,36.671-14.454,54.059-30.808A46.451,46.451,0,0,0,322.218,434.821Z"/><path class="cls-40" d="M203.014,439.871c-5.733,1.575-26.532,17.65-33.781,34.745-4.974,11.675-7.059,19.875-5.448,23.951-.758-2.548-17.862,2.085-18.62-.417,2.132-4.632,17.53-29.325,20.847-34.745a74.047,74.047,0,0,1,21.13-20.569,106.34,106.34,0,0,1,14.214-6.023S203.014,438.62,203.014,439.871Z"/><path class="cls-41" d="M137.869,496.575c-2.606-1.389-6.3-3.428-10.613-6.022A83.954,83.954,0,0,1,114.18,481.7a38.162,38.162,0,0,1-9.428-42.111H94.186a58.94,58.94,0,0,0,1.943,21.82,64.573,64.573,0,0,0,27.527,35.626,36.613,36.613,0,0,1,5.543-.695A41.406,41.406,0,0,1,137.869,496.575Z"/><path class="cls-42" d="M102.146,493.379c-3.648-1.575-8.67-3.845-14.45-6.9a123.262,123.262,0,0,1-12.366-6.949,59.009,59.009,0,0,1-18-16.724,47.881,47.881,0,0,1-7.2-19.272l-7.439-1.159a119.591,119.591,0,0,0,27.243,50.312H82.673Z"/><path class="cls-43" d="M105.51,455.205l8.575,2.177A59.517,59.517,0,0,0,128.3,474.663a62.4,62.4,0,0,0,9.475,6.532,26.983,26.983,0,0,1-18.382-1.853A26.571,26.571,0,0,1,105.51,455.205Z"/><path class="cls-44" d="M128.82,453.352l14.213.649a33.039,33.039,0,0,1,11.845,9.265,31.7,31.7,0,0,1,4.975,9.265,28.537,28.537,0,0,0-2.7,2.224,53.931,53.931,0,0,0-6.965,7.6,35.783,35.783,0,0,1-7.059-3.15,28.684,28.684,0,0,1-13.74-16.586A23.337,23.337,0,0,1,128.82,453.352Z"/><path class="cls-45" d="M206.188,459.7l-10.281,1.76a81.738,81.738,0,0,1-28.9,24.878,19.339,19.339,0,0,0,8.054,1.39c4.406,0,6.538-2.039,14.213-6.3,10.613-5.976,11.94-5.513,14.214-8.385A18.46,18.46,0,0,0,206.188,459.7Z"/><path class="cls-46" d="M281.994,438.157l-9,5.188a81.205,81.205,0,0,1-18.1,33.217,18.8,18.8,0,0,0,8.055-1.482c4.027-1.761,5.353-4.17,10.944-10.748,7.77-9.266,9.191-9.266,10.139-12.694A18.175,18.175,0,0,0,281.994,438.157Z"/><path class="cls-47" d="M151.135,497.363C140.38,517.7,140.807,556.43,148.671,601.09c11.276,63.468,18.383,116.744,40.224,132.774,15.114,11.118,74.337-46.328,78.885-53.184-13.029,15.1-75.236,73.29-79.311,72.965a35.709,35.709,0,0,0-7.486-.324h0A382.159,382.159,0,0,1,68.792,628.515c-15.493-28.352-51.216-93.534-25.3-125.639a42.858,42.858,0,0,1,15.587-11.767Z"/><path class="cls-48" d="M330.177,553.743a440.845,440.845,0,0,1-63.913,16.215,492.27,492.27,0,0,1-101.816,4.632,314.5,314.5,0,0,0,106.222,4.633A347.368,347.368,0,0,0,328.9,567.6C330.935,563.889,328.187,557.727,330.177,553.743Z"/><path class="cls-49" d="M300.945,628.237a622.42,622.42,0,0,1-64.624,6.023,749.286,749.286,0,0,1-101.768-4.633,470.022,470.022,0,0,0,105.7,11.026,497.392,497.392,0,0,0,58.655-3.335C301.134,635.233,298.529,630.6,300.945,628.237Z"/><path class="cls-50" d="M229.925,513.485a22.92,22.92,0,0,1,13.645-7.459,21.485,21.485,0,0,1,15.4,4.077,49.912,49.912,0,0,1,2.7,16.631,50.866,50.866,0,0,1-4.453,20.338,31.793,31.793,0,0,1-13.929,10.192,27.875,27.875,0,0,1-17.815.324,105.827,105.827,0,0,0,4.454-21.357A98.6,98.6,0,0,0,229.925,513.485Z"/><path class="cls-50" d="M229.167,591.176c2.748,1.389,7.391-1.715,13.408-3.243,4.738-1.158,8.339,1.019,10.9-1.158l-2.843,27.472a38.691,38.691,0,0,1-18,2.316,35.881,35.881,0,0,1-7.155-1.622Z"/><path class="cls-50" d="M224.761,618.184a52.548,52.548,0,0,0,15.113,1.715,45.052,45.052,0,0,0,11.608-1.807l-.948,12.091a100.531,100.531,0,0,1-19.851-.37c-2.89-.325-5.638-.742-8.1-1.251Z"/><path class="cls-50" d="M226.087,647.185a15.612,15.612,0,0,1,19.947,1.483c10.518,14.361-35.629,62.773-36.576,62.125s14.213-12.926,16.3-33.4C227.461,661.871,220.5,652.42,226.087,647.185Z"/></g></g></g></svg>