<svg xmlns="http://www.w3.org/2000/svg" xmlns:xlink="http://www.w3.org/1999/xlink" viewBox="0 0 75.86 162.03"><defs><style>.cls-1{isolation:isolate;}.cls-2{fill:#f9f5ed;}.cls-3,.cls-8{fill:#4d4b63;}.cls-4{fill:url(#linear-gradient);}.cls-5{fill:url(#linear-gradient-2);}.cls-19,.cls-6,.cls-7{fill:none;}.cls-22,.cls-6,.cls-8{stroke:#4d4b63;}.cls-19,.cls-22,.cls-23,.cls-24,.cls-25,.cls-26,.cls-27,.cls-28,.cls-29,.cls-6,.cls-7,.cls-8{stroke-miterlimit:10;}.cls-19,.cls-6,.cls-7,.cls-8{stroke-width:0.25px;}.cls-7{stroke:#d8948e;}.cls-9{fill:url(#linear-gradient-3);}.cls-10{fill:url(#linear-gradient-4);}.cls-11{fill:url(#linear-gradient-5);}.cls-12,.cls-14{fill:#e7d7ce;}.cls-13,.cls-14,.cls-17,.cls-18,.cls-19,.cls-38,.cls-39,.cls-40,.cls-41,.cls-42,.cls-43,.cls-44,.cls-49,.cls-50,.cls-51{mix-blend-mode:darken;}.cls-13{fill:url(#linear-gradient-6);}.cls-15{fill:url(#linear-gradient-7);}.cls-16{fill:url(#linear-gradient-8);}.cls-17{fill:url(#linear-gradient-9);}.cls-18{fill:url(#linear-gradient-10);}.cls-19{stroke:#d28d88;}.cls-20{fill:#fff;}.cls-21{fill:#f5d4c6;}.cls-22{stroke-width:0.75px;fill:url(#linear-gradient-11);}.cls-23,.cls-24,.cls-25,.cls-26,.cls-27,.cls-28,.cls-29{stroke:#354421;stroke-width:0.5px;}.cls-23{fill:url(#linear-gradient-12);}.cls-24{fill:url(#linear-gradient-13);}.cls-25{fill:url(#linear-gradient-14);}.cls-26{fill:url(#linear-gradient-15);}.cls-27{fill:url(#linear-gradient-16);}.cls-28{fill:url(#linear-gradient-17);}.cls-29{fill:url(#linear-gradient-18);}.cls-30,.cls-31,.cls-32,.cls-33{mix-blend-mode:lighten;}.cls-30{fill:url(#linear-gradient-19);}.cls-31{fill:url(#linear-gradient-20);}.cls-32{fill:url(#linear-gradient-21);}.cls-33{fill:url(#linear-gradient-22);}.cls-34{fill:url(#linear-gradient-23);}.cls-35{fill:url(#linear-gradient-24);}.cls-36{fill:url(#linear-gradient-25);}.cls-37{fill:url(#linear-gradient-26);}.cls-38{fill:url(#linear-gradient-27);}.cls-39{fill:url(#linear-gradient-28);}.cls-40{fill:url(#linear-gradient-29);}.cls-41{fill:url(#linear-gradient-30);}.cls-42{fill:url(#linear-gradient-31);}.cls-43{fill:url(#linear-gradient-32);}.cls-44{fill:url(#linear-gradient-33);}.cls-45{fill:url(#linear-gradient-34);}.cls-46{fill:url(#linear-gradient-35);}.cls-47{fill:url(#linear-gradient-36);}.cls-48{fill:url(#linear-gradient-37);}.cls-49{fill:url(#linear-gradient-38);}.cls-50{fill:url(#linear-gradient-39);}.cls-51{fill:url(#linear-gradient-40);}.cls-52{fill:#fddbab;mix-blend-mode:overlay;}</style><linearGradient id="linear-gradient" x1="27.95" y1="54.16" x2="27.95" y2="49.32" gradientUnits="userSpaceOnUse"><stop offset="0" stop-color="#4d4b63"/><stop offset="0.81" stop-color="#1f1d35"/><stop offset="0.99" stop-color="#15132b"/></linearGradient><linearGradient id="linear-gradient-2" x1="43.96" y1="54" x2="43.96" y2="49.12" xlink:href="#linear-gradient"/><linearGradient id="linear-gradient-3" x1="15.71" y1="59.69" x2="23.58" y2="64.24" gradientUnits="userSpaceOnUse"><stop offset="0" stop-color="#f9f5ed"/><stop offset="0.06" stop-color="#f6efe7"/><stop offset="0.28" stop-color="#ede2d9"/><stop offset="0.54" stop-color="#e8d9d1"/><stop offset="0.99" stop-color="#e7d7ce"/></linearGradient><linearGradient id="linear-gradient-4" x1="43.43" y1="62.66" x2="53.82" y2="62.66" xlink:href="#linear-gradient-3"/><linearGradient id="linear-gradient-5" x1="56.72" y1="71.04" x2="58.37" y2="68.18" gradientUnits="userSpaceOnUse"><stop offset="0" stop-color="#f9f5ed"/><stop offset="0.04" stop-color="#f7f2ea"/><stop offset="0.29" stop-color="#eee3da"/><stop offset="0.58" stop-color="#e9dad1"/><stop offset="0.99" stop-color="#e7d7ce"/></linearGradient><linearGradient id="linear-gradient-6" x1="41.61" y1="73.21" x2="31.57" y2="100.78" xlink:href="#linear-gradient-5"/><linearGradient id="linear-gradient-7" x1="27.79" y1="54.06" x2="27.79" y2="52.25" gradientUnits="userSpaceOnUse"><stop offset="0" stop-color="#d28d88"/><stop offset="0.36" stop-color="#a4767b"/><stop offset="0.99" stop-color="#4d4b63"/></linearGradient><linearGradient id="linear-gradient-8" x1="44.17" y1="53.86" x2="44.17" y2="52.06" xlink:href="#linear-gradient-7"/><linearGradient id="linear-gradient-9" x1="22.13" y1="31.81" x2="22.13" y2="10.21" gradientUnits="userSpaceOnUse"><stop offset="0" stop-color="#d28d88"/><stop offset="0.67" stop-color="#e5bbae"/><stop offset="0.99" stop-color="#efd2c2"/></linearGradient><linearGradient id="linear-gradient-10" x1="44.62" y1="33.48" x2="44.62" y2="6.62" xlink:href="#linear-gradient-9"/><linearGradient id="linear-gradient-11" x1="37.85" y1="161.65" x2="37.85" y2="104.38" gradientUnits="userSpaceOnUse"><stop offset="0" stop-color="#f8a065"/><stop offset="0.62" stop-color="#f8a267"/><stop offset="0.84" stop-color="#f8a86e"/><stop offset="0.99" stop-color="#f9b279"/><stop offset="1" stop-color="#f9b37a"/></linearGradient><linearGradient id="linear-gradient-12" x1="10.37" y1="91.93" x2="10.37" y2="105.38" gradientUnits="userSpaceOnUse"><stop offset="0" stop-color="#d3d768"/><stop offset="0.63" stop-color="#b0bb52"/><stop offset="0.99" stop-color="#a1af48"/></linearGradient><linearGradient id="linear-gradient-13" x1="19.47" y1="93.23" x2="19.47" y2="106.07" xlink:href="#linear-gradient-12"/><linearGradient id="linear-gradient-14" x1="29.8" y1="132.61" x2="29.8" y2="142.71" gradientTransform="matrix(1, -0.01, -0.01, 1.41, 1.41, -95.14)" xlink:href="#linear-gradient-12"/><linearGradient id="linear-gradient-15" x1="-50.57" y1="131.33" x2="-50.57" y2="141.3" gradientTransform="matrix(0.54, -0.01, -0.01, 1.41, 67.03, -94.17)" xlink:href="#linear-gradient-12"/><linearGradient id="linear-gradient-16" x1="64.13" y1="79.42" x2="64.13" y2="95.34" gradientTransform="matrix(1, 0, 0, 0.92, -0.29, 17.73)" xlink:href="#linear-gradient-12"/><linearGradient id="linear-gradient-17" x1="54.65" y1="101.43" x2="54.65" y2="115.43" gradientTransform="matrix(1, 0, 0, 1.08, 0.3, -18.43)" xlink:href="#linear-gradient-12"/><linearGradient id="linear-gradient-18" x1="44.12" y1="91.52" x2="44.12" y2="106.37" xlink:href="#linear-gradient-12"/><linearGradient id="linear-gradient-19" x1="46.63" y1="92.42" x2="46.63" y2="100.03" gradientUnits="userSpaceOnUse"><stop offset="0" stop-color="#dee092"/><stop offset="0.24" stop-color="#dadd8c"/><stop offset="0.54" stop-color="#cfd47d"/><stop offset="0.87" stop-color="#bdc563"/><stop offset="0.99" stop-color="#b6bf58"/></linearGradient><linearGradient id="linear-gradient-20" x1="63.49" y1="92.3" x2="63.49" y2="100.64" xlink:href="#linear-gradient-19"/><linearGradient id="linear-gradient-21" x1="70.93" y1="91.6" x2="70.93" y2="100.39" xlink:href="#linear-gradient-19"/><linearGradient id="linear-gradient-22" x1="40.17" y1="93.37" x2="40.17" y2="102.86" xlink:href="#linear-gradient-19"/><linearGradient id="linear-gradient-23" x1="26.1" y1="92.67" x2="26.1" y2="102.54" xlink:href="#linear-gradient-19"/><linearGradient id="linear-gradient-24" x1="14.86" y1="93.72" x2="14.86" y2="103.59" xlink:href="#linear-gradient-19"/><linearGradient id="linear-gradient-25" x1="41.85" y1="68.13" x2="41.85" y2="78.72" gradientTransform="translate(-54.22 36.77) rotate(-15.07)" xlink:href="#linear-gradient-19"/><linearGradient id="linear-gradient-26" x1="-69" y1="85.22" x2="-69" y2="95.81" gradientTransform="matrix(0.4, -0.06, 0.15, 0.99, 31.74, 5.1)" xlink:href="#linear-gradient-19"/><linearGradient id="linear-gradient-27" x1="35.03" y1="101.82" x2="47.63" y2="101.82" gradientUnits="userSpaceOnUse"><stop offset="0" stop-color="#596b38"/><stop offset="1" stop-color="#99b044"/></linearGradient><linearGradient id="linear-gradient-28" x1="48.36" y1="100.63" x2="60.97" y2="100.63" xlink:href="#linear-gradient-27"/><linearGradient id="linear-gradient-29" x1="42.29" y1="99.61" x2="55.92" y2="99.61" xlink:href="#linear-gradient-27"/><linearGradient id="linear-gradient-30" x1="52.49" y1="99.05" x2="68.68" y2="99.05" xlink:href="#linear-gradient-27"/><linearGradient id="linear-gradient-31" x1="343.8" y1="276.89" x2="358.58" y2="276.89" gradientTransform="matrix(-0.22, -0.64, -0.94, 0.33, 375.48, 231.89)" xlink:href="#linear-gradient-27"/><linearGradient id="linear-gradient-32" x1="203.05" y1="368.04" x2="203.05" y2="382.75" gradientTransform="translate(339.58 386.23) rotate(160.51)" xlink:href="#linear-gradient-27"/><linearGradient id="linear-gradient-33" x1="211.19" y1="371.2" x2="211.19" y2="385.79" gradientTransform="translate(339.58 386.23) rotate(160.51)" xlink:href="#linear-gradient-27"/><linearGradient id="linear-gradient-34" x1="61.87" y1="72.86" x2="61.87" y2="80.07" gradientTransform="translate(-55.3 42.55) rotate(-15.3)" gradientUnits="userSpaceOnUse"><stop offset="0" stop-color="#b8c159"/><stop offset="1" stop-color="#90a645"/></linearGradient><linearGradient id="linear-gradient-35" x1="95.57" y1="73.77" x2="95.57" y2="81.01" gradientTransform="matrix(1.72, -0.47, 0.26, 0.96, -154.96, 69.81)" xlink:href="#linear-gradient-34"/><linearGradient id="linear-gradient-36" x1="261.21" y1="136.99" x2="261.21" y2="144.74" gradientTransform="matrix(-1.2, -0.32, -0.26, 0.97, 387.46, 49.38)" xlink:href="#linear-gradient-34"/><linearGradient id="linear-gradient-37" x1="215.26" y1="87.54" x2="215.26" y2="95.28" gradientTransform="matrix(-1.23, 0.12, 0.1, 1, 312.36, -18.85)" xlink:href="#linear-gradient-34"/><linearGradient id="linear-gradient-38" x1="6.26" y1="133.24" x2="55.51" y2="133.24" gradientUnits="userSpaceOnUse"><stop offset="0" stop-color="#eb7d50"/><stop offset="1" stop-color="#eda765"/></linearGradient><linearGradient id="linear-gradient-39" x1="33.7" y1="121.45" x2="68.68" y2="121.45" gradientUnits="userSpaceOnUse"><stop offset="0" stop-color="#f7a066"/><stop offset="1" stop-color="#eb8856"/></linearGradient><linearGradient id="linear-gradient-40" x1="17.68" y1="84.34" x2="52.67" y2="84.34" gradientTransform="matrix(1, 0.08, -0.05, 0.66, 14.11, 76.57)" gradientUnits="userSpaceOnUse"><stop offset="0" stop-color="#f7a066"/><stop offset="1" stop-color="#eb8957"/></linearGradient></defs><g class="cls-1"><g id="Layer_2" data-name="Layer 2"><g id="Layer_1-2" data-name="Layer 1"><path class="cls-2" d="M17.86,62.69a9.24,9.24,0,0,1-1.05-4.57,6.35,6.35,0,0,1,1-3.47,5.41,5.41,0,0,1,1.12-1.21,26,26,0,0,1,1.21-6.58,17.08,17.08,0,0,1,3.1-6.19,14.67,14.67,0,0,1,3.64-3.15,6.24,6.24,0,0,1-1.76-3.87c-.3-2.29,2.21-3.71.86-4.79-1.59-1.28-5.55-3.92-10.08-7.59C10.06,16.55,7.31,8.43,8.94,6.9s9.18,3.17,13.77,7.6a40.34,40.34,0,0,1,7.85,10.91,47.23,47.23,0,0,1,3.89,10.47l2.2-.1a102.22,102.22,0,0,1,4.57-18C41.65,16.56,47.67-.31,50.39.35c2,.48,3.37,10-.09,17.87-2.4,5.46-6.25,8-5.44,12.51.22,1.29,1.49,2.65.39,5.23A17.59,17.59,0,0,0,44.5,38a11.7,11.7,0,0,1,3.84,3.34,32,32,0,0,1,3.35,5.51,27.59,27.59,0,0,1,1.08,4.67c.06.42.29,2.3.29,2.3s.47,1,.78,1.67a6.13,6.13,0,0,1,.43,3.88,9.29,9.29,0,0,1-1.36,2.85,25.9,25.9,0,0,1,2.41-2.46c1.38-1.23,3-2.65,4.69-2.33a4.06,4.06,0,0,1,2.46,1.88,5.41,5.41,0,0,1,.86,3.45c-.18,2.11-1.53,2.81-3.21,5.92A21.52,21.52,0,0,0,58.69,72a15.75,15.75,0,0,1,1.51,3.59,15,15,0,0,1-1.71,12.09c-1,1.46-1.36,1.61-1.59,1.75A15.11,15.11,0,0,0,53,90.88c-.56.28,3.86-2.67,7.81-1.19,1.54.58,4,1.84,3.64,2.68C63.8,94,58,93,53.22,93.27c-14.62,1-24.6.09-32.17.44-2.4.12-10.06.44-10.34-.74-.18-.73,2.47-2.11,3.57-2.56,3-1.18,8.52,1.07,8,1L21.16,91A17.27,17.27,0,0,0,17,90.09c-.36,0-.87,0-1.5,0-.14-.07-.34-.17-.58-.31-3.38-2.08-4.06-6.69-4.29-8.08a15.42,15.42,0,0,1,1-7.83,7.17,7.17,0,0,0,.93-1.66A3.8,3.8,0,0,0,12.76,71a3.54,3.54,0,0,0-.14-1.2,25.41,25.41,0,0,1-2.23-3.11c-1.33-2.17-2.12-3.51-1.94-5.23A3.34,3.34,0,0,1,9.53,59c1.74-1.23,5.25.66,6.76,2.11C17.1,61.9,17.86,62.69,17.86,62.69Z"/><path class="cls-3" d="M17.78,62.59a.13.13,0,0,0-.12,0s-.05-.08-.07-.11c-1.49-2.89-1.6-7,1.24-9.14a22,22,0,0,1,.57-4.51c1-4.47,3-9.33,7.37-11.45l0,.28A6.54,6.54,0,0,1,24.93,33a6.1,6.1,0,0,1,.91-2.37,2,2,0,0,0,.34-1.08c0-.33-.37-.55-.7-.81-4-3-8.29-5.68-11.84-9.24-2.47-2.68-6.55-8.91-5.06-12.53C10.51,4.67,17,9.57,18.84,10.87c8,5.73,13.83,15.83,15.61,24.89l2.19-.11s-.11.11-.11.11A97.61,97.61,0,0,1,41.35,16.6C42.52,13.77,47.48-1.18,50.69.07c1.62,1.15,1.71,3.63,2,5.41A26.19,26.19,0,0,1,49.8,20c-1.71,3.51-5.44,6.66-4.61,10.86a19.16,19.16,0,0,1,.72,2.38c.33,1.74-.74,3.26-1.18,4.85l-.12-.28c2.88,1.49,4.6,4.3,6.23,7s2,6,2.34,9.06c1.74,2.59,2.17,5.92-.19,8.5l-.18-.17c1.64-2,3.75-4.54,6.45-5,3.06-.11,4.85,3.62,4.24,6.29a8.23,8.23,0,0,1-1.59,2.93,21.87,21.87,0,0,0-3,5.68l0-.21a15.8,15.8,0,0,1,.93,13.86A9.24,9.24,0,0,1,57,89.64a14.11,14.11,0,0,0-3.89,1.47l0,0c0-.12.11.29-.35-.25,0-.2.13-.19.12-.21a7.4,7.4,0,0,1,.91-.5A9.38,9.38,0,0,1,63.92,91c.38.34.85.64.8,1.28-.61,2.05-7.24.91-9.11,1.12-5.25.16-10.53.57-15.79.53-7,.08-14-.34-21.06.06-1.25,0-10.59.6-7.72-2,3.36-2.88,7.2-2.47,11-.87l.16.07.08,0,.05,0c0-.1.08.22,0,.22h-.06a16.65,16.65,0,0,0-6.93-1.16c-5.12-2.72-6-10.33-4.49-15.41a12.93,12.93,0,0,1,1.25-2.53,3.52,3.52,0,0,0,.26-2.54l.05.09c-2-2.81-5.25-6.36-3.86-10,.8-2.13,3.49-1.64,5.08-.82a10.68,10.68,0,0,1,4.14,3.46Zm.15.2-1.09-.91c-2.59-2.77-8.86-5.49-8.12.82.71,2.58,2.47,4.87,4.1,7a3.87,3.87,0,0,1-.21,3c-2.53,3.87-2.29,9.08-.55,13.25a8.8,8.8,0,0,0,3.4,3.92,13,13,0,0,1,6.81,1.45h0c-.11,0-.05.29-.05.19h0l-.07,0L22,91.39c-2.3-.78-4.88-1.5-7.28-.89a12.18,12.18,0,0,0-3.37,1.85,1.68,1.68,0,0,0-.38.43c-.06.15,0,.15.1.27a6.82,6.82,0,0,0,2.46.49c1.73.11,3.49.09,5.24,0,7-.41,14.06,0,21.07-.08,5.28,0,10.51-.38,15.79-.54,2.59-.06,5.27.36,7.81-.16,1-.3,1.07-.74.2-1.37a9,9,0,0,0-10.23-.51l-.25.15s0,0,.07-.16c-.45-.53-.29-.12-.32-.25l.07,0a14.08,14.08,0,0,1,3.81-1.45c4.63-4.2,4.7-12,1.63-17.18a22.52,22.52,0,0,1,3.08-5.94A7.71,7.71,0,0,0,63,63.32,5.1,5.1,0,0,0,60.72,58c-2-1.06-3.91.86-5.36,2.13-.8.71-1.57,1.47-2.36,2.21l-.18-.17a7.1,7.1,0,0,0,1-6.2s-.87-2.06-.87-2.08c-.41-3.06-.74-6.24-2.42-8.91s-3.34-5.33-6.13-6.72l-.18-.09,0-.2h0c.39-1.56,1.42-3,1.1-4.63s-1.24-3.22-.83-4.9c.67-3.37,3.21-5.78,4.68-8.74A25.13,25.13,0,0,0,51.57,3.16,4.22,4.22,0,0,0,50.38.74a.39.39,0,0,0-.32,0,6.86,6.86,0,0,0-2.21,2.6,48.2,48.2,0,0,0-2.24,4.35c-1.37,3-2.59,6-3.74,9.11a107.51,107.51,0,0,0-5.09,19l0,.1h-.1l-2.2.11h-.11a46,46,0,0,0-3.44-9.44A40.3,40.3,0,0,0,18.52,11.3c-2.61-1.83-5.4-4.07-8.63-4.46-1.82,0-1.06,2.71-.81,3.83A22,22,0,0,0,14,19.17c3.5,3.54,7.78,6.23,11.72,9.26.35.26.79.56.84,1.05,0,1.32-1.23,2.24-1.28,3.52a6.57,6.57,0,0,0,.42,2.38,4.38,4.38,0,0,0,1.46,2.13l-.18.15a16.33,16.33,0,0,0-5.77,6.88,27,27,0,0,0-2.14,9c-2.52,2.1-2.39,6.06-1.2,8.85a.81.81,0,0,1,.09.44Z"/><path class="cls-4" d="M26.24,50.44a2.26,2.26,0,0,1,2.33-1.06,2.55,2.55,0,0,1,1.31,3.46,2.34,2.34,0,0,1-3.41.9A2.63,2.63,0,0,1,26.24,50.44Z"/><path class="cls-5" d="M45.79,50.42a2.28,2.28,0,0,0-2.23-1.27A2.56,2.56,0,0,0,42,52.48a2.34,2.34,0,0,0,3.32,1.2A2.63,2.63,0,0,0,45.79,50.42Z"/><path class="cls-6" d="M41.44,41.36l1.39-.18"/><path class="cls-6" d="M29.75,41.45l-1.39-.18"/><path class="cls-7" d="M36.09,54.58a5.36,5.36,0,0,1,0,.62,1.57,1.57,0,0,1-.11.74c-.24.4-.85.44-1.2.46a2.67,2.67,0,0,1-1-.11"/><path class="cls-7" d="M38.31,56.2a2.11,2.11,0,0,1-1,.19A2.29,2.29,0,0,1,36,55.77"/><path class="cls-8" d="M35.21,53.81c.18-.36,1.77-.37,1.87,0s-.37.74-.93.76S35.1,54,35.21,53.81Z"/><path class="cls-9" d="M17.11,57.47l.13-.42s.61,1.26,1.15,2.24A5.08,5.08,0,0,0,19.77,61a8.45,8.45,0,0,0,1.74.94h0a21.79,21.79,0,0,0,2.9.83,16.51,16.51,0,0,0-4,.66,4.41,4.41,0,0,0-1.06.6,2.18,2.18,0,0,0-.34.34,1.86,1.86,0,0,0-.3.57c-.15-.51-.4-1.31-.74-2.28s-.43-1.17-.64-1.91A12.11,12.11,0,0,1,17,58.25,7.08,7.08,0,0,1,17.11,57.47Z"/><path class="cls-10" d="M53.82,59.82c0-.65-2.78.75-5.75,1.87s-4.64,1.83-4.64,1.83l2.13.77a15.58,15.58,0,0,1,5.77-.19,3,3,0,0,1,1.33.68,3.06,3.06,0,0,1,.64.88,8.36,8.36,0,0,1-.43-1.44,3.75,3.75,0,0,1-.07-.5,2.81,2.81,0,0,1,0-.55,1.82,1.82,0,0,1,.14-.71l.08-.11a.72.72,0,0,0-.12-.11s-.06,0-.06-.05,0-.15.06-.16a6.44,6.44,0,0,0,.34-.7C53.76,60.39,53.82,60.15,53.82,59.82Z"/><path class="cls-11" d="M59.6,68.88a6.47,6.47,0,0,1-2.21.81c-1,.12-1.88-.25-2-.06s3,2.36,3,2.36Z"/><path class="cls-12" d="M12.3,69a4.05,4.05,0,0,0,1.84.27,4.14,4.14,0,0,0,2.14-.86L12.94,71.8a4.66,4.66,0,0,0,.09-.7A3.18,3.18,0,0,0,13,70,2.17,2.17,0,0,0,12.3,69Z"/><path class="cls-13" d="M11.38,74.33a8.64,8.64,0,0,1,2.43-4.09,8.09,8.09,0,0,1,.85-.63,28.8,28.8,0,0,0,2.13,5.93,30.38,30.38,0,0,0,5.28,7.51c3.52,3.39,8.63,3.33,18.89,3.19,5.76-.07,13.59-.27,16.26-4.68.52-.86,1.49-2.12,1.49-2.12s1.1,3.4-.22,6c-1.42,2.82-4.38,3.74-4.12,4.34s3-.77,6.34.16c1.67.48,3.87,1.64,3.74,2.43-.18,1.14-5.05,1-21.7,1.11-5,0-9.92-.11-14.87,0-9.51.17-17,.68-17.17-.49-.09-.53,1.29-1.41,1.87-1.72,1.39-.76,2.42-.57,2.55-1S14,89.07,12.9,88c-1.35-1.41-1.68-3-2.11-5.07A16.22,16.22,0,0,1,11.38,74.33Z"/><path class="cls-14" d="M40.88,36.8c-1.35-.85-1.48-3.5-.68-6.6,1.24-4.85,1.61-8.49,2.36-11.1.31-1.08,1.1-3.44,2.68-8.15.24-.71.63-1.94,1.25-3.52.79-2,1.32-3.1,1.24-3.14A88.11,88.11,0,0,0,36.65,35.93C37.48,36,40.05,36.71,40.88,36.8Z"/><path class="cls-14" d="M9.17,7.36c2.27-1.72,13,8.23,19.53,18.34,4.22,6.53,3.83,10.81,3.83,10.81a6.6,6.6,0,0,0-3.57.42c-1,.43-1.36,1-2,.81s-.82-.8-1.23-1.82a6.59,6.59,0,0,1-.57-3.07A4.72,4.72,0,0,1,25.66,31c.22-.42.34-.48.47-.76.39-.93.16-.8,0-1.18-1.07-1.94-4-2.88-6.32-5a27.17,27.17,0,0,1-6.52-5.3C9.75,14.83,7.68,8.5,9.17,7.36Z"/><ellipse class="cls-15" cx="27.79" cy="53.16" rx="1.45" ry="0.9"/><ellipse class="cls-16" cx="44.17" cy="52.96" rx="1.45" ry="0.9"/><path class="cls-17" d="M12.75,10.33c1.47-1.25,10.92,7.22,17,17.15a34.53,34.53,0,0,1,1.94,4.33,47.65,47.65,0,0,0-6.57-5.31c-5.34-3.7-7.12-4.37-9-7C14.35,16.92,11.81,11.13,12.75,10.33Z"/><path class="cls-18" d="M39.71,33.48a86.47,86.47,0,0,1,3.13-15.31c.82-2.73,3.54-11.8,5.14-11.54,1.21.2,2.36,5.61.81,10.3-1.3,3.94-3.71,5-4.06,8.87a5.25,5.25,0,0,1-1.09,3.38c-.78.85-1.58.87-2.55,1.85A5.61,5.61,0,0,0,39.71,33.48Z"/><path class="cls-19" d="M12.61,93.54a1.67,1.67,0,0,1,.29-1.48"/><path class="cls-19" d="M14.44,93.63a1.82,1.82,0,0,1-.13-.83,1.86,1.86,0,0,1,.24-.74"/><path class="cls-19" d="M62.66,93.23a1.58,1.58,0,0,0,0-.86,1.71,1.71,0,0,0-.29-.62"/><path class="cls-19" d="M60.83,93.32A1.77,1.77,0,0,0,61,92.5a1.82,1.82,0,0,0-.24-.75"/><path class="cls-20" d="M28.17,50.11c.06-.19.55-.27.89-.08s.42.33.37.48-.51.25-.83.11S28.12,50.27,28.17,50.11Z"/><path class="cls-20" d="M44.18,49.91c.06-.2.55-.27.89-.09s.41.34.36.49-.51.25-.83.11S44.12,50.07,44.18,49.91Z"/><ellipse class="cls-21" cx="47.24" cy="55.5" rx="1.96" ry="0.85"/><ellipse class="cls-21" cx="24.78" cy="55.43" rx="1.96" ry="0.85"/><path class="cls-22" d="M9.1,106.35c3.49-3.53,7.47-.42,26.73-.34,21.75.1,26.51-3.82,30.47.17,9.13,9.22-5.18,34-14.41,44a131.54,131.54,0,0,1-12.31,11,2.72,2.72,0,0,1-3.12,0c-2.19-1.57-8.6-7.2-10.15-8.8C17.11,142.84-.11,115.69,9.1,106.35Z"/><path class="cls-23" d="M.29,91.93,9.88,94.8a8.94,8.94,0,0,1,8.85,5c2.69,5.52,1.4,5.56,1.4,5.56l-6-.07s-1.33.22-7.41-3.74A14.63,14.63,0,0,1,.29,91.93Z"/><path class="cls-24" d="M9.52,93.23l11.25.62s5.79,2.57,7.69,7.47c1.82,4.72.55,4.75.55,4.75L22.73,106s-1.5.2-7.71-3.54S9.52,93.23,9.52,93.23Z"/><path class="cls-25" d="M21.41,92.36l15.22.41s5.41,3.64,2.75,9.5c-2,4.28-3.29,4.29-3.29,4.29l-6.31-.15s-1.58.14-6.05-3C18.58,99.69,21.41,92.36,21.41,92.36Z"/><path class="cls-26" d="M33,92.41l8.26.31s2.91,3.6,1.42,9.48c-1.08,4.29-2.08,3.53-2.08,3.53l-3.15.68s-.86.14-3.26-3C31.44,99.76,33,92.41,33,92.41Z"/><path class="cls-27" d="M75.43,91.07,64.65,93.2s-5.55,2.39-8.84,6.59c-4.71,6-3.06,5.94-3.06,5.94l8.94-.86a14.1,14.1,0,0,0,2.23-.69,17.19,17.19,0,0,0,6.79-5.43A30.43,30.43,0,0,0,74,93.84C74.65,92.74,75.11,91.78,75.43,91.07Z"/><path class="cls-28" d="M66.64,91.07a27.83,27.83,0,0,1-7.17,1.84,28.22,28.22,0,0,1-6.13.07,17.13,17.13,0,0,0-9.23,8.3,15.42,15.42,0,0,0-1.37,5L50,106s1.9.22,10.27-4.6C68.81,96.51,66.64,91.07,66.64,91.07Z"/><path class="cls-29" d="M54.66,91.52l-12.57,2s-5.64,3-7.57,7.88-.71,4.94-.71,4.94l8.38-.09s-.3.25,6.74-4.2C56.27,97.45,54.66,91.52,54.66,91.52Z"/><path class="cls-30" d="M48.58,93,42.71,100l4.7-4.28c1.5-1.35,3.35-3,3.13-3.31,0,0-.06,0-1.07.09-.42,0-.73.07-.85.29A.31.31,0,0,0,48.58,93Z"/><path class="cls-31" d="M60.56,100.64a10.35,10.35,0,0,0,2.81-1.73A10.15,10.15,0,0,0,65,97.06c1.67-2.36,1.45-4.4,1.25-4.68h0c-.28-.2-1.06.1-1.06.1a6,6,0,0,1,0,1,8.75,8.75,0,0,1-2,4.31A17.07,17.07,0,0,1,60.56,100.64Z"/><path class="cls-32" d="M67.26,100.39a10,10,0,0,0,2.81-1.72,12,12,0,0,0,1.66-1.85A16.58,16.58,0,0,0,74,93.1c.39-.81.75-1.17.6-1.35-.4-.45-1.66.26-1.66.26,0,.25-.89,1.77-.94,2.19a17.75,17.75,0,0,1-2,3.35A16.29,16.29,0,0,1,67.26,100.39Z"/><path class="cls-33" d="M43.05,93.6l-7.53,9.26c.45-.53,4.06-5,6-6.9a20,20,0,0,1,2.49-2.17c.38-.26.81-.28.77-.36s-.23-.13-.87.06A5.75,5.75,0,0,1,43.05,93.6Z"/><path class="cls-34" d="M23.17,92.67l1.41.09a9.55,9.55,0,0,0,.3,4.63A7.8,7.8,0,0,0,27,100.93s.2.18,2.09,1.61h0a10,10,0,0,1-5.88-9.87Z"/><path class="cls-35" d="M11.94,93.72l1.41.09a9.52,9.52,0,0,0,.29,4.63A7.82,7.82,0,0,0,15.73,102s.2.19,2.08,1.62h0a10.29,10.29,0,0,1-4.89-4.76A10.07,10.07,0,0,1,11.94,93.72Z"/><path class="cls-36" d="M1.07,92.44c.46-.1,1.12.5,1.58.4a9.54,9.54,0,0,0,1.49,4.4,7.87,7.87,0,0,0,2.93,2.87s.25.12,2.44,1h0a10.39,10.39,0,0,1-6-3.33A12.79,12.79,0,0,1,1.07,92.44Z"/><path class="cls-37" d="M15.81,93.84c.19,0,.5.7.69.71a23.36,23.36,0,0,0,.84,4.55,13.26,13.26,0,0,0,1.39,3.36s.11.17,1.09,1.47h0a10,10,0,0,1-2.71-4.4A29.31,29.31,0,0,1,15.81,93.84Z"/><path class="cls-38" d="M47.63,97.27a88,88,0,0,1-7.08,5.52c-1.9,1.33-3.75,2.52-5.52,3.58l2.39-.1c1.18-.77,2.41-1.64,3.67-2.65A46.36,46.36,0,0,0,47.63,97.27Z"/><path class="cls-39" d="M61,95.1c-1.08,1.22-3.7,4.14-6.73,7.23a15.2,15.2,0,0,1-3.51,2.78,14.63,14.63,0,0,1-2.37,1l2.4-.12a48,48,0,0,0,3.67-3.22A52.91,52.91,0,0,0,61,95.1Z"/><path class="cls-40" d="M54.81,93.08c.52,1-1.52,6.93-6.71,9.5-2.15,1.07-4,2.52-5.81,3.58l2.52-.1c1.24-.76,5.44-2.88,6.73-3.92a14.82,14.82,0,0,0,4-5.68,15.33,15.33,0,0,0,.35-3.24A3.07,3.07,0,0,0,54.81,93.08Z"/><path class="cls-41" d="M67,92.74a2.08,2.08,0,0,1,1.66-.22,19.51,19.51,0,0,1-1,3.64,15.17,15.17,0,0,1-4,6,15.52,15.52,0,0,1-4.89,3c-5,.67-6.28.59-6.33.35-.14-.65,7.74-3.12,11.41-6.65A10.1,10.1,0,0,0,67,92.74Z"/><path class="cls-42" d="M41.84,93.83c-1.21.34-5.6,3.81-7.13,7.5-1.05,2.52-1.49,4.29-1.15,5.17-.16-.55-3.77.45-3.93-.09.45-1,3.7-6.33,4.4-7.5a15.8,15.8,0,0,1,4.46-4.44,22.17,22.17,0,0,1,3-1.3S41.84,93.56,41.84,93.83Z"/><path class="cls-43" d="M28.09,106.07c-.55-.3-1.33-.74-2.24-1.3a17.71,17.71,0,0,1-2.76-1.91,8.52,8.52,0,0,1-2.34-4.09,8.7,8.7,0,0,1,.35-5H18.87a13,13,0,0,0,.41,4.71,13.9,13.9,0,0,0,5.81,7.69,7.59,7.59,0,0,1,1.17-.15A8.54,8.54,0,0,1,28.09,106.07Z"/><path class="cls-44" d="M20.55,105.38c-.77-.34-1.83-.83-3.05-1.49a25.89,25.89,0,0,1-2.61-1.5,12.57,12.57,0,0,1-3.8-3.61,10.48,10.48,0,0,1-1.52-4.16L8,94.37a26,26,0,0,0,5.75,10.86l2.69,0Z"/><path class="cls-45" d="M21.26,97.14l1.81.47a12.79,12.79,0,0,0,3,3.73,13.15,13.15,0,0,0,2,1.41,5.58,5.58,0,0,1-3.88-.4A5.76,5.76,0,0,1,21.26,97.14Z"/><path class="cls-46" d="M26.18,96.74l3,.14a7,7,0,0,1,2.5,2,6.89,6.89,0,0,1,1.05,2,6.05,6.05,0,0,0-.57.48A11.53,11.53,0,0,0,30.69,103a7.47,7.47,0,0,1-1.49-.68,6.16,6.16,0,0,1-2.9-3.58A5.15,5.15,0,0,1,26.18,96.74Z"/><path class="cls-47" d="M42.51,98.11l-2.17.38a17.37,17.37,0,0,1-6.1,5.37,4,4,0,0,0,1.7.3c.93,0,1.38-.44,3-1.36,2.24-1.29,2.52-1.19,3-1.81A4.06,4.06,0,0,0,42.51,98.11Z"/><path class="cls-48" d="M58.51,93.46l-1.9,1.12a17.37,17.37,0,0,1-1.94,4.6,17,17,0,0,1-1.88,2.57,3.89,3.89,0,0,0,1.7-.32c.85-.38,1.13-.9,2.31-2.32,1.64-2,1.94-2,2.14-2.74A4,4,0,0,0,58.51,93.46Z"/><path class="cls-49" d="M30.89,106.24c-2.27,4.39-2.18,12.75-.52,22.39,2.38,13.7,3.88,25.2,8.49,28.66,3.19,2.4,15.69-10,16.65-11.48-2.75,3.26-15.88,15.82-16.74,15.75a7.37,7.37,0,0,0-1.58-.07,0,0,0,0,0,0,0,81.89,81.89,0,0,1-23.68-26.94c-3.27-6.12-10.81-20.19-5.34-27.12a9.07,9.07,0,0,1,3.29-2.54Z"/><path class="cls-50" d="M68.68,118.41a91.37,91.37,0,0,1-13.49,3.5,101.64,101.64,0,0,1-21.49,1,64.94,64.94,0,0,0,22.42,1,71.89,71.89,0,0,0,12.29-2.51C68.84,120.6,68.26,119.27,68.68,118.41Z"/><path class="cls-51" d="M62.51,134.49a128.53,128.53,0,0,1-13.64,1.3,154.68,154.68,0,0,1-21.48-1,97.11,97.11,0,0,0,22.31,2.38,102.7,102.7,0,0,0,12.38-.72C62.55,136,62,135,62.51,134.49Z"/><path class="cls-52" d="M47.52,109.72a4.81,4.81,0,0,1,2.88-1.61,4.46,4.46,0,0,1,3.25.88,11,11,0,0,1,.57,3.59,11.19,11.19,0,0,1-.94,4.39,6.72,6.72,0,0,1-2.94,2.2,5.76,5.76,0,0,1-3.76.07,23.3,23.3,0,0,0,.94-4.61A24.17,24.17,0,0,0,47.52,109.72Z"/><path class="cls-52" d="M47.36,126.49c.58.3,1.56-.37,2.83-.7,1-.25,1.76.22,2.3-.25l-.6,5.93a8,8,0,0,1-3.8.5,7.43,7.43,0,0,1-1.51-.35Z"/><path class="cls-52" d="M46.43,132.32a10.86,10.86,0,0,0,3.19.37,9.31,9.31,0,0,0,2.45-.39l-.2,2.61a20.76,20.76,0,0,1-4.19-.08c-.61-.07-1.19-.16-1.71-.27Z"/><path class="cls-52" d="M46.71,138.58a3.24,3.24,0,0,1,4.21.32c2.22,3.1-7.52,13.55-7.72,13.41s3-2.79,3.44-7.21C47,141.75,45.53,139.71,46.71,138.58Z"/></g></g></g></svg>