<svg xmlns="http://www.w3.org/2000/svg" xmlns:xlink="http://www.w3.org/1999/xlink" viewBox="0 0 461.46 52.23"><defs><style>.cls-1{isolation:isolate;}.cls-2,.cls-26{stroke:#141111;}.cls-11,.cls-13,.cls-14,.cls-15,.cls-16,.cls-17,.cls-18,.cls-19,.cls-2,.cls-20,.cls-21,.cls-22,.cls-23,.cls-24,.cls-25,.cls-26,.cls-3,.cls-36,.cls-4,.cls-42,.cls-48,.cls-5,.cls-52,.cls-56,.cls-57,.cls-6,.cls-67,.cls-68,.cls-7,.cls-71,.cls-73,.cls-74,.cls-75,.cls-76,.cls-77,.cls-79,.cls-8,.cls-9{stroke-miterlimit:10;}.cls-11,.cls-13,.cls-14,.cls-15,.cls-16,.cls-17,.cls-18,.cls-19,.cls-2,.cls-20,.cls-21,.cls-22,.cls-23,.cls-24,.cls-25,.cls-26,.cls-3,.cls-36,.cls-4,.cls-42,.cls-48,.cls-5,.cls-52,.cls-56,.cls-57,.cls-6,.cls-67,.cls-68,.cls-7,.cls-71,.cls-76,.cls-77,.cls-79,.cls-8,.cls-9{stroke-width:0.15px;}.cls-2{fill:url(#linear-gradient);}.cls-11,.cls-13,.cls-14,.cls-15,.cls-16,.cls-17,.cls-20,.cls-21,.cls-22,.cls-24,.cls-3,.cls-36,.cls-4,.cls-42,.cls-48,.cls-5,.cls-52,.cls-56,.cls-57,.cls-6,.cls-67,.cls-68,.cls-71,.cls-76,.cls-77,.cls-79{stroke:#381915;}.cls-3{fill:url(#linear-gradient-2);}.cls-4{fill:none;}.cls-5{fill:url(#linear-gradient-3);}.cls-6{fill:url(#linear-gradient-4);}.cls-18,.cls-19,.cls-23,.cls-25,.cls-7,.cls-8{stroke:#1c1a1a;}.cls-7{fill:url(#linear-gradient-5);}.cls-8{fill:url(#linear-gradient-6);}.cls-9{stroke:#000;fill:url(#linear-gradient-7);}.cls-10,.cls-12,.cls-41,.cls-53,.cls-55,.cls-58{mix-blend-mode:darken;}.cls-10{fill:url(#linear-gradient-8);}.cls-11{fill:url(#linear-gradient-9);}.cls-12{fill:url(#linear-gradient-10);}.cls-13{fill:url(#linear-gradient-11);}.cls-14{fill:url(#linear-gradient-12);}.cls-15{fill:url(#linear-gradient-13);}.cls-16{fill:url(#linear-gradient-14);}.cls-17{fill:url(#linear-gradient-15);}.cls-18{fill:url(#linear-gradient-16);}.cls-19{fill:url(#linear-gradient-17);}.cls-20{fill:url(#linear-gradient-18);}.cls-21{fill:url(#linear-gradient-19);}.cls-22{fill:url(#linear-gradient-20);}.cls-23{fill:url(#linear-gradient-21);}.cls-24{fill:url(#linear-gradient-22);}.cls-25{fill:url(#linear-gradient-23);}.cls-26{fill:url(#linear-gradient-24);}.cls-27{fill:#623612;}.cls-28,.cls-73{fill:#f9d4a8;}.cls-29{fill:#edbb90;}.cls-30{fill:#b77f48;}.cls-31{fill:#63624d;}.cls-32{fill:#cb864a;}.cls-33{fill:#58565e;}.cls-34{fill:#4f321d;}.cls-35{fill:#3d3b3e;}.cls-36{fill:url(#linear-gradient-25);}.cls-37,.cls-46,.cls-47{mix-blend-mode:screen;}.cls-37{fill:url(#linear-gradient-26);}.cls-38{fill:#f48c7a;}.cls-39{fill:#f69945;}.cls-40{fill:url(#linear-gradient-27);}.cls-41{fill:url(#linear-gradient-28);}.cls-42{fill:url(#linear-gradient-29);}.cls-43{fill:#9c6a32;}.cls-44{fill:url(#linear-gradient-30);}.cls-45{fill:url(#linear-gradient-31);}.cls-46{fill:url(#linear-gradient-32);}.cls-47{fill:url(#linear-gradient-33);}.cls-48{fill:url(#linear-gradient-34);}.cls-49{fill:#4b5b34;}.cls-50{fill:#cad3e5;mix-blend-mode:soft-light;}.cls-51{fill:#fee79e;}.cls-52{fill:url(#linear-gradient-35);}.cls-53{fill:url(#linear-gradient-36);}.cls-54{fill:url(#linear-gradient-37);}.cls-55{fill:url(#linear-gradient-38);}.cls-56{fill:url(#linear-gradient-39);}.cls-57{fill:url(#linear-gradient-40);}.cls-58{fill:url(#linear-gradient-41);}.cls-59{fill:url(#linear-gradient-42);}.cls-60{fill:url(#linear-gradient-43);}.cls-61{fill:url(#linear-gradient-44);}.cls-62{fill:url(#linear-gradient-45);}.cls-63{fill:url(#linear-gradient-46);}.cls-64{fill:url(#linear-gradient-47);}.cls-65{fill:url(#linear-gradient-48);}.cls-66{fill:#99f0ad;}.cls-67{fill:url(#linear-gradient-49);}.cls-68{fill:url(#linear-gradient-50);}.cls-69{fill:#fdee68;}.cls-70{fill:url(#linear-gradient-51);}.cls-71{fill:url(#linear-gradient-52);}.cls-72{mix-blend-mode:lighten;fill:url(#linear-gradient-53);}.cls-73,.cls-75{stroke:#23201e;}.cls-73,.cls-74,.cls-75{stroke-width:0.1px;}.cls-74,.cls-75{fill:#705b4d;}.cls-74{stroke:#23211f;}.cls-76{fill:url(#linear-gradient-54);}.cls-77{fill:url(#linear-gradient-55);}.cls-78{fill:#2d3826;}.cls-79{fill:url(#linear-gradient-56);}.cls-80{fill:url(#linear-gradient-57);}.cls-81{fill:url(#linear-gradient-58);}</style><linearGradient id="linear-gradient" x1="366" y1="26.54" x2="461.39" y2="26.54" gradientUnits="userSpaceOnUse"><stop offset="0" stop-color="#413588"/><stop offset="0.34" stop-color="#5e46aa"/><stop offset="0.77" stop-color="#805ad1"/><stop offset="1" stop-color="#8d62e0"/></linearGradient><linearGradient id="linear-gradient-2" x1="461.36" y1="49.19" x2="461.36" y2="49.72" xlink:href="#linear-gradient"/><linearGradient id="linear-gradient-3" x1="365.99" y1="9.72" x2="365.99" y2="9.98" xlink:href="#linear-gradient"/><linearGradient id="linear-gradient-4" x1="413.2" y1="8.65" x2="413.2" y2="43.14" xlink:href="#linear-gradient"/><linearGradient id="linear-gradient-5" x1="325.19" y1="26.69" x2="404.58" y2="26.69" gradientUnits="userSpaceOnUse"><stop offset="0" stop-color="#0d2455"/><stop offset="0.11" stop-color="#112e61"/><stop offset="0.49" stop-color="#1c4a83"/><stop offset="0.8" stop-color="#235c98"/><stop offset="1" stop-color="#2562a0"/></linearGradient><linearGradient id="linear-gradient-6" x1="325.27" y1="1.96" x2="325.27" y2="9.82" gradientUnits="userSpaceOnUse"><stop offset="0" stop-color="#0d2455"/><stop offset="0.24" stop-color="#14356a"/><stop offset="0.74" stop-color="#205691"/><stop offset="1" stop-color="#2562a0"/></linearGradient><linearGradient id="linear-gradient-7" x1="57.78" y1="1.25" x2="57.78" y2="52.15" gradientUnits="userSpaceOnUse"><stop offset="0" stop-color="#d9423d"/><stop offset="0.42" stop-color="#e74b40"/><stop offset="0.99" stop-color="#f65444"/></linearGradient><linearGradient id="linear-gradient-8" x1="46.64" y1="48.14" x2="118.42" y2="6.7" gradientUnits="userSpaceOnUse"><stop offset="0" stop-color="#f45444"/><stop offset="0.04" stop-color="#e94e40"/><stop offset="0.12" stop-color="#d34239"/><stop offset="0.22" stop-color="#c23834"/><stop offset="0.34" stop-color="#b73230"/><stop offset="0.51" stop-color="#b02e2e"/><stop offset="0.99" stop-color="#ae2d2d"/></linearGradient><linearGradient id="linear-gradient-9" x1="108.65" y1="1.57" x2="108.65" y2="52.03" gradientUnits="userSpaceOnUse"><stop offset="0" stop-color="#f67b3b"/><stop offset="0.33" stop-color="#f6843d"/><stop offset="0.99" stop-color="#f69340"/></linearGradient><linearGradient id="linear-gradient-10" x1="103.13" y1="44.61" x2="162.31" y2="10.45" gradientUnits="userSpaceOnUse"><stop offset="0" stop-color="#f59141"/><stop offset="0.01" stop-color="#f59141"/><stop offset="0.15" stop-color="#ef7e3f"/><stop offset="0.33" stop-color="#ea713e"/><stop offset="0.56" stop-color="#e8693d"/><stop offset="1" stop-color="#e7673d"/></linearGradient><linearGradient id="linear-gradient-11" x1="159.16" y1="1.71" x2="159.16" y2="51.9" gradientUnits="userSpaceOnUse"><stop offset="0" stop-color="#f3cf52"/><stop offset="0.47" stop-color="#f8e053"/><stop offset="1" stop-color="#fdef54"/></linearGradient><linearGradient id="linear-gradient-12" x1="119.38" y1="49.39" x2="119.38" y2="49.94" xlink:href="#linear-gradient-11"/><linearGradient id="linear-gradient-13" x1="159.89" y1="8.5" x2="159.89" y2="43.55" xlink:href="#linear-gradient-11"/><linearGradient id="linear-gradient-14" x1="198.89" y1="9.71" x2="198.89" y2="10.21" xlink:href="#linear-gradient-11"/><linearGradient id="linear-gradient-15" x1="210.24" y1="8.53" x2="210.24" y2="43.47" gradientUnits="userSpaceOnUse"><stop offset="0" stop-color="#40a14d"/><stop offset="0.24" stop-color="#49ae62"/><stop offset="0.74" stop-color="#5ac789"/><stop offset="1" stop-color="#60d198"/></linearGradient><linearGradient id="linear-gradient-16" x1="314.95" y1="8.59" x2="314.95" y2="43.3" gradientUnits="userSpaceOnUse"><stop offset="0" stop-color="#66c4e6"/><stop offset="0.65" stop-color="#8be3f2"/><stop offset="1" stop-color="#9af0f7"/></linearGradient><linearGradient id="linear-gradient-17" x1="364.26" y1="8.62" x2="364.26" y2="43.22" xlink:href="#linear-gradient-6"/><linearGradient id="linear-gradient-18" x1="109.28" y1="8.48" x2="109.28" y2="43.63" xlink:href="#linear-gradient-9"/><linearGradient id="linear-gradient-19" x1="58.34" y1="8.44" x2="58.34" y2="43.71" xlink:href="#linear-gradient-7"/><linearGradient id="linear-gradient-20" x1="57.78" y1="0.08" x2="57.78" y2="43.72" gradientUnits="userSpaceOnUse"><stop offset="0" stop-color="#cb423d"/><stop offset="0.32" stop-color="#df4a40"/><stop offset="0.7" stop-color="#f05143"/><stop offset="0.99" stop-color="#f65444"/></linearGradient><linearGradient id="linear-gradient-21" x1="315.87" y1="0.35" x2="315.87" y2="43.3" xlink:href="#linear-gradient-16"/><linearGradient id="linear-gradient-22" x1="401.39" y1="41.25" x2="401.39" y2="43.17" xlink:href="#linear-gradient-6"/><linearGradient id="linear-gradient-23" x1="364.91" y1="0.41" x2="364.91" y2="43.22" xlink:href="#linear-gradient-6"/><linearGradient id="linear-gradient-24" x1="413.68" y1="0.46" x2="413.68" y2="43.14" xlink:href="#linear-gradient"/><linearGradient id="linear-gradient-25" x1="108.65" y1="0.13" x2="108.65" y2="43.64" xlink:href="#linear-gradient-9"/><linearGradient id="linear-gradient-26" x1="1.88" y1="44.05" x2="47.04" y2="44.05" gradientUnits="userSpaceOnUse"><stop offset="0" stop-color="#f45244"/><stop offset="0.27" stop-color="#f45446"/><stop offset="0.36" stop-color="#f45b4c"/><stop offset="0.43" stop-color="#f46657"/><stop offset="0.49" stop-color="#f47767"/><stop offset="0.53" stop-color="#f48c7a"/><stop offset="0.57" stop-color="#f47767"/><stop offset="0.62" stop-color="#f46657"/><stop offset="0.68" stop-color="#f45b4c"/><stop offset="0.76" stop-color="#f45446"/><stop offset="1" stop-color="#f45244"/></linearGradient><linearGradient id="linear-gradient-27" x1="7.61" y1="48.4" x2="47.04" y2="48.4" gradientUnits="userSpaceOnUse"><stop offset="0" stop-color="#f35243"/><stop offset="0.18" stop-color="#f45846" stop-opacity="0.98"/><stop offset="0.35" stop-color="#f66c51" stop-opacity="0.93"/><stop offset="0.51" stop-color="#fa8c62" stop-opacity="0.83"/><stop offset="0.57" stop-color="#fc9a6a" stop-opacity="0.79"/><stop offset="0.63" stop-color="#fa8660" stop-opacity="0.85"/><stop offset="0.74" stop-color="#f66950" stop-opacity="0.93"/><stop offset="0.86" stop-color="#f45847" stop-opacity="0.98"/><stop offset="1" stop-color="#f35244"/></linearGradient><linearGradient id="linear-gradient-28" x1="168.77" y1="51.44" x2="197.74" y2="1.27" gradientUnits="userSpaceOnUse"><stop offset="0" stop-color="#fcec58"/><stop offset="0.06" stop-color="#f7db68"/><stop offset="0.17" stop-color="#f0c37f"/><stop offset="0.3" stop-color="#eab091"/><stop offset="0.45" stop-color="#e6a39e"/><stop offset="0.63" stop-color="#e49ba5"/><stop offset="1" stop-color="#e399a7"/></linearGradient><linearGradient id="linear-gradient-29" x1="159.14" y1="0.18" x2="159.14" y2="43.55" xlink:href="#linear-gradient-11"/><linearGradient id="linear-gradient-30" x1="66" y1="48.4" x2="105.06" y2="48.4" gradientUnits="userSpaceOnUse"><stop offset="0" stop-color="#f59141"/><stop offset="0.17" stop-color="#f69644" stop-opacity="0.98"/><stop offset="0.34" stop-color="#f7a54c" stop-opacity="0.93"/><stop offset="0.5" stop-color="#fabf59" stop-opacity="0.84"/><stop offset="0.57" stop-color="#fccd61" stop-opacity="0.79"/><stop offset="0.64" stop-color="#faba57" stop-opacity="0.85"/><stop offset="0.75" stop-color="#f7a34b" stop-opacity="0.94"/><stop offset="0.87" stop-color="#f69543" stop-opacity="0.98"/><stop offset="1" stop-color="#f59041"/></linearGradient><linearGradient id="linear-gradient-31" x1="128.9" y1="47.84" x2="167.97" y2="47.84" gradientUnits="userSpaceOnUse"><stop offset="0" stop-color="#fced58"/><stop offset="0.13" stop-color="#fcee5e" stop-opacity="0.99"/><stop offset="0.25" stop-color="#fcf070" stop-opacity="0.96"/><stop offset="0.37" stop-color="#fcf48e" stop-opacity="0.91"/><stop offset="0.49" stop-color="#fcfab8" stop-opacity="0.85"/><stop offset="0.57" stop-color="#fcffdb" stop-opacity="0.79"/><stop offset="0.64" stop-color="#fcf8b0" stop-opacity="0.86"/><stop offset="0.72" stop-color="#fbf389" stop-opacity="0.92"/><stop offset="0.81" stop-color="#fbee6e" stop-opacity="0.97"/><stop offset="0.9" stop-color="#fbec5d" stop-opacity="0.99"/><stop offset="1" stop-color="#fbeb58"/></linearGradient><linearGradient id="linear-gradient-32" x1="61.78" y1="43.97" x2="106.51" y2="43.97" xlink:href="#linear-gradient-26"/><linearGradient id="linear-gradient-33" x1="122.67" y1="43.97" x2="167.41" y2="43.97" xlink:href="#linear-gradient-26"/><linearGradient id="linear-gradient-34" x1="209.26" y1="0.33" x2="209.26" y2="43.56" xlink:href="#linear-gradient-15"/><linearGradient id="linear-gradient-35" x1="209.25" y1="1.87" x2="209.25" y2="51.78" xlink:href="#linear-gradient-15"/><linearGradient id="linear-gradient-36" x1="230.5" y1="51.67" x2="239.19" y2="2.34" gradientUnits="userSpaceOnUse"><stop offset="0.01" stop-color="#5ccd94"/><stop offset="0.05" stop-color="#54c390"/><stop offset="0.16" stop-color="#42ab86"/><stop offset="0.29" stop-color="#33987e"/><stop offset="0.44" stop-color="#298b79"/><stop offset="0.63" stop-color="#238376"/><stop offset="1" stop-color="#218175"/></linearGradient><linearGradient id="linear-gradient-37" x1="190.71" y1="47.84" x2="229.77" y2="47.84" gradientUnits="userSpaceOnUse"><stop offset="0" stop-color="#5dce95"/><stop offset="0.14" stop-color="#62d195" stop-opacity="0.98"/><stop offset="0.28" stop-color="#6fda94" stop-opacity="0.9"/><stop offset="0.42" stop-color="#86e992" stop-opacity="0.78"/><stop offset="0.56" stop-color="#a6fe8f" stop-opacity="0.6"/><stop offset="0.56" stop-color="#a7ff8f" stop-opacity="0.6"/><stop offset="0.57" stop-color="#a3fc8f" stop-opacity="0.62"/><stop offset="0.67" stop-color="#84e790" stop-opacity="0.79"/><stop offset="0.77" stop-color="#6ed891" stop-opacity="0.91"/><stop offset="0.88" stop-color="#60cf92" stop-opacity="0.98"/><stop offset="1" stop-color="#5ccc92"/></linearGradient><linearGradient id="linear-gradient-38" x1="178.02" y1="46.23" x2="182.21" y2="46.23" gradientUnits="userSpaceOnUse"><stop offset="0" stop-color="#3da785"/><stop offset="0.58" stop-color="#54c291"/><stop offset="1" stop-color="#60d198"/></linearGradient><linearGradient id="linear-gradient-39" x1="284.19" y1="26.72" x2="347.55" y2="26.72" xlink:href="#linear-gradient-16"/><linearGradient id="linear-gradient-40" x1="284.19" y1="1.87" x2="284.19" y2="1.87" xlink:href="#linear-gradient-16"/><linearGradient id="linear-gradient-41" x1="289.87" y1="51.11" x2="298.54" y2="1.94" gradientTransform="matrix(-1, 0, 0, 1, 584.4, 0)" gradientUnits="userSpaceOnUse"><stop offset="0.01" stop-color="#71cce9"/><stop offset="0.09" stop-color="#67bde8"/><stop offset="0.23" stop-color="#5aaae8"/><stop offset="0.39" stop-color="#529de7"/><stop offset="0.6" stop-color="#4d95e7"/><stop offset="1" stop-color="#4b93e7"/></linearGradient><linearGradient id="linear-gradient-42" x1="306.92" y1="47.01" x2="338.04" y2="47.01" gradientTransform="translate(0.7 -3.75) rotate(0.82)" gradientUnits="userSpaceOnUse"><stop offset="0" stop-color="#7dd6ed"/><stop offset="0.14" stop-color="#81d8ed"/><stop offset="0.28" stop-color="#8ddfec"/><stop offset="0.42" stop-color="#a0ebea"/><stop offset="0.56" stop-color="#bbfbe7"/><stop offset="0.57" stop-color="#bffde7"/><stop offset="0.62" stop-color="#b5f9ea"/><stop offset="0.74" stop-color="#a3f1f0"/><stop offset="0.86" stop-color="#98ecf4"/><stop offset="1" stop-color="#95ebf5"/></linearGradient><linearGradient id="linear-gradient-43" x1="362.57" y1="46.22" x2="393.7" y2="46.22" gradientTransform="translate(0.7 -3.75) rotate(0.82)" gradientUnits="userSpaceOnUse"><stop offset="0" stop-color="#1b4981"/><stop offset="0.13" stop-color="#1d4c85"/><stop offset="0.25" stop-color="#215491"/><stop offset="0.37" stop-color="#2961a4"/><stop offset="0.5" stop-color="#3474bf"/><stop offset="0.57" stop-color="#3d83d5"/><stop offset="0.67" stop-color="#3274bc"/><stop offset="0.77" stop-color="#2b69aa"/><stop offset="0.88" stop-color="#26629f"/><stop offset="1" stop-color="#25609c"/></linearGradient><linearGradient id="linear-gradient-44" x1="417.67" y1="45.14" x2="448.8" y2="45.14" gradientTransform="translate(0.7 -3.75) rotate(0.82)" gradientUnits="userSpaceOnUse"><stop offset="0" stop-color="#6f50bc"/><stop offset="0.15" stop-color="#7354bf"/><stop offset="0.29" stop-color="#7e60c8"/><stop offset="0.43" stop-color="#9073d7"/><stop offset="0.57" stop-color="#aa8eec"/><stop offset="0.57" stop-color="#ab8fec"/><stop offset="0.65" stop-color="#9e7ee4"/><stop offset="0.75" stop-color="#916cdc"/><stop offset="0.87" stop-color="#8961d8"/><stop offset="1" stop-color="#865ed6"/></linearGradient><linearGradient id="linear-gradient-45" x1="306.59" y1="43.64" x2="340.35" y2="43.64" gradientUnits="userSpaceOnUse"><stop offset="0" stop-color="#79d4ec"/><stop offset="0.1" stop-color="#7dd5ed"/><stop offset="0.2" stop-color="#89d9ee"/><stop offset="0.3" stop-color="#9cdff1"/><stop offset="0.4" stop-color="#b8e8f5"/><stop offset="0.5" stop-color="#dbf3fa"/><stop offset="0.58" stop-color="#fff"/><stop offset="0.61" stop-color="#f0fcfe"/><stop offset="0.68" stop-color="#cff6fa"/><stop offset="0.75" stop-color="#b6f2f8"/><stop offset="0.83" stop-color="#a4eff6"/><stop offset="0.91" stop-color="#99edf5"/><stop offset="1" stop-color="#96ecf5"/></linearGradient><linearGradient id="linear-gradient-46" x1="362.08" y1="43.55" x2="395.85" y2="43.55" gradientUnits="userSpaceOnUse"><stop offset="0" stop-color="#1b467f"/><stop offset="0.12" stop-color="#1c4a83"/><stop offset="0.23" stop-color="#1d558f"/><stop offset="0.35" stop-color="#2069a2"/><stop offset="0.46" stop-color="#2383be"/><stop offset="0.57" stop-color="#28a6e1"/><stop offset="0.59" stop-color="#29ade8"/><stop offset="0.65" stop-color="#2899d5"/><stop offset="0.73" stop-color="#2780bc"/><stop offset="0.81" stop-color="#266eab"/><stop offset="0.9" stop-color="#2563a0"/><stop offset="1" stop-color="#25609d"/></linearGradient><linearGradient id="linear-gradient-47" x1="416.37" y1="43.43" x2="450.13" y2="43.43" gradientUnits="userSpaceOnUse"><stop offset="0" stop-color="#6f50bc"/><stop offset="0.12" stop-color="#7353be"/><stop offset="0.24" stop-color="#7f5ec4"/><stop offset="0.35" stop-color="#926fce"/><stop offset="0.47" stop-color="#ad87dc"/><stop offset="0.57" stop-color="#cda3ec"/><stop offset="0.61" stop-color="#bf95e8"/><stop offset="0.7" stop-color="#a67de0"/><stop offset="0.79" stop-color="#946cda"/><stop offset="0.89" stop-color="#8961d7"/><stop offset="1" stop-color="#865ed6"/></linearGradient><linearGradient id="linear-gradient-48" x1="347.73" y1="27.33" x2="409.79" y2="43.42" gradientTransform="matrix(0.81, -0.21, 0.21, 0.81, 64.02, 71.2)" gradientUnits="userSpaceOnUse"><stop offset="0" stop-color="#59adf2"/><stop offset="0.42" stop-color="#58abf0"/><stop offset="0.57" stop-color="#55a5e9"/><stop offset="0.67" stop-color="#4f9bde"/><stop offset="0.76" stop-color="#478ccd"/><stop offset="0.83" stop-color="#3c79b7"/><stop offset="0.9" stop-color="#2f619b"/><stop offset="0.96" stop-color="#20457c"/><stop offset="1" stop-color="#112b5e"/></linearGradient><linearGradient id="linear-gradient-49" x1="404.58" y1="40.99" x2="404.58" y2="40.99" xlink:href="#linear-gradient-6"/><linearGradient id="linear-gradient-50" x1="404.55" y1="49.29" x2="404.55" y2="49.29" xlink:href="#linear-gradient-6"/><linearGradient id="linear-gradient-51" x1="145.25" y1="0.39" x2="150.85" y2="10.1" gradientUnits="userSpaceOnUse"><stop offset="0" stop-color="#f57b3c"/><stop offset="0.24" stop-color="#f79456"/><stop offset="0.52" stop-color="#f9aa6d"/><stop offset="0.78" stop-color="#fbb77b"/><stop offset="1" stop-color="#fbbc80"/></linearGradient><linearGradient id="linear-gradient-52" x1="461.39" y1="41.29" x2="461.39" y2="41.29" xlink:href="#linear-gradient"/><linearGradient id="linear-gradient-53" x1="366.13" y1="14.94" x2="444.3" y2="14.94" gradientUnits="userSpaceOnUse"><stop offset="0" stop-color="#4e3d95"/><stop offset="0.53" stop-color="#b2a7f5"/><stop offset="1" stop-color="#7b57c9"/></linearGradient><linearGradient id="linear-gradient-54" x1="263.08" y1="8.56" x2="263.08" y2="43.39" gradientUnits="userSpaceOnUse"><stop offset="0" stop-color="#18502c"/><stop offset="0.09" stop-color="#195432"/><stop offset="0.69" stop-color="#236c59"/><stop offset="1" stop-color="#277568"/></linearGradient><linearGradient id="linear-gradient-55" x1="263.21" y1="0.3" x2="263.21" y2="43.39" xlink:href="#linear-gradient-54"/><linearGradient id="linear-gradient-56" x1="236.14" y1="45.94" x2="290.28" y2="45.94" gradientUnits="userSpaceOnUse"><stop offset="0" stop-color="#18502c"/><stop offset="0.1" stop-color="#1a5534"/><stop offset="0.58" stop-color="#236c59"/><stop offset="0.81" stop-color="#1b5c40"/><stop offset="1" stop-color="#175231"/></linearGradient><linearGradient id="linear-gradient-57" x1="249.47" y1="47.83" x2="280.6" y2="47.83" gradientTransform="translate(0.7 -3.75) rotate(0.82)" gradientUnits="userSpaceOnUse"><stop offset="0" stop-color="#1b5c41"/><stop offset="0.11" stop-color="#1d6044"/><stop offset="0.23" stop-color="#246c4b"/><stop offset="0.34" stop-color="#2f7f58"/><stop offset="0.44" stop-color="#3f9b6b"/><stop offset="0.55" stop-color="#53be82"/><stop offset="0.57" stop-color="#57c587"/><stop offset="0.61" stop-color="#4db47b"/><stop offset="0.68" stop-color="#3b9366"/><stop offset="0.75" stop-color="#2c7a55"/><stop offset="0.83" stop-color="#226849"/><stop offset="0.91" stop-color="#1c5d41"/><stop offset="1" stop-color="#1a5a3f"/></linearGradient><linearGradient id="linear-gradient-58" x1="294.61" y1="36.71" x2="273.71" y2="0.5" gradientUnits="userSpaceOnUse"><stop offset="0" stop-color="#99f0ad"/><stop offset="0.41" stop-color="#97eeac"/><stop offset="0.56" stop-color="#92e7a6"/><stop offset="0.67" stop-color="#88dc9d"/><stop offset="0.75" stop-color="#7acb90"/><stop offset="0.83" stop-color="#68b580"/><stop offset="0.89" stop-color="#52996b"/><stop offset="0.95" stop-color="#387a53"/><stop offset="1" stop-color="#1a5637"/></linearGradient></defs><g class="cls-1"><g id="Layer_2" data-name="Layer 2"><g id="Layer_1-2" data-name="Layer 1"><path class="cls-2" d="M461.39,41.31l-.05,7.88v.53c-.32.89-2.24,1.49-5.41,1.5l-35.85.07c-5.08,0-10.85-1.49-12.83-3.31l-41-37.67A.74.74,0,0,1,366,10V1.79a.74.74,0,0,0,.23.33l7.11,6.53,33.91,31.17c2,1.82,7.75,3.33,12.83,3.32l33,0h2.86c3.31,0,5.25-.65,5.44-1.61A1,1,0,0,0,461.39,41.31Z"/><path class="cls-3" d="M461.34,49.72v-.53A.8.8,0,0,1,461.34,49.72Z"/><line class="cls-4" x1="366" y1="10.01" x2="366" y2="9.98"/><line class="cls-4" x1="366" y1="1.79" x2="366" y2="1.51"/><path class="cls-5" d="M366,9.78a.14.14,0,0,1,0-.06V10A.35.35,0,0,1,366,9.78Z"/><path class="cls-6" d="M453.07,43.09l-33,0c-5.08,0-10.85-1.5-12.83-3.32L373.34,8.65l22.37,0c3.52,0,7.46.74,8.83,1.66Z"/><path class="cls-7" d="M404.58,41.18l0,7.86v.21c-.08,1.21-2.45,2.08-6.31,2.09l-36.11.07c-5.13,0-10.3-1.5-11.52-3.33l-25.32-37.8a.48.48,0,0,1-.09-.37.13.13,0,0,1,0-.08h0c.06-.66,0-6.39,0-7.86a.3.3,0,0,0,.06.11l4.4,6.57,20.92,31.25c.8,1.19,3.31,2.26,6.38,2.84a27.9,27.9,0,0,0,5.17.49l36.08,0h.56c3.24-.07,5.33-.78,5.73-1.79a.56.56,0,0,0,0-.12A.17.17,0,0,0,404.58,41.18Z"/><path class="cls-8" d="M325.26,9.82V2C325.28,3.43,325.32,9.16,325.26,9.82Z"/><path class="cls-9" d="M115.49,1.25V9.48c0,.21-.11.44-.46.68L57.77,48.62C55,50.5,48.36,52.06,43,52.07l-37.8.08c-3.62,0-5.42-.7-5.11-1.72h0l0-8.13c.11.87,1.91,1.44,5.14,1.43l37.8,0c5.34,0,12-1.57,14.75-3.43L105.12,8.45,115,1.8C115.32,1.61,115.48,1.42,115.49,1.25Z"/><path class="cls-10" d="M50.46,47.83a4.76,4.76,0,0,1-.3,1.54,5.56,5.56,0,0,1-1.53,2.22,29.2,29.2,0,0,0,3.84-.73c.39-.11,1.3-.35,2.24-.69,2.06-.76,3.13-1.6,6.32-3.73,2.08-1.39,1.24-.78,3-2C67.39,42.2,87.3,28.55,114.37,10c.82-1.1,1.43-2.06,1.35-2.75-.24-2.11-.26-5.73-.3-5.7-1.34,1-8.08,5.46-8.09,5.47C104.9,8.6,86.79,20.62,79.8,25.45c-5.13,3.54-8,5.49-13.84,9.38-3.84,2.58-.48.29-4.41,2.87-3.45,2.27-4.51,3-6.36,3.8A29.12,29.12,0,0,1,49.52,43c0,.09.76,0,.83.63C50.53,45.25,50.41,46.28,50.46,47.83Z"/><path class="cls-11" d="M157.05,10.19,116.54,48.52c-2,1.86-7.88,3.42-13.18,3.43L65.86,52C62.13,52,60,51.27,60,50.18V41.89c.12,1,2.22,1.75,5.84,1.75l37.5,0c5.3,0,11.22-1.56,13.18-3.42L150,8.5l7-6.64a.84.84,0,0,0,.21-.29v8C157.33,9.78,157.27,10,157.05,10.19Z"/><path class="cls-12" d="M109,48a4.94,4.94,0,0,1-.29,1.53,5.58,5.58,0,0,1-1.52,2.21A28.6,28.6,0,0,0,111,51c.39-.1,1.28-.34,2.21-.68,2-.76,3.41-1.64,6-4.3,1.74-1.82,1.29-1.65,3-2.82,3.35-2.27,7.37-13.9,31.12-34.27,1.07-.91,3.94-3,3.92-3.64-.07-2.11,0-3.65,0-3.62-1.12,1.14-8.68,8.31-8.69,8.31-5.35,5-10.65,10-16.42,15.49-4.24,4-5.05,4.77-9.75,9.32-3.08,3-1.45,1.36-4.22,3.89-3,2.71-2.82,2.45-4.65,3.21a24.54,24.54,0,0,1-5.4,1.32c0,.09.76,0,.82.63C109.1,45.39,109,46.42,109,48Z"/><path class="cls-13" d="M198.92,1.71l-.07,8v.5l-24,38.2c-1.17,1.85-6.39,3.4-11.64,3.41L126,51.9c-3.83,0-6.3-.8-6.62-2V41.59c.3,1.07,2.4,1.83,5.71,1.95H126l37.22,0c5.25,0,10.47-1.55,11.64-3.41l19.8-31.53,4.17-6.65A.4.4,0,0,0,198.92,1.71Z"/><line class="cls-4" x1="198.92" y1="1.71" x2="198.92" y2="1.53"/><line class="cls-4" x1="157.26" y1="9.88" x2="157.26" y2="9.59"/><path class="cls-4" d="M157.26,1.57v0"/><path class="cls-14" d="M119.4,49.39v.55A1,1,0,0,1,119.4,49.39Z"/><path class="cls-15" d="M194.68,8.56l-19.8,31.53c-1.17,1.86-6.39,3.4-11.64,3.41l-37.22,0h-.91l34.4-33.36c1-.93,4.67-1.68,8.29-1.68l25.57,0C193.83,8.52,194.27,8.53,194.68,8.56Z"/><path class="cls-16" d="M198.85,10.21v-.5A.42.42,0,0,1,198.85,10.21Z"/><path class="cls-17" d="M239,9.1,232.78,40c-.37,1.85-4.9,3.39-10.11,3.4l-36.94,0a19.4,19.4,0,0,1-4.24-.41l19.8-32.85c.56-.94,3.94-1.68,7.54-1.68l25.43,0A17.81,17.81,0,0,1,239,9.1Z"/><path class="cls-18" d="M344,42.92a20.1,20.1,0,0,1-3.79.33l-36.39,0c-5.16,0-9.72-1.51-10.18-3.35L285.94,9a18,18,0,0,1,4.3-.45l25.17,0c3.55,0,6.91.74,7.51,1.67Z"/><path class="cls-19" d="M398.8,43.16h-.53l-36.11,0c-5.13,0-10.3-1.51-11.52-3.33L329.72,8.64l.91,0,25,0c3.54,0,7.19.74,8.17,1.67Z"/><path class="cls-20" d="M150,8.5,116.54,40.17c-2,1.86-7.88,3.41-13.18,3.42l-34.83,0,49-33.47c1.38-.93,5.43-1.68,9.07-1.68Z"/><path class="cls-21" d="M105.12,8.45,57.77,40.24C55,42.1,48.36,43.66,43,43.67l-31.46,0,63.7-33.58C77,9.19,81.44,8.45,85.1,8.44Z"/><path class="cls-22" d="M115.49,1.25c0,.17-.17.36-.46.55l-9.91,6.65L57.77,40.24C55,42.1,48.36,43.66,43,43.67l-37.8,0c-3.23,0-5-.56-5.14-1.43v-.18c.06-.52.7-1.15,2-1.81L75.26,1.75C77,.81,81.44.07,85.1.08l25.83,0C113.81.12,115.58.59,115.49,1.25Z"/><path class="cls-23" d="M347.55,40.67c0,1-1.37,1.81-3.58,2.25a20.1,20.1,0,0,1-3.79.33l-36.39,0c-5.16,0-9.72-1.51-10.18-3.35L285.94,9,284.2,2a.41.41,0,0,1,0-.11c0-.88,2.62-1.55,6.05-1.55l25.17,0c3.55,0,6.91.74,7.51,1.67l24.39,37.83A1.36,1.36,0,0,1,347.55,40.67Z"/><path class="cls-24" d="M398.24,43.17c.18,0,6.13-1.91,6.3-1.92v.12c-.4,1-2.49,1.72-5.73,1.79h-.56Z"/><path class="cls-25" d="M404.6,41a1,1,0,0,1,0,.17.17.17,0,0,1,0,.07.56.56,0,0,1,0,.12c-.4,1-2.49,1.72-5.73,1.79h-.56l-36.08,0a27.9,27.9,0,0,1-5.17-.49c-3.06-.59-5.55-1.65-6.35-2.84L329.72,8.64l-4.4-6.57a.3.3,0,0,1-.06-.11.4.4,0,0,1,0-.34c.28-.71,2.42-1.22,5.37-1.21l25,0c3.54,0,7.19.75,8.17,1.67l40.11,37.71a1.94,1.94,0,0,1,.64,1A1.23,1.23,0,0,1,404.6,41Z"/><path class="cls-26" d="M461.39,41.27v0a1,1,0,0,1,0,.17c-.19,1-2.13,1.61-5.44,1.61h-2.86l-33,0c-5.08,0-10.85-1.5-12.83-3.32L373.34,8.65l-7.11-6.53a.74.74,0,0,1-.23-.33.39.39,0,0,1,0-.28c.26-.62,2.1-1,4.81-1l24.9,0c3.52,0,7.46.74,8.83,1.67l55.62,37.59C461,40.29,461.37,40.81,461.39,41.27Z"/><path class="cls-27" d="M95.44,4.41c-1.13.69-4.2,1.25-6.84,1.24S84.81,5.09,86,4.4s4.22-1.22,6.79-1.22S96.55,3.73,95.44,4.41Z"/><path class="cls-28" d="M96.17,4.25c-1.12.68-4.18,1.24-6.81,1.24s-3.79-.57-2.6-1.25S91,3,93.52,3,97.28,3.57,96.17,4.25Z"/><path class="cls-29" d="M91.92,3.36a10.41,10.41,0,0,1,3.15.09c1,.27.14.83.1.83s.45-.26,0-.44c-.64-.26-2.61-.1-3.23-.39C91.86,3.4,91.86,3.38,91.92,3.36Z"/><path class="cls-27" d="M43.41,36.18c-2,1.2-6.42,2.19-9.92,2.19s-4.63-1-2.55-2.18,6.42-2.11,9.81-2.11S45.34,35,43.41,36.18Z"/><path class="cls-30" d="M44.5,35.9c-2,1.19-6.39,2.17-9.89,2.18s-4.63-1-2.56-2.17,6.39-2.1,9.77-2.11S46.41,34.73,44.5,35.9Z"/><path class="cls-28" d="M44.67,35.06c-2,1.19-6.39,2.18-9.88,2.18s-4.63-1-2.56-2.16S38.62,33,42,33,46.59,33.9,44.67,35.06Z"/><path class="cls-29" d="M39.48,33.52a10.14,10.14,0,0,1,4.09.15c1.09.46-.37,1.43-.42,1.43s.77-.46.31-.77c-.67-.44-3.39-.15-4-.66C39.38,33.6,39.39,33.55,39.48,33.52Z"/><path class="cls-31" d="M308.1,4.27c.33.68-1.48,1.23-4,1.22s-4.85-.55-5.11-1.23,1.55-1.19,4.05-1.19S307.78,3.61,308.1,4.27Z"/><path class="cls-28" d="M308.34,4.2c.32.67-1.48,1.22-4,1.22s-4.85-.56-5.11-1.23S300.75,3,303.25,3,308,3.53,308.34,4.2Z"/><path class="cls-29" d="M302.38,3.32a11.15,11.15,0,0,1,3.25.1c1.47.26,1.84.81,1.81.81s-.12-.26-.91-.44c-1.16-.25-2.73-.09-3.93-.38C302.42,3.37,302.36,3.34,302.38,3.32Z"/><path class="cls-31" d="M323.38,35.29c.57,1.16-1.69,2.12-5.05,2.12s-6.47-.95-6.92-2.11,1.83-2,5.09-2.06S322.83,34.15,323.38,35.29Z"/><path class="cls-32" d="M323.65,35.16c.56,1.15-1.69,2.11-5,2.11s-6.46-.94-6.92-2.1,1.83-2.05,5.08-2.05S323.09,34,323.65,35.16Z"/><path class="cls-28" d="M323.75,34.47c.57,1.16-1.69,2.11-5.05,2.12s-6.46-1-6.91-2.11,1.83-2,5.08-2S323.2,33.33,323.75,34.47Z"/><path class="cls-29" d="M315.69,33.25a11.38,11.38,0,0,1,4.26.15c2,.44,2.57,1.38,2.53,1.39A2.06,2.06,0,0,0,321.2,34c-1.57-.43-3.59-.15-5.21-.64C315.75,33.32,315.67,33.28,315.69,33.25Z"/><path class="cls-33" d="M350.74,4.44c.61.67-.95,1.22-3.5,1.22s-5.06-.56-5.61-1.23,1-1.2,3.52-1.2S350.13,3.77,350.74,4.44Z"/><path class="cls-28" d="M350.82,4.4c.61.68-.95,1.23-3.49,1.22s-5.06-.55-5.61-1.23,1-1.19,3.52-1.19S350.22,3.74,350.82,4.4Z"/><path class="cls-29" d="M344.51,3.53a11.54,11.54,0,0,1,3.28.09,3.9,3.9,0,0,1,2.15.82,2.28,2.28,0,0,0-1.1-.44c-1.26-.26-2.75-.09-4.07-.38C344.57,3.57,344.51,3.55,344.51,3.53Z"/><path class="cls-27" d="M379.16,35.44c1,1.16-.79,2.12-4.13,2.12s-6.84-1-7.79-2.11.95-2.05,4.19-2.05S378.12,34.3,379.16,35.44Z"/><path class="cls-34" d="M379.28,35.38c1.05,1.16-.78,2.12-4.12,2.12s-6.84-1-7.79-2.11.95-2,4.19-2S378.24,34.25,379.28,35.38Z"/><path class="cls-28" d="M379.28,34.83c1.05,1.16-.78,2.11-4.12,2.12s-6.84-1-7.79-2.11.95-2.05,4.19-2.05S378.24,33.69,379.28,34.83Z"/><path class="cls-29" d="M370.73,33.32a11.47,11.47,0,0,1,4.3.15,6.24,6.24,0,0,1,3.11,1.39,3.55,3.55,0,0,0-1.59-.74c-1.74-.44-3.63-.16-5.46-.65C370.82,33.4,370.73,33.36,370.73,33.32Z"/><path class="cls-35" d="M393.31,4.52c.9.67-.42,1.22-2.95,1.22s-5.27-.56-6.11-1.23.52-1.2,3-1.19S392.42,3.85,393.31,4.52Z"/><path class="cls-28" d="M393.44,4.45c.9.67-.41,1.22-2.94,1.22s-5.27-.56-6.11-1.23.52-1.19,3-1.19S392.56,3.79,393.44,4.45Z"/><path class="cls-29" d="M386.8,3.58a11.58,11.58,0,0,1,3.3.09,6.16,6.16,0,0,1,2.48.81,3.67,3.67,0,0,0-1.27-.43c-1.37-.26-2.78-.1-4.22-.39C386.87,3.62,386.8,3.6,386.8,3.58Z"/><path class="cls-35" d="M434.75,35.61c1.54,1.16.12,2.11-3.2,2.12s-7.21-.95-8.65-2.11.07-2,3.29-2S433.23,34.47,434.75,35.61Z"/><path class="cls-32" d="M435,35.33c1.54,1.16.12,2.11-3.19,2.11s-7.19-.94-8.63-2.1.06-2,3.28-2S433.45,34.2,435,35.33Z"/><path class="cls-28" d="M435,34.71c1.54,1.15.12,2.1-3.19,2.11s-7.19-1-8.63-2.1.06-2,3.28-2S433.45,33.57,435,34.71Z"/><path class="cls-29" d="M425.7,33.21c-.07-.17,2.32-.23,4.34.15a10,10,0,0,1,3.68,1.38,5.83,5.83,0,0,0-1.9-.74c-1.92-.43-3.68-.15-5.7-.64C425.82,33.28,425.71,33.24,425.7,33.21Z"/><path class="cls-36" d="M157.26,1.55v0a.84.84,0,0,1-.21.29L150,8.5,116.54,40.17c-2,1.86-7.88,3.41-13.18,3.42l-37.5,0c-3.62,0-5.72-.71-5.84-1.75v0a.67.67,0,0,1,0-.2c.06-.44.46-.93,1.21-1.44L117.49,1.81c1.38-.94,5.43-1.68,9.07-1.68l25.7,0C155.47.17,157.52.76,157.26,1.55Z"/><path class="cls-27" d="M138.55,4.33c-.84.68-3.64,1.24-6.26,1.24s-4-.57-3.11-1.25,3.66-1.21,6.22-1.21S139.37,3.66,138.55,4.33Z"/><path class="cls-28" d="M139.21,4.17c-.83.68-3.62,1.24-6.24,1.23s-4-.56-3.12-1.24S133.5,3,136.06,3,140,3.5,139.21,4.17Z"/><path class="cls-29" d="M134.6,3.28a10.64,10.64,0,0,1,3.17.1c1.07.26.49.82.46.82s.33-.26-.19-.44c-.74-.26-2.63-.1-3.36-.39C134.57,3.33,134.56,3.3,134.6,3.28Z"/><path class="cls-27" d="M100.43,35.91C99,37.1,95,38.08,91.52,38.08s-5-1-3.45-2.16,5.46-2.1,8.83-2.1S101.85,34.75,100.43,35.91Z"/><path class="cls-30" d="M101.39,35.63C100,36.81,96,37.79,92.51,37.79s-5-1-3.46-2.15,5.44-2.09,8.79-2.09S102.79,34.47,101.39,35.63Z"/><path class="cls-28" d="M101.39,35.1C100,36.28,96,37.26,92.51,37.26s-5-1-3.46-2.15S94.49,33,97.84,33,102.79,33.94,101.39,35.1Z"/><path class="cls-29" d="M96,33.57a10.34,10.34,0,0,1,4.12.15c1.27.45.24,1.41.19,1.42s.56-.46,0-.76c-.86-.45-3.42-.16-4.24-.66C96,33.64,95.94,33.6,96,33.57Z"/><path class="cls-37" d="M1.92,43.86c7,.09,14.08.07,21.51.08,8.77,0,16.12.35,23.61-.21-.13.19-.66.25-.79.45-8.08.22-14.76.15-23.38.19-7.42,0-13.93-.06-21-.15"/><path class="cls-38" d="M1.39,40.83S72.9,2.9,75.34,2l2.44-.85c.56-.19.83-.29.83-.28.47.49-75.52,39.75-75.52,39.75Z"/><path class="cls-39" d="M61.53,40.19S116.36,2.77,117.86,1.71a16.63,16.63,0,0,0,1.76-.61,1.2,1.2,0,0,1,.94.15c.53.41-54.58,38.3-54.58,38.3Z"/><path class="cls-40" d="M7.85,46.18s9.51-.74,21.39-.67c12.44.07,17.8,0,17.8,0l-.17,5.17s-5.89.51-20.39.64C12.91,51.42,7.61,51,7.61,51Z"/><line class="cls-4" x1="60.02" y1="41.89" x2="60.02" y2="41.87"/><path class="cls-41" d="M169.73,47.58a8.1,8.1,0,0,1-.18,1.54,6.32,6.32,0,0,1-1,2.22,12.28,12.28,0,0,0,2.38-.69c.24-.1.87-.29,1.5-.52,1.37-.5,2.52-1.43,3.91-4.12a21.66,21.66,0,0,1,1.87-3c1.62-2.59,6-13.33,18.83-34,.58-.94,1.81-2.71,1.79-3.39-.06-2.08,0-3.73,0-3.7-.69,1.12-5,8-5,8-3.28,4.92-6.25,9.95-9.81,15.34-2.62,4-3.12,4.72-6,9.23-1.92,3-.9,1.34-2.62,3.85-1.84,2.7-1.75,2.43-2.89,3.18a10.62,10.62,0,0,1-3.36,1.26c0,.09.47.06.51.65C169.77,45,169.7,46,169.73,47.58Z"/><path class="cls-42" d="M198.92,1.53v.18a.4.4,0,0,1-.07.2l-4.17,6.65-19.8,31.53c-1.17,1.86-6.39,3.4-11.64,3.41l-37.22,0h-.91c-3.31-.12-5.41-.88-5.71-1.95a1.45,1.45,0,0,1,.58-1.43l39.53-38.3c1-.94,4.67-1.68,8.29-1.68l25.57,0C196.47.22,198.72.78,198.92,1.53Z"/><path class="cls-43" d="M181.25,4.38c-.53.68-3.09,1.24-5.69,1.23s-4.23-.56-3.62-1.24,3.13-1.21,5.67-1.21S181.78,3.7,181.25,4.38Z"/><path class="cls-28" d="M181.84,4.21c-.53.68-3.07,1.24-5.67,1.24s-4.23-.57-3.63-1.25S175.66,3,178.2,3,182.37,3.54,181.84,4.21Z"/><path class="cls-29" d="M176.89,3.33a10.8,10.8,0,0,1,3.19.1c1.17.26.84.82.81.82s.21-.26-.38-.44c-.85-.26-2.65-.1-3.51-.39C176.87,3.38,176.85,3.35,176.89,3.33Z"/><path class="cls-43" d="M157.05,35.86C156.12,37,152.56,38,149.12,38s-5.39-1-4.35-2.15,4.55-2.09,7.88-2.09S158,34.7,157.05,35.86Z"/><path class="cls-30" d="M157.57,35.58c-.92,1.18-4.47,2.15-7.9,2.15s-5.38-1-4.35-2.14,4.52-2.08,7.85-2.08S158.47,34.42,157.57,35.58Z"/><path class="cls-28" d="M157.74,34.75c-.92,1.18-4.46,2.15-7.9,2.16s-5.38-1-4.35-2.15,4.52-2.08,7.85-2.08S158.64,33.6,157.74,34.75Z"/><path class="cls-29" d="M151.62,33.23a10.57,10.57,0,0,1,4.16.15c1.45.45.83,1.41.79,1.41s.36-.45-.35-.76c-1-.44-3.46-.15-4.49-.65C151.58,33.3,151.56,33.26,151.62,33.23Z"/><path class="cls-44" d="M66.24,46.19s9.42-.74,21.19-.67c12.32.08,17.63,0,17.63,0l-.17,5.14s-5.83.51-20.19.64C71.26,51.4,66,51,66,51Z"/><path class="cls-45" d="M129.14,45.63s9.42-.73,21.19-.67c12.32.08,17.64,0,17.64,0l-.18,5.14s-5.82.51-20.19.64c-13.44.12-18.7-.27-18.7-.27Z"/><path class="cls-46" d="M61.81,43.78c6.94.09,14,.06,21.31.08,8.69,0,16,.35,23.39-.22-.12.2-.65.26-.78.45-8,.22-14.62.15-23.16.2-7.35,0-13.8-.07-20.79-.16"/><path class="cls-47" d="M122.71,43.78c6.93.09,14,.06,21.31.08,8.69,0,16,.35,23.39-.22-.13.2-.66.26-.79.45-8,.22-14.62.15-23.16.2-7.35,0-13.8-.07-20.79-.16"/><path class="cls-48" d="M240.44,2a.28.28,0,0,1,0,.09L239,9.19l-6.21,30.92c-.37,1.85-4.9,3.39-10.11,3.4l-36.94.05a19.4,19.4,0,0,1-4.24-.41c-2.08-.44-3.36-1.25-3.41-2.2v0a1.24,1.24,0,0,1,.2-.74L201.3,2c.56-.94,3.94-1.68,7.54-1.67l25.43,0c2.69,0,4.92.43,5.78,1A.74.74,0,0,1,240.44,2Z"/><path class="cls-49" d="M223.45,4.42c-.24.68-2.55,1.24-5.14,1.24s-4.44-.57-4.12-1.25,2.6-1.2,5.13-1.2S223.7,3.75,223.45,4.42Z"/><path class="cls-28" d="M224,4.26c-.24.68-2.54,1.23-5.13,1.23s-4.43-.56-4.12-1.24,2.59-1.2,5.12-1.2S224.21,3.59,224,4.26Z"/><path class="cls-29" d="M218.68,3.38a10.94,10.94,0,0,1,3.21.1c1.27.26,1.17.81,1.14.82s.11-.27-.55-.44c-.95-.26-2.68-.1-3.65-.39C218.68,3.43,218.65,3.4,218.68,3.38Z"/><path class="cls-49" d="M212.28,35.81c-.43,1.18-3.55,2.15-7,2.15s-5.76-1-5.22-2.14,3.63-2.08,6.95-2.08S212.7,34.65,212.28,35.81Z"/><path class="cls-30" d="M213,35.53c-.42,1.17-3.53,2.14-6.94,2.14s-5.75-1-5.22-2.13,3.62-2.07,6.92-2.07S213.4,34.38,213,35.53Z"/><path class="cls-28" d="M213,34.93c-.42,1.17-3.53,2.14-6.94,2.15s-5.75-1-5.22-2.14,3.62-2.07,6.92-2.07S213.4,33.78,213,34.93Z"/><path class="cls-29" d="M206.28,33.57a10.76,10.76,0,0,1,4.2.15c1.63.45,1.42,1.4,1.38,1.41s.17-.46-.67-.76c-1.21-.44-3.5-.15-4.73-.65C206.28,33.64,206.24,33.6,206.28,33.57Z"/><path class="cls-50" d="M178.38,40.57S201,2.29,201.51,2l.5-.32.17-.11c.41.2-22.23,38.61-22.23,38.61Z"/><path class="cls-51" d="M132.84,28.55s27-26.66,27.61-26.93l.56-.25.2-.09c.36.16-22.8,23.69-22.8,23.69Z"/><line class="cls-4" x1="178.08" y1="40.86" x2="178.08" y2="40.83"/><path class="cls-52" d="M240.43,1.87v8.36L232.78,48.3c-.37,1.85-4.9,3.39-10.11,3.4l-36.94.08c-4.59,0-7.7-1.17-7.66-2.7V40.86c0,1,1.33,1.76,3.41,2.2a19.4,19.4,0,0,0,4.24.41l36.94,0c5.21,0,9.74-1.55,10.11-3.4L239,9.1,240.42,2A.28.28,0,0,0,240.43,1.87Z"/><path class="cls-53" d="M231.8,47.05c-.22,2.42-2.4,3.35-3.9,4.16a20.8,20.8,0,0,0,2.56-.94,6.48,6.48,0,0,0,2.12-1.48,87,87,0,0,0,1.72-8.58c.82-3.2.62-3.12,1.07-5.29.8-3.82,1.33-6.15,4.07-19.8a43.6,43.6,0,0,0,1-4.89c0-1.7-.12-7.71-.12-7.69-.12.45-.48,2.88-.75,3.64-1.34,6.86-1,4.39-1.31,6.75-1,3.28-1,5.37-2,10-1,3.41-.71,5.14-1.66,8.17-1.15,3.64-1.42,8-1.89,9.25-.91,1.17-.31.78-.88,1A32.94,32.94,0,0,1,231.8,47.05Z"/><path class="cls-54" d="M191,45.63s9.41-.73,21.18-.67c12.32.08,17.64,0,17.64,0l-.17,5.14s-5.83.51-20.2.64c-13.44.12-18.69-.27-18.69-.27Z"/><path class="cls-55" d="M178,40.94a2.91,2.91,0,0,0,.45.69A4.91,4.91,0,0,0,181,42.91c.3.1.73.22,1.25.34,0,2.76,0,5.51-.05,8.27-.19,0-.47-.07-.8-.14a5.39,5.39,0,0,1-2.36-1,3.85,3.85,0,0,1-.87-1C178.09,46.62,178.06,43.78,178,40.94Z"/><line class="cls-4" x1="236.14" y1="40.23" x2="236.14" y2="40.2"/><line class="cls-4" x1="236.14" y1="48.61" x2="236.14" y2="48.51"/><line class="cls-4" x1="290.28" y1="48.43" x2="290.28" y2="40.34"/><path class="cls-56" d="M340.18,51.46l-36.39.07c-5.16,0-9.72-1.5-10.18-3.34L284.2,10.26a.31.31,0,0,1,0-.09V1.9a.41.41,0,0,0,0,.11l1.74,7L293.61,40c.46,1.84,5,3.36,10.18,3.35l36.39,0a20.1,20.1,0,0,0,3.79-.33c2.21-.44,3.55-1.27,3.58-2.25l0,7.89C347.92,50.17,344.86,51.45,340.18,51.46Z"/><line class="cls-57" x1="284.19" y1="1.9" x2="284.19" y2="1.84"/><path class="cls-58" d="M294.47,46.91c.34,2.7,1.37,2.81,3.17,3.81a22.2,22.2,0,0,1-2.19-.87c-.82-.24-1-.64-1.68-1.28-.43-1.63-1-3.49-2.35-9.21-1-3.41-.78-3.33-1.34-5.61-1-4-1.63-5.63-4.78-19a36.6,36.6,0,0,1-1.1-4.46c0-1.57.12-7.89.12-7.88.12.41.52,2.61.81,3.3,1.48,6.37,1.06,4.05,1.44,6.26.81,3.08,1.33,5.13,2.47,9.62.9,3.46,1.1,4.42,1.91,7.67,1.09,4.36,1.9,8.58,2.47,10s.7,1.61.7,1.61S294.34,45,294.47,46.91Z"/><path class="cls-59" d="M307.14,45.42S314.65,44.8,324,45c9.82.21,14.05.17,14.05.17l-.21,5.14s-4.65.44-16.1.41c-10.71,0-14.89-.48-14.89-.48Z"/><path class="cls-60" d="M362.8,45.42s7.51-.62,16.89-.42c9.82.21,14.05.17,14.05.17l-.21,5.14s-4.65.44-16.1.41c-10.71,0-14.89-.48-14.89-.48Z"/><path class="cls-61" d="M417.91,45.13s7.51-.63,16.89-.42c9.82.21,14.05.17,14.05.17L448.64,50s-4.65.44-16.1.41c-10.71,0-14.89-.48-14.89-.48Z"/><path class="cls-62" d="M306.59,43.54c5.24,0,10.54,0,16.09,0,6.57,0,12.07.17,17.67-.11-.1.1-.49.13-.59.23-6.05.11-11.05.07-17.49.09-5.56,0-8.23,0-13.51,0"/><path class="cls-63" d="M362.08,43.27c5.24.13,10.54.1,16.1.12,6.56,0,12.06.51,17.67-.32-.1.29-.5.37-.59.66-6.05.33-11.05.22-17.5.29-5.55.06-8.22,0-13.5-.17"/><path class="cls-64" d="M416.37,43.31c5.24,0,10.54,0,16.1,0,6.56,0,12.06.21,17.66-.14-.09.12-.49.16-.59.28-6.05.14-11.05.09-17.49.12-5.56,0-8.23,0-13.5-.07"/><path class="cls-50" d="M294.13,40.23S284.81,3.36,284.77,2.7c0,0,0-.27,0-.64,0-.14,1-.87,1-.87.2,0,8.63,38.08,8.63,38.08Z"/><path class="cls-50" d="M348.67,36.59S328.27,6.42,328,5.94l-.25-.46c-.06-.11.24-.53.24-.53s20.37,30.78,20.37,30.78Z"/><path class="cls-65" d="M364.61,3.6c-2.11-2-3.18-2.38-3.88-2.49C358.18.47,350.05.52,350.06.57s9.74.14,11.43.94a3.53,3.53,0,0,1,.35.12,4.16,4.16,0,0,1,1.4.86C365,4.08,365.91,5,366.3,5.34c.69.69.32.3,2,2,1.32,1.29,6.68,6.3,7.78,7.38,5.23,4.74,57.6,54,1.49,1.08-3.46-3.11-9.9-9.26-11-10.34C366.51,5.34,365.64,4.58,364.61,3.6Z"/><path class="cls-66" d="M238.47,10c1.7-8,1.86-8.6.89-8.81a57.14,57.14,0,0,0-6.94-.59,24,24,0,0,1,5.81.9,5,5,0,0,1,1,.89c.58,1.13-.09,2.9-.23,3.62-1,5.56-1.51,8.07-1.74,9.1-.39,1.7-.15.76-1,4.48-.53,2.38-1.79,9.12-2.05,10.19-.61,3.85-3,16,.06,1.09.51-3.16,2.57-12.93,3.17-15.5C237.48,15.16,237.82,13.07,238.47,10Z"/><polyline class="cls-67" points="404.58 40.8 404.58 40.83 404.58 41.19"/><line class="cls-68" x1="404.55" y1="49.33" x2="404.55" y2="49.25"/><path class="cls-69" d="M191.55,1.23l.56-.64a16.13,16.13,0,0,1,3.43.15,15.71,15.71,0,0,1,2.93.75c-.78,1.13-9.46,14.9-10.24,16,0,0,7.47-14.31,6.19-15.26A6.43,6.43,0,0,0,191.55,1.23Z"/><path class="cls-70" d="M144.32.93l1.59-.55c1.81-.2,6.62-.11,7.44-.06a9.69,9.69,0,0,1,3.69,1c-1,.92-13.63,12.79-14.65,13.71,0,0,12.34-12.23,11.31-13.45S144.32.93,144.32.93Z"/><line class="cls-71" x1="461.39" y1="41.31" x2="461.39" y2="41.27"/><path class="cls-72" d="M366.23,1.89c-.61-.55,1.59-1.21,2.42-1.2,3.09,0,7.58-.1,17.23.06,4.89.08,8.78.08,11.56.07a12.71,12.71,0,0,1,8.2,2.26L444.3,29.21l-4.72-2.08-.14-.07L404.7,3.3,404.2,3a9.81,9.81,0,0,0-2.6-1.18,19.37,19.37,0,0,0-4.22-.28c-9,.12-18.1,0-27.15.14-.8,0-.39,1.65.19,2.21l8.28,9.28,10.1,9.49Z"/><path class="cls-50" d="M236.31,40.39s6.54-37.27,6.77-37.88c0,0,.1-.26.22-.6.31-.44.63-.64.56-.56.2.07-6.46,37-6.46,37Z"/><polygon class="cls-73" points="235.38 31.95 234.32 36.67 236.75 36.66 237.59 31.9 235.38 31.95"/><polygon class="cls-74" points="234.32 36.67 234.32 39.56 236.19 39.56 236.75 36.66 234.32 36.67"/><polygon class="cls-73" points="239.69 9.19 239.2 12.03 241.16 12.03 241.66 9.19 239.69 9.19"/><polygon class="cls-74" points="239.2 13.77 240.85 13.77 241.16 12.03 239.2 12.03 239.2 13.77"/><polygon class="cls-73" points="285.28 9.15 285.94 11.96 284 11.96 283.37 9.15 285.28 9.15"/><polygon class="cls-74" points="284.39 13.71 285.94 13.7 285.94 11.96 284 11.96 284.39 13.71"/><polygon class="cls-73" points="290.79 31.88 291.87 36.53 289.48 36.53 288.44 31.88 290.79 31.88"/><polygon class="cls-75" points="290.07 39.43 291.87 39.43 291.87 36.53 289.48 36.53 290.07 39.43"/><polygon class="cls-73" points="343.12 31.8 346.12 36.4 345.15 36.4 342.19 31.8 343.12 31.8"/><polygon class="cls-74" points="346.12 37.91 346.12 36.4 345.15 36.4 346.12 37.91"/><polygon class="cls-73" points="328.49 9.11 330.28 11.9 329.36 11.9 327.57 9.11 328.49 9.11"/><polygon class="cls-74" points="330.28 13.32 330.28 11.9 329.36 11.9 330.28 13.32"/><polygon class="cls-73" points="195.87 9.2 194.02 12.09 195.12 12.09 196.87 9.2 195.87 9.2"/><polygon class="cls-73" points="181.81 32.03 178.87 36.8 180.22 36.8 183.05 32.09 181.81 32.03"/><polygon class="cls-74" points="178.87 39.07 178.87 36.8 180.22 36.8 178.87 39.07"/><polygon class="cls-74" points="194.14 13.75 194.02 12.09 195.12 12.09 194.14 13.75"/><polygon class="cls-73" points="151.36 9.27 148.28 12.16 148.77 12.16 151.76 9.27 151.36 9.27"/><polygon class="cls-73" points="127.53 32.11 122.52 36.94 123.19 36.94 128.17 32.11 127.53 32.11"/><polygon class="cls-74" points="122.52 37.6 122.52 36.94 123.19 36.94 122.52 37.6"/><polygon class="cls-74" points="148.28 12.16 148.28 12.64 148.77 12.16 148.28 12.16"/><path class="cls-76" d="M288.86,42a16.28,16.28,0,0,1-7.22,1.37L245,43.39c-3.34,0-6.18-.63-7.68-1.58l5.55-31.58c.17-.93,3.21-1.67,6.79-1.67l25.3,0c3.57,0,6.63.75,6.84,1.68Z"/><path class="cls-77" d="M290.28,40.2v.08c0,.62-.54,1.2-1.42,1.68a16.28,16.28,0,0,1-7.22,1.37L245,43.39c-3.34,0-6.18-.63-7.68-1.58a2,2,0,0,1-1.16-1.58v0a1.1,1.1,0,0,1,0-.18L242.85,2C243,1,246.06.29,249.64.3l25.3,0c3.57,0,6.63.75,6.84,1.68l8.47,38A.93.93,0,0,1,290.28,40.2Z"/><path class="cls-78" d="M266.06,4.47c0,.68-2,1.23-4.59,1.23s-4.65-.56-4.63-1.24,2.08-1.2,4.6-1.2S266,3.8,266.06,4.47Z"/><path class="cls-28" d="M266.51,4.31c0,.68-2,1.23-4.58,1.23S257.29,5,257.31,4.3s2.07-1.2,4.58-1.2S266.47,3.64,266.51,4.31Z"/><path class="cls-29" d="M260.87,3.43a11.12,11.12,0,0,1,3.24.1c1.37.26,1.51.81,1.48.81s0-.26-.74-.44c-1.05-.25-2.7-.09-3.79-.38C260.89,3.47,260.85,3.45,260.87,3.43Z"/><path class="cls-78" d="M268.51,35.26c.08,1.17-2.61,2.14-6,2.14s-6.12-1-6.09-2.13,2.73-2.08,6-2.08S268.44,34.1,268.51,35.26Z"/><path class="cls-32" d="M268.84,34.85c.08,1.16-2.6,2.13-6,2.13s-6.11-.95-6.08-2.12,2.71-2.07,6-2.07S268.77,33.7,268.84,34.85Z"/><path class="cls-28" d="M268.84,34.29c.08,1.17-2.6,2.13-6,2.13s-6.11-1-6.08-2.12,2.71-2.07,6-2.07S268.77,33.14,268.84,34.29Z"/><path class="cls-29" d="M261.43,32.77a11.34,11.34,0,0,1,4.24.15c1.8.45,2,1.4,2,1.4s0-.45-1-.75c-1.39-.44-3.55-.15-5-.65C261.46,32.85,261.4,32.8,261.43,32.77Z"/><path class="cls-79" d="M290.28,48.43c.06,1.73-3.68,3.14-8.64,3.15L245,51.65c-5,0-8.84-1.4-8.84-3.14V40.23a2,2,0,0,0,1.16,1.58c1.5.95,4.34,1.58,7.68,1.58l36.66-.06c5,.06,8.43-1.47,8.64-3l0,7.92A.91.91,0,0,1,290.28,48.43Z"/><path class="cls-80" d="M249.69,45.42s7.51-.62,16.89-.42c9.82.21,14.05.17,14.05.17l-.21,5.14s-4.65.44-16.1.41c-10.71,0-14.89-.48-14.89-.48Z"/><path class="cls-81" d="M282.77,7.35c-1-5-1.77-5.61-2.61-5.93a22.86,22.86,0,0,0-6.91-.65c0,.16,5.3-.11,7.16,1.34a3.48,3.48,0,0,1,.38.34,4.49,4.49,0,0,1,1.14,2.22c.88,3.77,1.32,5.65,1.47,6.45.26,1.38.14.62.77,3.8.44,2.24,2.11,9.53,2.36,10.86,1.3,5.09,6.24,27.4.59,1.29-1-3.83-3-13.61-3.44-15.73C283.64,11.15,283.22,9.53,282.77,7.35Z"/></g></g></g></svg>